{"glyphs":{"0":{"ha":867,"x_min":0,"x_max":0,"o":"m 433 -16 b 807 489 667 -16 807 178 l 807 490 b 433 995 807 801 667 995 b 60 490 199 995 60 801 l 60 489 b 433 -16 60 178 199 -16 z m 433 111 b 213 489 294 111 213 254 l 213 490 b 433 867 213 725 294 867 b 654 490 572 867 654 725 l 654 489 b 433 111 654 254 572 111 z "},"1":{"ha":634,"x_min":0,"x_max":0,"o":"m 323 0 l 472 0 l 472 979 l 322 979 l 64 795 l 64 652 l 320 828 l 323 828 z "},"2":{"ha":804,"x_min":0,"x_max":0,"o":"m 76 0 l 745 0 l 745 128 l 279 128 l 279 134 l 502 353 b 730 718 677 526 730 606 l 730 719 b 408 995 730 877 595 995 b 68 693 216 995 68 868 l 68 689 l 212 689 l 212 693 b 410 869 213 792 295 869 b 580 710 509 869 579 803 l 580 709 b 420 451 580 633 551 581 l 76 104 z "},"3":{"ha":841,"x_min":0,"x_max":0,"o":"m 418 -16 b 772 271 625 -16 772 103 l 772 272 b 532 509 772 409 676 496 l 532 512 b 739 740 652 537 739 618 l 739 741 b 416 995 739 892 611 995 b 80 724 225 995 95 887 l 79 717 l 222 717 l 222 723 b 416 871 232 814 308 871 b 591 722 527 871 591 816 l 591 720 b 403 564 591 629 515 564 l 288 564 l 288 446 l 407 446 b 618 273 538 446 618 384 l 618 272 b 418 111 618 177 537 111 b 205 258 296 111 214 172 l 204 266 l 58 266 l 59 257 b 418 -16 73 98 209 -16 z "},"4":{"ha":861,"x_min":0,"x_max":0,"o":"m 541 0 l 687 0 l 687 195 l 822 195 l 822 322 l 687 322 l 687 979 l 467 979 l 52 327 l 52 195 l 541 195 z m 193 320 l 193 324 l 538 859 l 543 859 l 543 320 z "},"5":{"ha":833,"x_min":0,"x_max":0,"o":"m 426 -16 b 785 320 637 -16 785 121 l 785 321 b 463 644 785 509 650 644 b 241 541 367 644 286 606 l 238 541 l 268 850 l 728 850 l 728 979 l 145 979 l 97 414 l 230 414 b 277 471 243 436 258 455 b 429 524 316 506 368 524 b 637 319 550 524 636 439 l 637 317 b 427 111 637 196 551 111 b 225 267 318 111 238 178 l 224 272 l 79 272 l 80 264 b 426 -16 94 102 230 -16 z "},"6":{"ha":875,"x_min":0,"x_max":0,"o":"m 444 -16 b 802 319 650 -16 802 124 l 802 321 b 479 642 802 506 667 642 b 209 485 347 642 248 573 l 205 485 b 206 511 205 494 205 503 b 449 867 212 705 281 867 b 634 748 543 867 606 821 l 636 741 l 789 741 l 787 749 b 450 995 755 895 625 995 b 60 476 205 995 60 802 l 60 475 b 444 -16 60 123 244 -16 z m 235 319 l 235 319 b 444 519 235 435 326 519 b 650 317 564 519 650 435 l 650 315 b 442 111 650 201 558 111 b 235 319 326 111 235 203 z "},"7":{"ha":772,"x_min":0,"x_max":0,"o":"m 130 0 l 290 0 l 715 847 l 715 979 l 49 979 l 49 850 l 565 850 l 565 847 z "},"8":{"ha":857,"x_min":0,"x_max":0,"o":"m 429 -16 b 798 265 646 -16 798 100 l 798 267 b 583 515 798 390 710 488 l 583 519 b 763 735 692 550 763 631 l 763 736 b 429 995 763 886 623 995 b 95 736 234 995 95 886 l 95 735 b 275 519 95 631 166 550 l 275 515 b 59 267 148 488 59 390 l 59 265 b 429 -16 59 100 212 -16 z m 429 570 b 245 722 320 570 245 633 l 245 723 b 429 875 245 812 320 875 b 612 723 537 875 612 812 l 612 722 b 429 570 612 633 538 570 z m 429 105 b 215 275 304 105 215 176 l 215 277 b 429 448 215 376 303 448 b 642 277 554 448 642 376 l 642 275 b 429 105 642 176 553 105 z "},"9":{"ha":875,"x_min":0,"x_max":0,"o":"m 431 995 b 73 659 224 995 73 854 l 73 658 b 395 336 73 473 208 336 b 666 494 528 336 627 406 l 669 494 b 669 467 669 485 669 476 b 426 111 663 273 594 111 b 241 231 332 111 269 157 l 238 237 l 86 237 l 88 229 b 425 -16 119 83 250 -16 b 815 503 669 -16 815 176 l 815 504 b 431 995 815 856 631 995 z m 430 460 b 224 662 311 460 224 544 l 224 663 b 432 867 224 777 317 867 b 640 660 549 867 640 776 l 640 659 b 430 460 640 543 549 460 z "}," ":{"ha":0,"x_min":0,"x_max":0,"o":""}," ":{"ha":0,"x_min":0,"x_max":0,"o":""}," ":{"ha":281,"x_min":0,"x_max":0,"o":""}," ":{"ha":281,"x_min":0,"x_max":0,"o":""}," ":{"ha":140,"x_min":0,"x_max":0,"o":""}," ":{"ha":694,"x_min":0,"x_max":0,"o":""}," ":{"ha":1389,"x_min":0,"x_max":0,"o":""}," ":{"ha":694,"x_min":0,"x_max":0,"o":""}," ":{"ha":1389,"x_min":0,"x_max":0,"o":""}," ":{"ha":463,"x_min":0,"x_max":0,"o":""}," ":{"ha":347,"x_min":0,"x_max":0,"o":""}," ":{"ha":231,"x_min":0,"x_max":0,"o":""}," ":{"ha":861,"x_min":0,"x_max":0,"o":""}," ":{"ha":311,"x_min":0,"x_max":0,"o":""}," ":{"ha":140,"x_min":0,"x_max":0,"o":""}," ":{"ha":71,"x_min":0,"x_max":0,"o":""},"​":{"ha":0,"x_min":0,"x_max":0,"o":""},"‌":{"ha":0,"x_min":0,"x_max":0,"o":""},"‍":{"ha":0,"x_min":0,"x_max":0,"o":""},"⁠":{"ha":0,"x_min":0,"x_max":0,"o":""}," ":{"ha":309,"x_min":0,"x_max":0,"o":""},"A":{"ha":911,"x_min":0,"x_max":0,"o":"m 18 0 l 177 0 l 267 264 l 644 264 l 734 0 l 893 0 l 538 979 l 374 979 z m 454 817 l 457 817 l 603 387 l 308 387 z "},"À":{"ha":911,"x_min":0,"x_max":0,"o":"m 421 1058 l 526 1058 l 412 1264 l 272 1264 z m 18 0 l 177 0 l 267 264 l 644 264 l 734 0 l 893 0 l 538 979 l 374 979 z m 454 817 l 457 817 l 603 387 l 308 387 z "},"Á":{"ha":911,"x_min":0,"x_max":0,"o":"m 496 1058 l 644 1264 l 505 1264 l 391 1058 z m 18 0 l 177 0 l 267 264 l 644 264 l 734 0 l 893 0 l 538 979 l 374 979 z m 454 817 l 457 817 l 603 387 l 308 387 z "},"Ä":{"ha":911,"x_min":0,"x_max":0,"o":"m 327 1083 b 404 1160 370 1083 404 1117 b 327 1236 404 1202 370 1236 b 250 1160 283 1236 250 1202 b 327 1083 250 1117 283 1083 z m 585 1083 b 662 1160 629 1083 662 1117 b 585 1236 662 1202 629 1236 b 507 1160 542 1236 507 1202 b 585 1083 507 1117 542 1083 z m 18 0 l 177 0 l 267 264 l 644 264 l 734 0 l 893 0 l 538 979 l 374 979 z m 454 817 l 457 817 l 603 387 l 308 387 z "},"Ǟ":{"ha":911,"x_min":0,"x_max":0,"o":"m 273 1196 l 639 1196 l 639 1282 l 273 1282 z m 570 1026 l 573 1026 b 637 1088 610 1026 637 1053 l 637 1090 b 573 1151 637 1124 610 1151 l 570 1151 b 505 1090 533 1151 505 1124 l 505 1088 b 570 1026 505 1053 533 1026 z m 339 1026 l 342 1026 b 407 1088 379 1026 407 1053 l 407 1090 b 342 1151 407 1124 379 1151 l 339 1151 b 274 1090 302 1151 274 1124 l 274 1088 b 339 1026 274 1053 302 1026 z m 18 0 l 177 0 l 267 264 l 644 264 l 734 0 l 893 0 l 538 979 l 374 979 z m 454 817 l 457 817 l 603 387 l 308 387 z "},"Å":{"ha":911,"x_min":0,"x_max":0,"o":"m 459 1034 b 588 1160 530 1034 588 1090 l 588 1161 b 459 1287 588 1232 530 1287 b 330 1161 388 1287 330 1232 l 330 1160 b 459 1034 330 1090 388 1034 z m 459 1106 b 404 1160 428 1106 404 1130 l 404 1161 b 459 1215 404 1192 428 1215 b 513 1161 489 1215 513 1192 l 513 1160 b 459 1106 513 1130 489 1106 z m 18 0 l 177 0 l 267 264 l 644 264 l 734 0 l 893 0 l 538 979 l 374 979 z m 454 817 l 457 817 l 603 387 l 308 387 z "},"Å":{"ha":911,"x_min":0,"x_max":0,"o":"m 459 1034 b 588 1160 530 1034 588 1090 l 588 1161 b 459 1287 588 1232 530 1287 b 330 1161 388 1287 330 1232 l 330 1160 b 459 1034 330 1090 388 1034 z m 459 1106 b 404 1160 428 1106 404 1130 l 404 1161 b 459 1215 404 1192 428 1215 b 513 1161 489 1215 513 1192 l 513 1160 b 459 1106 513 1130 489 1106 z m 18 0 l 177 0 l 267 264 l 644 264 l 734 0 l 893 0 l 538 979 l 374 979 z m 454 817 l 457 817 l 603 387 l 308 387 z "},"Ǻ":{"ha":911,"x_min":0,"x_max":0,"o":"m 399 1187 l 486 1187 l 621 1316 l 503 1316 z m 407 1013 l 505 1013 b 601 1093 569 1013 601 1052 l 601 1094 b 505 1173 601 1134 570 1173 l 407 1173 b 310 1094 342 1173 310 1134 l 310 1093 b 407 1013 310 1052 342 1013 z m 417 1069 b 389 1092 399 1069 389 1078 l 389 1093 b 417 1117 389 1107 399 1117 l 494 1117 b 523 1093 513 1117 523 1107 l 523 1092 b 494 1069 523 1078 513 1069 z m 18 0 l 177 0 l 267 264 l 644 264 l 734 0 l 893 0 l 538 979 l 374 979 z m 454 817 l 457 817 l 603 387 l 308 387 z "},"Ã":{"ha":911,"x_min":0,"x_max":0,"o":"m 551 1057 b 662 1234 621 1057 662 1116 l 662 1242 l 572 1242 l 572 1238 b 535 1160 572 1185 561 1160 b 475 1190 516 1160 496 1173 l 450 1209 b 360 1243 426 1229 397 1243 b 248 1066 292 1243 248 1185 l 248 1058 l 338 1058 l 338 1063 b 376 1141 338 1116 350 1141 b 433 1110 394 1141 412 1127 l 458 1090 b 551 1057 483 1072 513 1057 z m 18 0 l 177 0 l 267 264 l 644 264 l 734 0 l 893 0 l 538 979 l 374 979 z m 454 817 l 457 817 l 603 387 l 308 387 z "},"Ằ":{"ha":911,"x_min":0,"x_max":0,"o":"m 512 1194 l 408 1322 l 290 1322 l 426 1194 z m 455 1023 l 456 1023 b 644 1181 572 1023 644 1082 l 644 1187 l 559 1187 l 559 1185 b 456 1101 559 1136 523 1101 l 455 1101 b 352 1185 388 1101 352 1136 l 352 1187 l 267 1187 l 267 1181 b 455 1023 267 1082 339 1023 z m 18 0 l 177 0 l 267 264 l 644 264 l 734 0 l 893 0 l 538 979 l 374 979 z m 454 817 l 457 817 l 603 387 l 308 387 z "},"Ǡ":{"ha":911,"x_min":0,"x_max":0,"o":"m 273 1197 l 639 1197 l 639 1284 l 273 1284 z m 454 1032 l 457 1032 b 521 1095 494 1032 521 1060 l 521 1096 b 457 1156 521 1130 494 1156 l 454 1156 b 390 1096 418 1156 390 1130 l 390 1094 b 454 1032 390 1060 418 1032 z m 18 0 l 177 0 l 267 264 l 644 264 l 734 0 l 893 0 l 538 979 l 374 979 z m 454 817 l 457 817 l 603 387 l 308 387 z "},"Ḁ":{"ha":911,"x_min":0,"x_max":0,"o":"m 18 0 l 177 0 l 267 264 l 644 264 l 734 0 l 893 0 l 538 979 l 374 979 z m 454 817 l 457 817 l 603 387 l 308 387 z m 458 -68 l 454 -68 b 311 -201 374 -68 311 -126 l 311 -202 b 454 -334 311 -277 374 -334 l 458 -334 b 601 -202 537 -334 601 -277 l 601 -201 b 458 -68 601 -126 537 -68 z m 457 -142 b 521 -201 493 -142 521 -168 l 521 -202 b 457 -260 521 -235 493 -260 l 454 -260 b 391 -202 418 -260 391 -235 l 391 -201 b 454 -142 391 -168 418 -142 z "},"Â":{"ha":911,"x_min":0,"x_max":0,"o":"m 244 1058 l 359 1058 l 455 1194 l 553 1058 l 667 1058 l 518 1264 l 393 1264 z m 18 0 l 177 0 l 267 264 l 644 264 l 734 0 l 893 0 l 538 979 l 374 979 z m 454 817 l 457 817 l 603 387 l 308 387 z "},"Ậ":{"ha":911,"x_min":0,"x_max":0,"o":"m 244 1058 l 359 1058 l 455 1194 l 553 1058 l 667 1058 l 518 1264 l 393 1264 z m 18 0 l 177 0 l 267 264 l 644 264 l 734 0 l 893 0 l 538 979 l 374 979 z m 454 817 l 457 817 l 603 387 l 308 387 z m 456 -279 b 541 -195 504 -279 541 -241 b 456 -110 541 -148 504 -110 b 370 -195 408 -110 370 -148 b 456 -279 370 -241 408 -279 z "},"Ấ":{"ha":911,"x_min":0,"x_max":0,"o":"m 532 1194 l 618 1194 l 753 1322 l 635 1322 z m 399 1162 l 263 1025 l 376 1025 l 455 1107 l 536 1025 l 648 1025 l 511 1162 z m 18 0 l 177 0 l 267 264 l 644 264 l 734 0 l 893 0 l 538 979 l 374 979 z m 454 817 l 457 817 l 603 387 l 308 387 z "},"Ẫ":{"ha":911,"x_min":0,"x_max":0,"o":"m 539 1191 b 644 1317 600 1191 644 1233 l 644 1322 l 560 1322 l 560 1320 b 526 1268 560 1286 549 1268 b 476 1285 509 1268 496 1273 l 460 1295 b 372 1322 433 1312 404 1322 b 268 1196 311 1322 268 1280 l 268 1191 l 351 1191 l 351 1193 b 385 1244 351 1227 363 1244 b 433 1227 401 1244 414 1239 l 450 1217 b 539 1191 477 1199 505 1191 z m 399 1162 l 263 1025 l 376 1025 l 455 1107 l 536 1025 l 648 1025 l 511 1162 z m 18 0 l 177 0 l 267 264 l 644 264 l 734 0 l 893 0 l 538 979 l 374 979 z m 454 817 l 457 817 l 603 387 l 308 387 z "},"Ầ":{"ha":911,"x_min":0,"x_max":0,"o":"m 644 1194 l 540 1322 l 422 1322 l 558 1194 z m 399 1162 l 263 1025 l 376 1025 l 455 1107 l 536 1025 l 648 1025 l 511 1162 z m 18 0 l 177 0 l 267 264 l 644 264 l 734 0 l 893 0 l 538 979 l 374 979 z m 454 817 l 457 817 l 603 387 l 308 387 z "},"Ẩ":{"ha":911,"x_min":0,"x_max":0,"o":"m 539 1164 l 605 1164 b 653 1245 635 1187 653 1213 b 547 1328 653 1296 610 1328 b 489 1319 524 1328 503 1324 l 489 1248 b 516 1251 496 1249 506 1251 b 564 1214 547 1251 564 1237 b 539 1167 564 1199 555 1183 z m 399 1162 l 263 1025 l 376 1025 l 455 1107 l 536 1025 l 648 1025 l 511 1162 z m 18 0 l 177 0 l 267 264 l 644 264 l 734 0 l 893 0 l 538 979 l 374 979 z m 454 817 l 457 817 l 603 387 l 308 387 z "},"Ă":{"ha":911,"x_min":0,"x_max":0,"o":"m 456 1056 b 657 1253 578 1056 657 1136 l 657 1259 l 559 1259 l 559 1256 b 456 1148 559 1197 520 1148 b 352 1256 392 1148 352 1197 l 352 1259 l 255 1259 l 255 1253 b 456 1056 255 1136 334 1056 z m 18 0 l 177 0 l 267 264 l 644 264 l 734 0 l 893 0 l 538 979 l 374 979 z m 454 817 l 457 817 l 603 387 l 308 387 z "},"Ắ":{"ha":911,"x_min":0,"x_max":0,"o":"m 399 1194 l 486 1194 l 621 1322 l 503 1322 z m 455 1023 l 456 1023 b 644 1181 572 1023 644 1082 l 644 1187 l 559 1187 l 559 1185 b 456 1101 559 1136 523 1101 l 455 1101 b 352 1185 388 1101 352 1136 l 352 1187 l 267 1187 l 267 1181 b 455 1023 267 1082 339 1023 z m 18 0 l 177 0 l 267 264 l 644 264 l 734 0 l 893 0 l 538 979 l 374 979 z m 454 817 l 457 817 l 603 387 l 308 387 z "},"Ẵ":{"ha":911,"x_min":0,"x_max":0,"o":"m 539 1191 b 644 1317 600 1191 644 1233 l 644 1322 l 560 1322 l 560 1320 b 526 1268 560 1286 549 1268 b 476 1285 509 1268 496 1273 l 460 1295 b 372 1322 433 1312 404 1322 b 268 1196 311 1322 268 1280 l 268 1191 l 351 1191 l 351 1193 b 385 1244 351 1227 363 1244 b 433 1227 401 1244 414 1239 l 450 1217 b 539 1191 477 1199 505 1191 z m 455 1023 l 456 1023 b 643 1155 572 1023 643 1073 l 643 1161 l 559 1161 l 559 1158 b 456 1100 559 1124 523 1100 l 455 1100 b 352 1158 389 1100 352 1124 l 352 1161 l 268 1161 l 268 1155 b 455 1023 268 1073 339 1023 z m 18 0 l 177 0 l 267 264 l 644 264 l 734 0 l 893 0 l 538 979 l 374 979 z m 454 817 l 457 817 l 603 387 l 308 387 z "},"Ẳ":{"ha":911,"x_min":0,"x_max":0,"o":"m 407 1164 l 473 1164 b 521 1245 503 1187 521 1213 b 415 1328 521 1296 477 1328 b 357 1319 392 1328 371 1324 l 357 1248 b 384 1251 363 1249 374 1251 b 431 1214 414 1251 431 1237 b 407 1167 431 1199 423 1183 z m 455 1023 l 456 1023 b 644 1181 572 1023 644 1082 l 644 1187 l 559 1187 l 559 1185 b 456 1101 559 1136 523 1101 l 455 1101 b 352 1185 388 1101 352 1136 l 352 1187 l 267 1187 l 267 1181 b 455 1023 267 1082 339 1023 z m 18 0 l 177 0 l 267 264 l 644 264 l 734 0 l 893 0 l 538 979 l 374 979 z m 454 817 l 457 817 l 603 387 l 308 387 z "},"Ặ":{"ha":911,"x_min":0,"x_max":0,"o":"m 456 1056 b 657 1253 578 1056 657 1136 l 657 1259 l 559 1259 l 559 1256 b 456 1148 559 1197 520 1148 b 352 1256 392 1148 352 1197 l 352 1259 l 255 1259 l 255 1253 b 456 1056 255 1136 334 1056 z m 18 0 l 177 0 l 267 264 l 644 264 l 734 0 l 893 0 l 538 979 l 374 979 z m 454 817 l 457 817 l 603 387 l 308 387 z m 456 -279 b 541 -195 504 -279 541 -241 b 456 -110 541 -148 504 -110 b 370 -195 408 -110 370 -148 b 456 -279 370 -241 408 -279 z "},"Ȃ":{"ha":911,"x_min":0,"x_max":0,"o":"m 456 1259 b 255 1062 334 1259 255 1179 l 255 1056 l 352 1056 l 352 1059 b 456 1166 352 1118 392 1166 b 559 1059 520 1166 559 1118 l 559 1056 l 657 1056 l 657 1062 b 456 1259 657 1179 578 1259 z m 18 0 l 177 0 l 267 264 l 644 264 l 734 0 l 893 0 l 538 979 l 374 979 z m 454 817 l 457 817 l 603 387 l 308 387 z "},"Ǎ":{"ha":911,"x_min":0,"x_max":0,"o":"m 667 1264 l 553 1264 l 456 1127 l 359 1264 l 244 1264 l 393 1058 l 518 1058 z m 18 0 l 177 0 l 267 264 l 644 264 l 734 0 l 893 0 l 538 979 l 374 979 z m 454 817 l 457 817 l 603 387 l 308 387 z "},"Ȧ":{"ha":911,"x_min":0,"x_max":0,"o":"m 455 1083 b 536 1164 500 1083 536 1120 b 455 1243 536 1207 500 1243 b 374 1164 411 1243 374 1207 b 455 1083 374 1120 411 1083 z m 18 0 l 177 0 l 267 264 l 644 264 l 734 0 l 893 0 l 538 979 l 374 979 z m 454 817 l 457 817 l 603 387 l 308 387 z "},"Ạ":{"ha":911,"x_min":0,"x_max":0,"o":"m 18 0 l 177 0 l 267 264 l 644 264 l 734 0 l 893 0 l 538 979 l 374 979 z m 454 817 l 457 817 l 603 387 l 308 387 z m 456 -279 b 541 -195 504 -279 541 -241 b 456 -110 541 -148 504 -110 b 370 -195 408 -110 370 -148 b 456 -279 370 -241 408 -279 z "},"Ả":{"ha":911,"x_min":0,"x_max":0,"o":"m 402 1058 l 494 1058 b 563 1165 539 1088 563 1123 b 415 1278 563 1234 495 1278 b 336 1265 383 1278 354 1272 l 336 1186 b 381 1190 347 1187 361 1190 b 463 1141 429 1190 463 1172 b 402 1060 463 1116 440 1088 z m 18 0 l 177 0 l 267 264 l 644 264 l 734 0 l 893 0 l 538 979 l 374 979 z m 454 817 l 457 817 l 603 387 l 308 387 z "},"Ȁ":{"ha":911,"x_min":0,"x_max":0,"o":"m 310 1058 l 414 1058 l 287 1264 l 146 1264 z m 532 1058 l 636 1058 l 523 1264 l 383 1264 z m 18 0 l 177 0 l 267 264 l 644 264 l 734 0 l 893 0 l 538 979 l 374 979 z m 454 817 l 457 817 l 603 387 l 308 387 z "},"Ā":{"ha":911,"x_min":0,"x_max":0,"o":"m 264 1110 l 646 1110 l 646 1208 l 264 1208 z m 18 0 l 177 0 l 267 264 l 644 264 l 734 0 l 893 0 l 538 979 l 374 979 z m 454 817 l 457 817 l 603 387 l 308 387 z "},"Ą":{"ha":911,"x_min":0,"x_max":0,"o":"m 18 0 l 177 0 l 267 264 l 644 264 l 734 0 l 763 0 b 664 -177 701 -46 664 -111 l 664 -178 b 823 -323 664 -273 736 -323 b 903 -309 849 -323 884 -319 l 903 -224 b 864 -231 892 -229 879 -231 b 795 -156 826 -231 795 -207 l 795 -155 b 893 0 795 -94 830 -45 l 538 979 l 374 979 z m 454 817 l 457 817 l 603 387 l 308 387 z "},"B":{"ha":857,"x_min":0,"x_max":0,"o":"m 90 0 l 483 0 b 817 276 691 0 817 104 l 817 277 b 587 516 817 406 726 502 l 587 519 b 768 732 690 534 768 629 l 768 734 b 481 979 768 882 654 979 l 90 979 z m 444 854 b 617 715 554 854 617 805 l 617 714 b 410 562 617 616 545 562 l 242 562 l 242 854 z m 441 444 b 661 285 587 444 661 390 l 661 283 b 452 124 661 179 588 124 l 242 124 l 242 444 z "},"Ḇ":{"ha":857,"x_min":0,"x_max":0,"o":"m 90 0 l 483 0 b 817 276 691 0 817 104 l 817 277 b 587 516 817 406 726 502 l 587 519 b 768 732 690 534 768 629 l 768 734 b 481 979 768 882 654 979 l 90 979 z m 444 854 b 617 715 554 854 617 805 l 617 714 b 410 562 617 616 545 562 l 242 562 l 242 854 z m 441 444 b 661 285 587 444 661 390 l 661 283 b 452 124 661 179 588 124 l 242 124 l 242 444 z m 192 -237 l 588 -237 l 588 -138 l 192 -138 z "},"Ḅ":{"ha":857,"x_min":0,"x_max":0,"o":"m 90 0 l 483 0 b 817 276 691 0 817 104 l 817 277 b 587 516 817 406 726 502 l 587 519 b 768 732 690 534 768 629 l 768 734 b 481 979 768 882 654 979 l 90 979 z m 444 854 b 617 715 554 854 617 805 l 617 714 b 410 562 617 616 545 562 l 242 562 l 242 854 z m 441 444 b 661 285 587 444 661 390 l 661 283 b 452 124 661 179 588 124 l 242 124 l 242 444 z m 390 -279 b 475 -195 438 -279 475 -241 b 390 -110 475 -148 438 -110 b 304 -195 342 -110 304 -148 b 390 -279 304 -241 342 -279 z "},"Ḃ":{"ha":857,"x_min":0,"x_max":0,"o":"m 389 1083 b 471 1164 435 1083 471 1120 b 389 1243 471 1207 435 1243 b 309 1164 345 1243 309 1207 b 389 1083 309 1120 345 1083 z m 90 0 l 483 0 b 817 276 691 0 817 104 l 817 277 b 587 516 817 406 726 502 l 587 519 b 768 732 690 534 768 629 l 768 734 b 481 979 768 882 654 979 l 90 979 z m 444 854 b 617 715 554 854 617 805 l 617 714 b 410 562 617 616 545 562 l 242 562 l 242 854 z m 441 444 b 661 285 587 444 661 390 l 661 283 b 452 124 661 179 588 124 l 242 124 l 242 444 z "},"Ɓ":{"ha":1053,"x_min":0,"x_max":0,"o":"m 285 0 l 677 0 b 1012 276 886 0 1012 104 l 1012 277 b 783 516 1012 406 922 502 l 783 519 b 964 732 886 533 964 629 l 964 734 b 676 979 964 882 850 979 l 238 979 b 12 774 98 979 12 903 b 33 656 12 733 19 694 l 163 656 b 146 754 151 693 146 724 b 245 853 146 819 179 853 l 285 853 z m 639 854 b 812 715 749 854 812 805 l 812 714 b 606 562 812 616 740 562 l 437 562 l 437 854 z m 637 444 b 856 285 781 444 856 390 l 856 283 b 647 124 856 179 783 124 l 437 124 l 437 444 z "},"C":{"ha":966,"x_min":0,"x_max":0,"o":"m 509 -16 b 918 309 725 -16 887 115 l 918 316 l 768 316 l 766 310 b 509 118 729 186 639 118 b 210 490 328 118 210 263 l 210 490 b 509 861 210 717 327 861 b 764 676 640 861 731 791 l 768 663 l 918 663 l 917 669 b 509 995 886 862 724 995 b 55 490 231 995 55 801 l 55 490 b 509 -16 55 179 231 -16 z "},"Ć":{"ha":966,"x_min":0,"x_max":0,"o":"m 549 1058 l 698 1264 l 557 1264 l 444 1058 z m 509 -16 b 918 309 725 -16 887 115 l 918 316 l 768 316 l 766 310 b 509 118 729 186 639 118 b 210 490 328 118 210 263 l 210 490 b 509 861 210 717 327 861 b 764 676 640 861 731 791 l 768 663 l 918 663 l 917 669 b 509 995 886 862 724 995 b 55 490 231 995 55 801 l 55 490 b 509 -16 55 179 231 -16 z "},"Č":{"ha":966,"x_min":0,"x_max":0,"o":"m 721 1264 l 606 1264 l 510 1127 l 412 1264 l 297 1264 l 447 1058 l 572 1058 z m 509 -16 b 918 309 725 -16 887 115 l 918 316 l 768 316 l 766 310 b 509 118 729 186 639 118 b 210 490 328 118 210 263 l 210 490 b 509 861 210 717 327 861 b 764 676 640 861 731 791 l 768 663 l 918 663 l 917 669 b 509 995 886 862 724 995 b 55 490 231 995 55 801 l 55 490 b 509 -16 55 179 231 -16 z "},"Ĉ":{"ha":966,"x_min":0,"x_max":0,"o":"m 297 1058 l 412 1058 l 508 1194 l 606 1058 l 721 1058 l 571 1264 l 446 1264 z m 509 -16 b 918 309 725 -16 887 115 l 918 316 l 768 316 l 766 310 b 509 118 729 186 639 118 b 210 490 328 118 210 263 l 210 490 b 509 861 210 717 327 861 b 764 676 640 861 731 791 l 768 663 l 918 663 l 917 669 b 509 995 886 862 724 995 b 55 490 231 995 55 801 l 55 490 b 509 -16 55 179 231 -16 z "},"Ċ":{"ha":966,"x_min":0,"x_max":0,"o":"m 509 1083 b 590 1164 554 1083 590 1120 b 509 1243 590 1207 554 1243 b 427 1164 464 1243 427 1207 b 509 1083 427 1120 464 1083 z m 509 -16 b 918 309 725 -16 887 115 l 918 316 l 768 316 l 766 310 b 509 118 729 186 639 118 b 210 490 328 118 210 263 l 210 490 b 509 861 210 717 327 861 b 764 676 640 861 731 791 l 768 663 l 918 663 l 917 669 b 509 995 886 862 724 995 b 55 490 231 995 55 801 l 55 490 b 509 -16 55 179 231 -16 z "},"Ç":{"ha":966,"x_min":0,"x_max":0,"o":"m 500 -314 b 653 -186 584 -314 653 -267 l 653 -185 b 532 -61 653 -107 604 -66 l 562 -14 b 918 309 751 6 890 131 l 918 316 l 768 316 l 766 310 b 509 118 729 186 639 118 b 210 490 328 118 210 263 l 210 490 b 509 861 210 717 327 861 b 764 676 640 861 731 791 l 768 663 l 918 663 l 917 669 b 509 995 886 862 724 995 b 55 490 231 995 55 801 l 55 490 b 468 -15 55 195 214 3 l 426 -79 l 426 -138 l 455 -138 b 533 -185 507 -138 533 -154 l 533 -186 b 467 -226 533 -215 503 -226 b 395 -215 438 -226 410 -220 l 395 -297 b 500 -314 416 -307 456 -314 z "},"Ḉ":{"ha":966,"x_min":0,"x_max":0,"o":"m 549 1058 l 698 1264 l 557 1264 l 444 1058 z m 500 -314 b 653 -186 584 -314 653 -267 l 653 -185 b 532 -61 653 -107 604 -66 l 562 -14 b 918 309 751 6 890 131 l 918 316 l 768 316 l 766 310 b 509 118 729 186 639 118 b 210 490 328 118 210 263 l 210 490 b 509 861 210 717 327 861 b 764 676 640 861 731 791 l 768 663 l 918 663 l 917 669 b 509 995 886 862 724 995 b 55 490 231 995 55 801 l 55 490 b 468 -15 55 195 214 3 l 426 -79 l 426 -138 l 455 -138 b 533 -185 507 -138 533 -154 l 533 -186 b 467 -226 533 -215 503 -226 b 395 -215 438 -226 410 -220 l 395 -297 b 500 -314 416 -307 456 -314 z "},"D":{"ha":954,"x_min":0,"x_max":0,"o":"m 90 0 l 435 0 b 899 491 727 0 899 182 l 899 492 b 435 979 899 800 726 979 l 90 979 z m 242 132 l 242 848 l 421 848 b 743 491 627 848 743 721 l 743 490 b 421 132 743 258 629 132 z "},"Ḋ":{"ha":954,"x_min":0,"x_max":0,"o":"m 427 1083 b 509 1164 473 1083 509 1120 b 427 1243 509 1207 473 1243 b 347 1164 382 1243 347 1207 b 427 1083 347 1120 382 1083 z m 90 0 l 435 0 b 899 491 727 0 899 182 l 899 492 b 435 979 899 800 726 979 l 90 979 z m 242 132 l 242 848 l 421 848 b 743 491 627 848 743 721 l 743 490 b 421 132 743 258 629 132 z "},"Ḓ":{"ha":954,"x_min":0,"x_max":0,"o":"m 90 0 l 435 0 b 899 491 727 0 899 182 l 899 492 b 435 979 899 800 726 979 l 90 979 z m 242 132 l 242 848 l 421 848 b 743 491 627 848 743 721 l 743 490 b 421 132 743 258 629 132 z m 208 -293 l 325 -293 l 427 -150 l 531 -293 l 648 -293 l 490 -81 l 364 -81 z "},"Ḑ":{"ha":954,"x_min":0,"x_max":0,"o":"m 90 0 l 435 0 b 899 491 727 0 899 182 l 899 492 b 435 979 899 800 726 979 l 90 979 z m 242 132 l 242 848 l 421 848 b 743 491 627 848 743 721 l 743 490 b 421 132 743 258 629 132 z m 300 -314 l 393 -314 l 492 -81 l 358 -81 z "},"Ḏ":{"ha":954,"x_min":0,"x_max":0,"o":"m 90 0 l 435 0 b 899 491 727 0 899 182 l 899 492 b 435 979 899 800 726 979 l 90 979 z m 242 132 l 242 848 l 421 848 b 743 491 627 848 743 721 l 743 490 b 421 132 743 258 629 132 z m 230 -237 l 626 -237 l 626 -138 l 230 -138 z "},"Ď":{"ha":954,"x_min":0,"x_max":0,"o":"m 640 1264 l 525 1264 l 429 1127 l 330 1264 l 216 1264 l 366 1058 l 490 1058 z m 90 0 l 435 0 b 899 491 727 0 899 182 l 899 492 b 435 979 899 800 726 979 l 90 979 z m 242 132 l 242 848 l 421 848 b 743 491 627 848 743 721 l 743 490 b 421 132 743 258 629 132 z "},"Ḍ":{"ha":954,"x_min":0,"x_max":0,"o":"m 90 0 l 435 0 b 899 491 727 0 899 182 l 899 492 b 435 979 899 800 726 979 l 90 979 z m 242 132 l 242 848 l 421 848 b 743 491 627 848 743 721 l 743 490 b 421 132 743 258 629 132 z m 428 -279 b 513 -195 476 -279 513 -241 b 428 -110 513 -148 476 -110 b 342 -195 380 -110 342 -148 b 428 -279 342 -241 380 -279 z "},"Ð":{"ha":983,"x_min":0,"x_max":0,"o":"m 119 0 l 465 0 b 928 491 757 0 928 182 l 928 492 b 465 979 928 800 755 979 l 119 979 l 119 546 l 30 546 l 30 433 l 119 433 z m 271 132 l 271 433 l 437 433 l 437 546 l 271 546 l 271 848 l 451 848 b 773 491 657 848 773 721 l 773 490 b 451 132 773 258 659 132 z "},"Đ":{"ha":983,"x_min":0,"x_max":0,"o":"m 119 0 l 465 0 b 928 491 757 0 928 182 l 928 492 b 465 979 928 800 755 979 l 119 979 l 119 546 l 30 546 l 30 433 l 119 433 z m 271 132 l 271 433 l 437 433 l 437 546 l 271 546 l 271 848 l 451 848 b 773 491 657 848 773 721 l 773 490 b 451 132 773 258 659 132 z "},"Ɗ":{"ha":1148,"x_min":0,"x_max":0,"o":"m 285 0 l 630 0 b 1094 491 922 0 1094 182 l 1094 492 b 630 979 1094 800 921 979 l 238 979 b 12 774 98 979 12 903 b 33 656 12 733 19 694 l 163 656 b 146 754 151 693 146 724 b 245 853 146 819 179 853 l 285 853 z m 437 132 l 437 848 l 616 848 b 939 491 823 848 939 721 l 939 490 b 616 132 939 258 824 132 z "},"E":{"ha":777,"x_min":0,"x_max":0,"o":"m 90 0 l 711 0 l 711 131 l 242 131 l 242 435 l 686 435 l 686 562 l 242 562 l 242 848 l 711 848 l 711 979 l 90 979 z "},"È":{"ha":777,"x_min":0,"x_max":0,"o":"m 366 1058 l 471 1058 l 357 1264 l 217 1264 z m 90 0 l 711 0 l 711 131 l 242 131 l 242 435 l 686 435 l 686 562 l 242 562 l 242 848 l 711 848 l 711 979 l 90 979 z "},"Ȅ":{"ha":777,"x_min":0,"x_max":0,"o":"m 255 1058 l 359 1058 l 232 1264 l 92 1264 z m 477 1058 l 581 1058 l 468 1264 l 328 1264 z m 90 0 l 711 0 l 711 131 l 242 131 l 242 435 l 686 435 l 686 562 l 242 562 l 242 848 l 711 848 l 711 979 l 90 979 z "},"É":{"ha":777,"x_min":0,"x_max":0,"o":"m 441 1058 l 589 1264 l 450 1264 l 336 1058 z m 90 0 l 711 0 l 711 131 l 242 131 l 242 435 l 686 435 l 686 562 l 242 562 l 242 848 l 711 848 l 711 979 l 90 979 z "},"Ê":{"ha":777,"x_min":0,"x_max":0,"o":"m 189 1058 l 304 1058 l 400 1194 l 498 1058 l 612 1058 l 463 1264 l 338 1264 z m 90 0 l 711 0 l 711 131 l 242 131 l 242 435 l 686 435 l 686 562 l 242 562 l 242 848 l 711 848 l 711 979 l 90 979 z "},"Ể":{"ha":777,"x_min":0,"x_max":0,"o":"m 484 1164 l 551 1164 b 598 1245 580 1187 598 1213 b 492 1328 598 1296 555 1328 b 434 1319 469 1328 448 1324 l 434 1248 b 461 1251 441 1249 451 1251 b 509 1214 492 1251 509 1237 b 484 1167 509 1199 500 1183 z m 345 1162 l 208 1025 l 321 1025 l 400 1107 l 481 1025 l 593 1025 l 456 1162 z m 90 0 l 711 0 l 711 131 l 242 131 l 242 435 l 686 435 l 686 562 l 242 562 l 242 848 l 711 848 l 711 979 l 90 979 z "},"Ề":{"ha":777,"x_min":0,"x_max":0,"o":"m 589 1194 l 486 1322 l 368 1322 l 503 1194 z m 345 1162 l 208 1025 l 321 1025 l 400 1107 l 481 1025 l 593 1025 l 456 1162 z m 90 0 l 711 0 l 711 131 l 242 131 l 242 435 l 686 435 l 686 562 l 242 562 l 242 848 l 711 848 l 711 979 l 90 979 z "},"Ễ":{"ha":777,"x_min":0,"x_max":0,"o":"m 484 1191 b 589 1317 545 1191 589 1233 l 589 1322 l 505 1322 l 505 1320 b 471 1268 505 1286 494 1268 b 421 1285 454 1268 441 1273 l 405 1295 b 317 1322 378 1312 349 1322 b 213 1196 256 1322 213 1280 l 213 1191 l 296 1191 l 296 1193 b 330 1244 296 1227 308 1244 b 378 1227 347 1244 359 1239 l 395 1217 b 484 1191 422 1199 450 1191 z m 345 1162 l 208 1025 l 321 1025 l 400 1107 l 481 1025 l 593 1025 l 456 1162 z m 90 0 l 711 0 l 711 131 l 242 131 l 242 435 l 686 435 l 686 562 l 242 562 l 242 848 l 711 848 l 711 979 l 90 979 z "},"Ệ":{"ha":777,"x_min":0,"x_max":0,"o":"m 189 1058 l 304 1058 l 400 1194 l 498 1058 l 612 1058 l 463 1264 l 338 1264 z m 90 0 l 711 0 l 711 131 l 242 131 l 242 435 l 686 435 l 686 562 l 242 562 l 242 848 l 711 848 l 711 979 l 90 979 z m 401 -279 b 486 -195 449 -279 486 -241 b 401 -110 486 -148 449 -110 b 315 -195 353 -110 315 -148 b 401 -279 315 -241 353 -279 z "},"Ế":{"ha":777,"x_min":0,"x_max":0,"o":"m 477 1194 l 563 1194 l 698 1322 l 581 1322 z m 345 1162 l 208 1025 l 321 1025 l 400 1107 l 481 1025 l 593 1025 l 456 1162 z m 90 0 l 711 0 l 711 131 l 242 131 l 242 435 l 686 435 l 686 562 l 242 562 l 242 848 l 711 848 l 711 979 l 90 979 z "},"Ë":{"ha":777,"x_min":0,"x_max":0,"o":"m 272 1083 b 349 1160 315 1083 349 1117 b 272 1236 349 1202 315 1236 b 195 1160 229 1236 195 1202 b 272 1083 195 1117 229 1083 z m 530 1083 b 607 1160 574 1083 607 1117 b 530 1236 607 1202 574 1236 b 452 1160 487 1236 452 1202 b 530 1083 452 1117 487 1083 z m 90 0 l 711 0 l 711 131 l 242 131 l 242 435 l 686 435 l 686 562 l 242 562 l 242 848 l 711 848 l 711 979 l 90 979 z "},"Ẹ":{"ha":777,"x_min":0,"x_max":0,"o":"m 90 0 l 711 0 l 711 131 l 242 131 l 242 435 l 686 435 l 686 562 l 242 562 l 242 848 l 711 848 l 711 979 l 90 979 z m 401 -279 b 486 -195 449 -279 486 -241 b 401 -110 486 -148 449 -110 b 315 -195 353 -110 315 -148 b 401 -279 315 -241 353 -279 z "},"Ȇ":{"ha":777,"x_min":0,"x_max":0,"o":"m 401 1259 b 200 1062 279 1259 200 1179 l 200 1056 l 298 1056 l 298 1059 b 401 1166 298 1118 337 1166 b 505 1059 465 1166 505 1118 l 505 1056 l 602 1056 l 602 1062 b 401 1259 602 1179 523 1259 z m 90 0 l 711 0 l 711 131 l 242 131 l 242 435 l 686 435 l 686 562 l 242 562 l 242 848 l 711 848 l 711 979 l 90 979 z "},"Ẻ":{"ha":777,"x_min":0,"x_max":0,"o":"m 347 1058 l 439 1058 b 508 1165 485 1088 508 1123 b 360 1278 508 1234 440 1278 b 281 1265 328 1278 299 1272 l 281 1186 b 326 1190 292 1187 307 1190 b 409 1141 374 1190 409 1172 b 347 1060 409 1116 385 1088 z m 90 0 l 711 0 l 711 131 l 242 131 l 242 435 l 686 435 l 686 562 l 242 562 l 242 848 l 711 848 l 711 979 l 90 979 z "},"Ě":{"ha":777,"x_min":0,"x_max":0,"o":"m 612 1264 l 498 1264 l 401 1127 l 304 1264 l 189 1264 l 338 1058 l 463 1058 z m 90 0 l 711 0 l 711 131 l 242 131 l 242 435 l 686 435 l 686 562 l 242 562 l 242 848 l 711 848 l 711 979 l 90 979 z "},"Ē":{"ha":777,"x_min":0,"x_max":0,"o":"m 210 1110 l 591 1110 l 591 1208 l 210 1208 z m 90 0 l 711 0 l 711 131 l 242 131 l 242 435 l 686 435 l 686 562 l 242 562 l 242 848 l 711 848 l 711 979 l 90 979 z "},"Ḕ":{"ha":777,"x_min":0,"x_max":0,"o":"m 457 1185 l 353 1314 l 235 1314 l 371 1185 z m 218 1043 l 584 1043 l 584 1130 l 218 1130 z m 90 0 l 711 0 l 711 131 l 242 131 l 242 435 l 686 435 l 686 562 l 242 562 l 242 848 l 711 848 l 711 979 l 90 979 z "},"Ḗ":{"ha":777,"x_min":0,"x_max":0,"o":"m 345 1185 l 431 1185 l 566 1314 l 448 1314 z m 218 1043 l 584 1043 l 584 1130 l 218 1130 z m 90 0 l 711 0 l 711 131 l 242 131 l 242 435 l 686 435 l 686 562 l 242 562 l 242 848 l 711 848 l 711 979 l 90 979 z "},"Ẽ":{"ha":777,"x_min":0,"x_max":0,"o":"m 496 1057 b 608 1234 566 1057 608 1116 l 608 1242 l 517 1242 l 517 1238 b 480 1160 517 1185 506 1160 b 420 1190 461 1160 441 1173 l 395 1209 b 305 1243 371 1229 342 1243 b 193 1066 237 1243 193 1185 l 193 1058 l 283 1058 l 283 1063 b 321 1141 283 1116 295 1141 b 378 1110 340 1141 357 1127 l 404 1090 b 496 1057 428 1072 458 1057 z m 90 0 l 711 0 l 711 131 l 242 131 l 242 435 l 686 435 l 686 562 l 242 562 l 242 848 l 711 848 l 711 979 l 90 979 z "},"Ḙ":{"ha":777,"x_min":0,"x_max":0,"o":"m 90 0 l 711 0 l 711 131 l 242 131 l 242 435 l 686 435 l 686 562 l 242 562 l 242 848 l 711 848 l 711 979 l 90 979 z m 181 -293 l 298 -293 l 400 -150 l 504 -293 l 621 -293 l 464 -81 l 338 -81 z "},"Ĕ":{"ha":777,"x_min":0,"x_max":0,"o":"m 401 1056 b 602 1253 523 1056 602 1136 l 602 1259 l 505 1259 l 505 1256 b 401 1148 505 1197 465 1148 b 298 1256 337 1148 298 1197 l 298 1259 l 200 1259 l 200 1253 b 401 1056 200 1136 279 1056 z m 90 0 l 711 0 l 711 131 l 242 131 l 242 435 l 686 435 l 686 562 l 242 562 l 242 848 l 711 848 l 711 979 l 90 979 z "},"Ḛ":{"ha":777,"x_min":0,"x_max":0,"o":"m 90 0 l 711 0 l 711 131 l 242 131 l 242 435 l 686 435 l 686 562 l 242 562 l 242 848 l 711 848 l 711 979 l 90 979 z m 500 -294 b 616 -111 572 -294 616 -233 l 616 -102 l 523 -102 l 523 -108 b 485 -191 523 -165 511 -191 b 422 -158 465 -191 444 -176 l 395 -138 b 301 -102 370 -117 340 -102 b 186 -284 231 -102 186 -162 l 186 -293 l 278 -293 l 278 -288 b 317 -205 278 -231 290 -205 b 378 -237 337 -205 355 -220 l 404 -258 b 500 -294 429 -279 461 -294 z "},"Ė":{"ha":777,"x_min":0,"x_max":0,"o":"m 400 1083 b 481 1164 446 1083 481 1120 b 400 1243 481 1207 446 1243 b 319 1164 356 1243 319 1207 b 400 1083 319 1120 356 1083 z m 90 0 l 711 0 l 711 131 l 242 131 l 242 435 l 686 435 l 686 562 l 242 562 l 242 848 l 711 848 l 711 979 l 90 979 z "},"Ȩ":{"ha":777,"x_min":0,"x_max":0,"o":"m 90 0 l 370 0 l 318 -79 l 318 -138 l 347 -138 b 425 -185 398 -138 425 -154 l 425 -186 b 358 -226 425 -215 394 -226 b 286 -215 330 -226 302 -220 l 286 -297 b 393 -314 307 -307 349 -314 b 545 -186 476 -314 545 -267 l 545 -185 b 423 -61 545 -107 496 -66 l 463 0 l 711 0 l 711 131 l 242 131 l 242 435 l 686 435 l 686 562 l 242 562 l 242 848 l 711 848 l 711 979 l 90 979 z "},"Ḝ":{"ha":777,"x_min":0,"x_max":0,"o":"m 401 1056 b 602 1253 523 1056 602 1136 l 602 1259 l 505 1259 l 505 1256 b 401 1148 505 1197 465 1148 b 298 1256 337 1148 298 1197 l 298 1259 l 200 1259 l 200 1253 b 401 1056 200 1136 279 1056 z m 90 0 l 370 0 l 318 -79 l 318 -138 l 347 -138 b 425 -185 398 -138 425 -154 l 425 -186 b 358 -226 425 -215 394 -226 b 286 -215 330 -226 302 -220 l 286 -297 b 393 -314 307 -307 349 -314 b 545 -186 476 -314 545 -267 l 545 -185 b 423 -61 545 -107 496 -66 l 463 0 l 711 0 l 711 131 l 242 131 l 242 435 l 686 435 l 686 562 l 242 562 l 242 848 l 711 848 l 711 979 l 90 979 z "},"Ę":{"ha":777,"x_min":0,"x_max":0,"o":"m 90 0 l 581 0 b 482 -177 519 -46 482 -111 l 482 -178 b 642 -323 482 -273 554 -323 b 721 -309 668 -323 702 -319 l 721 -224 b 682 -231 711 -229 698 -231 b 614 -156 644 -231 614 -207 l 614 -155 b 711 0 614 -94 649 -45 l 711 131 l 242 131 l 242 435 l 686 435 l 686 562 l 242 562 l 242 848 l 711 848 l 711 979 l 90 979 z "},"Ǝ":{"ha":777,"x_min":0,"x_max":0,"o":"m 688 0 l 688 979 l 66 979 l 66 848 l 536 848 l 536 562 l 91 562 l 91 435 l 536 435 l 536 131 l 66 131 l 66 0 z "},"F":{"ha":743,"x_min":0,"x_max":0,"o":"m 90 0 l 242 0 l 242 410 l 663 410 l 663 538 l 242 538 l 242 848 l 701 848 l 701 979 l 90 979 z "},"Ḟ":{"ha":743,"x_min":0,"x_max":0,"o":"m 395 1083 b 476 1164 441 1083 476 1120 b 395 1243 476 1207 441 1243 b 314 1164 351 1243 314 1207 b 395 1083 314 1120 351 1083 z m 90 0 l 242 0 l 242 410 l 663 410 l 663 538 l 242 538 l 242 848 l 701 848 l 701 979 l 90 979 z "},"Ƒ":{"ha":743,"x_min":0,"x_max":0,"o":"m 242 410 l 663 410 l 663 538 l 242 538 l 242 848 l 701 848 l 701 979 l 90 979 l 90 -29 b -1 -123 90 -92 61 -123 b -50 -120 -19 -123 -37 -121 l -50 -233 b 26 -238 -33 -236 -3 -238 b 242 -30 171 -238 242 -170 z "},"G":{"ha":991,"x_min":0,"x_max":0,"o":"m 511 -16 b 933 407 777 -16 933 142 l 933 507 l 526 507 l 526 383 l 783 383 l 783 367 b 513 118 781 218 671 118 b 210 494 326 118 210 260 l 210 495 b 510 861 210 724 323 861 b 768 682 637 861 726 795 l 770 674 l 926 674 l 923 686 b 509 995 882 863 739 995 b 55 494 231 995 55 803 l 55 494 b 511 -16 55 179 231 -16 z "},"Ǵ":{"ha":991,"x_min":0,"x_max":0,"o":"m 549 1058 l 699 1264 l 558 1264 l 445 1058 z m 511 -16 b 933 407 777 -16 933 142 l 933 507 l 526 507 l 526 383 l 783 383 l 783 367 b 513 118 781 218 671 118 b 210 494 326 118 210 260 l 210 495 b 510 861 210 724 323 861 b 768 682 637 861 726 795 l 770 674 l 926 674 l 923 686 b 509 995 882 863 739 995 b 55 494 231 995 55 803 l 55 494 b 511 -16 55 179 231 -16 z "},"Ǧ":{"ha":991,"x_min":0,"x_max":0,"o":"m 722 1264 l 607 1264 l 510 1127 l 412 1264 l 298 1264 l 448 1058 l 572 1058 z m 511 -16 b 933 407 777 -16 933 142 l 933 507 l 526 507 l 526 383 l 783 383 l 783 367 b 513 118 781 218 671 118 b 210 494 326 118 210 260 l 210 495 b 510 861 210 724 323 861 b 768 682 637 861 726 795 l 770 674 l 926 674 l 923 686 b 509 995 882 863 739 995 b 55 494 231 995 55 803 l 55 494 b 511 -16 55 179 231 -16 z "},"Ĝ":{"ha":991,"x_min":0,"x_max":0,"o":"m 298 1058 l 412 1058 l 509 1194 l 607 1058 l 722 1058 l 572 1264 l 447 1264 z m 511 -16 b 933 407 777 -16 933 142 l 933 507 l 526 507 l 526 383 l 783 383 l 783 367 b 513 118 781 218 671 118 b 210 494 326 118 210 260 l 210 495 b 510 861 210 724 323 861 b 768 682 637 861 726 795 l 770 674 l 926 674 l 923 686 b 509 995 882 863 739 995 b 55 494 231 995 55 803 l 55 494 b 511 -16 55 179 231 -16 z "},"Ğ":{"ha":991,"x_min":0,"x_max":0,"o":"m 510 1056 b 711 1253 632 1056 711 1136 l 711 1259 l 613 1259 l 613 1256 b 510 1148 613 1197 574 1148 b 406 1256 446 1148 406 1197 l 406 1259 l 309 1259 l 309 1253 b 510 1056 309 1136 387 1056 z m 511 -16 b 933 407 777 -16 933 142 l 933 507 l 526 507 l 526 383 l 783 383 l 783 367 b 513 118 781 218 671 118 b 210 494 326 118 210 260 l 210 495 b 510 861 210 724 323 861 b 768 682 637 861 726 795 l 770 674 l 926 674 l 923 686 b 509 995 882 863 739 995 b 55 494 231 995 55 803 l 55 494 b 511 -16 55 179 231 -16 z "},"Ḡ":{"ha":991,"x_min":0,"x_max":0,"o":"m 319 1110 l 700 1110 l 700 1208 l 319 1208 z m 511 -16 b 933 407 777 -16 933 142 l 933 507 l 526 507 l 526 383 l 783 383 l 783 367 b 513 118 781 218 671 118 b 210 494 326 118 210 260 l 210 495 b 510 861 210 724 323 861 b 768 682 637 861 726 795 l 770 674 l 926 674 l 923 686 b 509 995 882 863 739 995 b 55 494 231 995 55 803 l 55 494 b 511 -16 55 179 231 -16 z "},"Ġ":{"ha":991,"x_min":0,"x_max":0,"o":"m 509 1083 b 591 1164 555 1083 591 1120 b 509 1243 591 1207 555 1243 b 428 1164 465 1243 428 1207 b 509 1083 428 1120 465 1083 z m 511 -16 b 933 407 777 -16 933 142 l 933 507 l 526 507 l 526 383 l 783 383 l 783 367 b 513 118 781 218 671 118 b 210 494 326 118 210 260 l 210 495 b 510 861 210 724 323 861 b 768 682 637 861 726 795 l 770 674 l 926 674 l 923 686 b 509 995 882 863 739 995 b 55 494 231 995 55 803 l 55 494 b 511 -16 55 179 231 -16 z "},"Ģ":{"ha":991,"x_min":0,"x_max":0,"o":"m 511 -16 b 933 407 777 -16 933 142 l 933 507 l 526 507 l 526 383 l 783 383 l 783 367 b 513 118 781 218 671 118 b 210 494 326 118 210 260 l 210 495 b 510 861 210 724 323 861 b 768 682 637 861 726 795 l 770 674 l 926 674 l 923 686 b 509 995 882 863 739 995 b 55 494 231 995 55 803 l 55 494 b 511 -16 55 179 231 -16 z m 383 -314 l 477 -314 l 576 -81 l 441 -81 z "},"H":{"ha":986,"x_min":0,"x_max":0,"o":"m 90 0 l 242 0 l 242 433 l 745 433 l 745 0 l 897 0 l 897 979 l 745 979 l 745 565 l 242 565 l 242 979 l 90 979 z "},"Ḧ":{"ha":986,"x_min":0,"x_max":0,"o":"m 364 1083 b 441 1160 408 1083 441 1117 b 364 1236 441 1202 408 1236 b 287 1160 321 1236 287 1202 b 364 1083 287 1117 321 1083 z m 622 1083 b 700 1160 666 1083 700 1117 b 622 1236 700 1202 666 1236 b 545 1160 579 1236 545 1202 b 622 1083 545 1117 579 1083 z m 90 0 l 242 0 l 242 433 l 745 433 l 745 0 l 897 0 l 897 979 l 745 979 l 745 565 l 242 565 l 242 979 l 90 979 z "},"Ȟ":{"ha":986,"x_min":0,"x_max":0,"o":"m 705 1264 l 591 1264 l 494 1127 l 396 1264 l 281 1264 l 431 1058 l 556 1058 z m 90 0 l 242 0 l 242 433 l 745 433 l 745 0 l 897 0 l 897 979 l 745 979 l 745 565 l 242 565 l 242 979 l 90 979 z "},"Ĥ":{"ha":986,"x_min":0,"x_max":0,"o":"m 281 1058 l 396 1058 l 492 1194 l 591 1058 l 705 1058 l 555 1264 l 431 1264 z m 90 0 l 242 0 l 242 433 l 745 433 l 745 0 l 897 0 l 897 979 l 745 979 l 745 565 l 242 565 l 242 979 l 90 979 z "},"Ḥ":{"ha":986,"x_min":0,"x_max":0,"o":"m 90 0 l 242 0 l 242 433 l 745 433 l 745 0 l 897 0 l 897 979 l 745 979 l 745 565 l 242 565 l 242 979 l 90 979 z m 493 -279 b 578 -195 541 -279 578 -241 b 493 -110 578 -148 541 -110 b 408 -195 446 -110 408 -148 b 493 -279 408 -241 446 -279 z "},"Ḣ":{"ha":986,"x_min":0,"x_max":0,"o":"m 492 1083 b 574 1164 538 1083 574 1120 b 492 1243 574 1207 538 1243 b 412 1164 448 1243 412 1207 b 492 1083 412 1120 448 1083 z m 90 0 l 242 0 l 242 433 l 745 433 l 745 0 l 897 0 l 897 979 l 745 979 l 745 565 l 242 565 l 242 979 l 90 979 z "},"Ḫ":{"ha":986,"x_min":0,"x_max":0,"o":"m 90 0 l 242 0 l 242 433 l 745 433 l 745 0 l 897 0 l 897 979 l 745 979 l 745 565 l 242 565 l 242 979 l 90 979 z m 493 -292 b 701 -87 620 -292 701 -208 l 701 -81 l 602 -81 l 602 -83 b 493 -198 602 -146 561 -198 b 385 -83 425 -198 385 -146 l 385 -81 l 285 -81 l 285 -87 b 493 -292 285 -208 366 -292 z "},"Ḩ":{"ha":986,"x_min":0,"x_max":0,"o":"m 90 0 l 149 0 l 97 -79 l 97 -138 l 126 -138 b 203 -185 177 -138 203 -154 l 203 -186 b 137 -226 203 -215 173 -226 b 65 -215 109 -226 81 -220 l 65 -297 b 172 -314 86 -307 127 -314 b 324 -186 255 -314 324 -267 l 324 -185 b 202 -61 324 -107 275 -66 l 242 0 l 242 433 l 745 433 l 745 0 l 897 0 l 897 979 l 745 979 l 745 565 l 242 565 l 242 979 l 90 979 z "},"Ħ":{"ha":1046,"x_min":0,"x_max":0,"o":"m 120 0 l 272 0 l 272 433 l 774 433 l 774 0 l 926 0 l 926 720 l 1017 720 l 1017 833 l 926 833 l 926 979 l 774 979 l 774 833 l 272 833 l 272 979 l 120 979 l 120 833 l 30 833 l 30 720 l 120 720 z m 272 565 l 272 720 l 774 720 l 774 565 z "},"I":{"ha":332,"x_min":0,"x_max":0,"o":"m 90 0 l 242 0 l 242 979 l 90 979 z "},"İ":{"ha":332,"x_min":0,"x_max":0,"o":"m 165 1083 b 247 1164 211 1083 247 1120 b 165 1243 247 1207 211 1243 b 85 1164 121 1243 85 1207 b 165 1083 85 1120 121 1083 z m 90 0 l 242 0 l 242 979 l 90 979 z "},"Ì":{"ha":332,"x_min":0,"x_max":0,"o":"m 132 1058 l 236 1058 l 123 1264 l -18 1264 z m 90 0 l 242 0 l 242 979 l 90 979 z "},"Ȉ":{"ha":332,"x_min":0,"x_max":0,"o":"m 20 1058 l 125 1058 l -3 1264 l -143 1264 z m 242 1058 l 347 1058 l 233 1264 l 93 1264 z m 90 0 l 242 0 l 242 979 l 90 979 z "},"Í":{"ha":332,"x_min":0,"x_max":0,"o":"m 206 1058 l 355 1264 l 214 1264 l 101 1058 z m 90 0 l 242 0 l 242 979 l 90 979 z "},"Î":{"ha":332,"x_min":0,"x_max":0,"o":"m -46 1058 l 68 1058 l 165 1194 l 263 1058 l 378 1058 l 228 1264 l 103 1264 z m 90 0 l 242 0 l 242 979 l 90 979 z "},"Ǐ":{"ha":332,"x_min":0,"x_max":0,"o":"m 378 1264 l 263 1264 l 167 1127 l 68 1264 l -46 1264 l 104 1058 l 229 1058 z m 90 0 l 242 0 l 242 979 l 90 979 z "},"Ï":{"ha":332,"x_min":0,"x_max":0,"o":"m 37 1083 b 115 1160 81 1083 115 1117 b 37 1236 115 1202 81 1236 b -41 1160 -6 1236 -41 1202 b 37 1083 -41 1117 -6 1083 z m 295 1083 b 372 1160 339 1083 372 1117 b 295 1236 372 1202 339 1236 b 218 1160 252 1236 218 1202 b 295 1083 218 1117 252 1083 z m 90 0 l 242 0 l 242 979 l 90 979 z "},"Ḯ":{"ha":332,"x_min":0,"x_max":0,"o":"m 110 1186 l 196 1186 l 331 1315 l 214 1315 z m 280 1026 l 283 1026 b 348 1088 320 1026 348 1053 l 348 1090 b 283 1151 348 1124 320 1151 l 280 1151 b 215 1090 243 1151 215 1124 l 215 1088 b 280 1026 215 1053 243 1026 z m 50 1026 l 52 1026 b 117 1088 90 1026 117 1053 l 117 1090 b 52 1151 117 1124 90 1151 l 50 1151 b -16 1090 12 1151 -16 1124 l -16 1088 b 50 1026 -16 1053 12 1026 z m 90 0 l 242 0 l 242 979 l 90 979 z "},"Ĭ":{"ha":332,"x_min":0,"x_max":0,"o":"m 166 1056 b 368 1253 288 1056 368 1136 l 368 1259 l 270 1259 l 270 1256 b 166 1148 270 1197 231 1148 b 62 1256 102 1148 62 1197 l 62 1259 l -35 1259 l -35 1253 b 166 1056 -35 1136 44 1056 z m 90 0 l 242 0 l 242 979 l 90 979 z "},"Ị":{"ha":332,"x_min":0,"x_max":0,"o":"m 90 0 l 242 0 l 242 979 l 90 979 z m 166 -279 b 252 -195 214 -279 252 -241 b 166 -110 252 -148 214 -110 b 81 -195 119 -110 81 -148 b 166 -279 81 -241 119 -279 z "},"Ȋ":{"ha":332,"x_min":0,"x_max":0,"o":"m 166 1259 b -35 1062 44 1259 -35 1179 l -35 1056 l 62 1056 l 62 1059 b 166 1166 62 1118 102 1166 b 270 1059 231 1166 270 1118 l 270 1056 l 368 1056 l 368 1062 b 166 1259 368 1179 288 1259 z m 90 0 l 242 0 l 242 979 l 90 979 z "},"Ī":{"ha":332,"x_min":0,"x_max":0,"o":"m -25 1110 l 357 1110 l 357 1208 l -25 1208 z m 90 0 l 242 0 l 242 979 l 90 979 z "},"Ḭ":{"ha":332,"x_min":0,"x_max":0,"o":"m 90 0 l 242 0 l 242 979 l 90 979 z m 265 -294 b 380 -111 338 -294 380 -233 l 380 -102 l 288 -102 l 288 -108 b 250 -191 288 -165 276 -191 b 187 -158 229 -191 210 -176 l 161 -138 b 66 -102 135 -117 105 -102 b -49 -284 -4 -102 -49 -162 l -49 -293 l 43 -293 l 43 -288 b 82 -205 43 -231 56 -205 b 143 -237 102 -205 121 -220 l 169 -258 b 265 -294 195 -279 226 -294 z "},"Ỉ":{"ha":332,"x_min":0,"x_max":0,"o":"m 113 1058 l 205 1058 b 273 1165 250 1088 273 1123 b 125 1278 273 1234 205 1278 b 47 1265 94 1278 64 1272 l 47 1186 b 92 1190 57 1187 71 1190 b 174 1141 139 1190 174 1172 b 113 1060 174 1116 151 1088 z m 90 0 l 242 0 l 242 979 l 90 979 z "},"Ĩ":{"ha":332,"x_min":0,"x_max":0,"o":"m 260 1057 b 372 1234 331 1057 372 1116 l 372 1242 l 282 1242 l 282 1238 b 245 1160 282 1185 271 1160 b 186 1190 226 1160 207 1173 l 160 1209 b 71 1243 136 1229 107 1243 b -41 1066 2 1243 -41 1185 l -41 1058 l 49 1058 l 49 1063 b 86 1141 49 1116 60 1141 b 144 1110 104 1141 123 1127 l 169 1090 b 260 1057 193 1072 223 1057 z m 90 0 l 242 0 l 242 979 l 90 979 z "},"Į":{"ha":332,"x_min":0,"x_max":0,"o":"m 90 0 l 111 0 b 13 -177 50 -46 13 -111 l 13 -178 b 172 -323 13 -273 85 -323 b 252 -309 198 -323 233 -319 l 252 -224 b 213 -231 241 -229 228 -231 b 144 -156 175 -231 144 -207 l 144 -155 b 242 0 144 -94 179 -45 l 242 979 l 90 979 z "},"J":{"ha":719,"x_min":0,"x_max":0,"o":"m 321 -16 b 627 290 513 -16 627 97 l 627 979 l 475 979 l 475 291 b 320 119 475 179 420 119 b 176 252 229 119 182 178 l 176 258 l 26 258 l 26 250 b 321 -16 35 94 140 -16 z "},"Ĵ":{"ha":719,"x_min":0,"x_max":0,"o":"m 338 1058 l 453 1058 l 550 1194 l 648 1058 l 762 1058 l 612 1264 l 488 1264 z m 321 -16 b 627 290 513 -16 627 97 l 627 979 l 475 979 l 475 291 b 320 119 475 179 420 119 b 176 252 229 119 182 178 l 176 258 l 26 258 l 26 250 b 321 -16 35 94 140 -16 z "},"Ĳ":{"ha":1051,"x_min":0,"x_max":0,"o":"m 90 0 l 242 0 l 242 979 l 90 979 z m 653 -16 b 958 290 846 -16 958 97 l 958 979 l 806 979 l 806 291 b 652 119 806 179 753 119 b 508 252 561 119 514 178 l 507 258 l 358 258 l 358 250 b 653 -16 367 94 472 -16 z "},"K":{"ha":861,"x_min":0,"x_max":0,"o":"m 90 0 l 242 0 l 242 327 l 342 442 l 665 0 l 853 0 l 450 546 l 821 979 l 641 979 l 246 510 l 242 510 l 242 979 l 90 979 z "},"K":{"ha":861,"x_min":0,"x_max":0,"o":"m 90 0 l 242 0 l 242 327 l 342 442 l 665 0 l 853 0 l 450 546 l 821 979 l 641 979 l 246 510 l 242 510 l 242 979 l 90 979 z "},"Ḱ":{"ha":861,"x_min":0,"x_max":0,"o":"m 468 1058 l 616 1264 l 477 1264 l 363 1058 z m 90 0 l 242 0 l 242 327 l 342 442 l 665 0 l 853 0 l 450 546 l 821 979 l 641 979 l 246 510 l 242 510 l 242 979 l 90 979 z "},"Ǩ":{"ha":861,"x_min":0,"x_max":0,"o":"m 640 1264 l 526 1264 l 429 1127 l 331 1264 l 216 1264 l 366 1058 l 491 1058 z m 90 0 l 242 0 l 242 327 l 342 442 l 665 0 l 853 0 l 450 546 l 821 979 l 641 979 l 246 510 l 242 510 l 242 979 l 90 979 z "},"Ḳ":{"ha":861,"x_min":0,"x_max":0,"o":"m 90 0 l 242 0 l 242 327 l 342 442 l 665 0 l 853 0 l 450 546 l 821 979 l 641 979 l 246 510 l 242 510 l 242 979 l 90 979 z m 428 -279 b 513 -195 476 -279 513 -241 b 428 -110 513 -148 476 -110 b 342 -195 380 -110 342 -148 b 428 -279 342 -241 380 -279 z "},"Ḵ":{"ha":861,"x_min":0,"x_max":0,"o":"m 90 0 l 242 0 l 242 327 l 342 442 l 665 0 l 853 0 l 450 546 l 821 979 l 641 979 l 246 510 l 242 510 l 242 979 l 90 979 z m 230 -237 l 626 -237 l 626 -138 l 230 -138 z "},"Ķ":{"ha":861,"x_min":0,"x_max":0,"o":"m 90 0 l 242 0 l 242 327 l 342 442 l 665 0 l 853 0 l 450 546 l 821 979 l 641 979 l 246 510 l 242 510 l 242 979 l 90 979 z m 300 -314 l 394 -314 l 493 -81 l 358 -81 z "},"Ƙ":{"ha":877,"x_min":0,"x_max":0,"o":"m 90 0 l 242 0 l 242 327 l 343 444 l 682 0 l 870 0 l 451 546 l 689 806 b 784 852 720 840 745 852 b 854 840 806 852 830 849 l 854 975 b 767 991 828 987 794 991 b 588 897 692 991 644 961 l 246 510 l 242 510 l 242 979 l 90 979 z "},"L":{"ha":738,"x_min":0,"x_max":0,"o":"m 90 0 l 698 0 l 698 131 l 242 131 l 242 979 l 90 979 z "},"Ĺ":{"ha":738,"x_min":0,"x_max":0,"o":"m 206 1058 l 355 1264 l 214 1264 l 101 1058 z m 90 0 l 698 0 l 698 131 l 242 131 l 242 979 l 90 979 z "},"Ḽ":{"ha":738,"x_min":0,"x_max":0,"o":"m 90 0 l 698 0 l 698 131 l 242 131 l 242 979 l 90 979 z m 174 -293 l 291 -293 l 393 -150 l 497 -293 l 614 -293 l 457 -81 l 331 -81 z "},"Ŀ":{"ha":738,"x_min":0,"x_max":0,"o":"m 90 0 l 698 0 l 698 131 l 242 131 l 242 979 l 90 979 z m 624 513 b 536 602 624 562 585 602 l 534 602 b 446 513 485 602 446 562 l 446 511 b 534 423 446 463 485 423 l 536 423 b 624 511 585 423 624 463 z "},"Ḷ":{"ha":738,"x_min":0,"x_max":0,"o":"m 90 0 l 698 0 l 698 131 l 242 131 l 242 979 l 90 979 z m 394 -279 b 479 -195 442 -279 479 -241 b 394 -110 479 -148 442 -110 b 309 -195 347 -110 309 -148 b 394 -279 309 -241 347 -279 z "},"Ḹ":{"ha":738,"x_min":0,"x_max":0,"o":"m -25 1110 l 357 1110 l 357 1208 l -25 1208 z m 90 0 l 698 0 l 698 131 l 242 131 l 242 979 l 90 979 z m 394 -279 b 479 -195 442 -279 479 -241 b 394 -110 479 -148 442 -110 b 309 -195 347 -110 309 -148 b 394 -279 309 -241 347 -279 z "},"Ḻ":{"ha":738,"x_min":0,"x_max":0,"o":"m 90 0 l 698 0 l 698 131 l 242 131 l 242 979 l 90 979 z m 196 -237 l 592 -237 l 592 -138 l 196 -138 z "},"Ļ":{"ha":738,"x_min":0,"x_max":0,"o":"m 90 0 l 698 0 l 698 131 l 242 131 l 242 979 l 90 979 z m 267 -314 l 359 -314 l 459 -81 l 324 -81 z "},"Ľ":{"ha":738,"x_min":0,"x_max":0,"o":"m 406 699 l 498 699 l 585 979 l 453 979 z m 90 0 l 698 0 l 698 131 l 242 131 l 242 979 l 90 979 z "},"Ł":{"ha":753,"x_min":0,"x_max":0,"o":"m 106 0 l 713 0 l 713 131 l 258 131 l 258 446 l 524 578 l 524 700 l 258 567 l 258 979 l 106 979 l 106 491 l 30 453 l 30 332 l 106 370 z "},"M":{"ha":1169,"x_min":0,"x_max":0,"o":"m 90 0 l 229 0 l 229 722 l 233 722 l 528 0 l 641 0 l 936 722 l 941 722 l 941 0 l 1079 0 l 1079 979 l 904 979 l 587 197 l 583 197 l 266 979 l 90 979 z "},"Ḿ":{"ha":1169,"x_min":0,"x_max":0,"o":"m 625 1058 l 774 1264 l 634 1264 l 520 1058 z m 90 0 l 229 0 l 229 722 l 233 722 l 528 0 l 641 0 l 936 722 l 941 722 l 941 0 l 1079 0 l 1079 979 l 904 979 l 587 197 l 583 197 l 266 979 l 90 979 z "},"Ṁ":{"ha":1169,"x_min":0,"x_max":0,"o":"m 585 1083 b 666 1164 630 1083 666 1120 b 585 1243 666 1207 630 1243 b 504 1164 541 1243 504 1207 b 585 1083 504 1120 541 1083 z m 90 0 l 229 0 l 229 722 l 233 722 l 528 0 l 641 0 l 936 722 l 941 722 l 941 0 l 1079 0 l 1079 979 l 904 979 l 587 197 l 583 197 l 266 979 l 90 979 z "},"Ṃ":{"ha":1169,"x_min":0,"x_max":0,"o":"m 90 0 l 229 0 l 229 722 l 233 722 l 528 0 l 641 0 l 936 722 l 941 722 l 941 0 l 1079 0 l 1079 979 l 904 979 l 587 197 l 583 197 l 266 979 l 90 979 z m 585 -279 b 671 -195 633 -279 671 -241 b 585 -110 671 -148 633 -110 b 500 -195 538 -110 500 -148 b 585 -279 500 -241 538 -279 z "},"N":{"ha":979,"x_min":0,"x_max":0,"o":"m 90 0 l 241 0 l 241 725 l 245 725 l 749 0 l 888 0 l 888 979 l 738 979 l 738 255 l 734 255 l 231 979 l 90 979 z "},"Ǹ":{"ha":979,"x_min":0,"x_max":0,"o":"m 454 1058 l 559 1058 l 446 1264 l 306 1264 z m 90 0 l 241 0 l 241 725 l 245 725 l 749 0 l 888 0 l 888 979 l 738 979 l 738 255 l 734 255 l 231 979 l 90 979 z "},"Ń":{"ha":979,"x_min":0,"x_max":0,"o":"m 529 1058 l 678 1264 l 538 1264 l 425 1058 z m 90 0 l 241 0 l 241 725 l 245 725 l 749 0 l 888 0 l 888 979 l 738 979 l 738 255 l 734 255 l 231 979 l 90 979 z "},"Ñ":{"ha":979,"x_min":0,"x_max":0,"o":"m 584 1057 b 696 1234 654 1057 696 1116 l 696 1242 l 606 1242 l 606 1238 b 568 1160 606 1185 594 1160 b 509 1190 549 1160 530 1173 l 484 1209 b 394 1243 459 1229 431 1243 b 282 1066 326 1243 282 1185 l 282 1058 l 372 1058 l 372 1063 b 410 1141 372 1116 384 1141 b 467 1110 428 1141 446 1127 l 492 1090 b 584 1057 517 1072 547 1057 z m 90 0 l 241 0 l 241 725 l 245 725 l 749 0 l 888 0 l 888 979 l 738 979 l 738 255 l 734 255 l 231 979 l 90 979 z "},"Ṇ":{"ha":979,"x_min":0,"x_max":0,"o":"m 90 0 l 241 0 l 241 725 l 245 725 l 749 0 l 888 0 l 888 979 l 738 979 l 738 255 l 734 255 l 231 979 l 90 979 z m 490 -279 b 575 -195 537 -279 575 -241 b 490 -110 575 -148 537 -110 b 404 -195 442 -110 404 -148 b 490 -279 404 -241 442 -279 z "},"Ṅ":{"ha":979,"x_min":0,"x_max":0,"o":"m 489 1083 b 570 1164 534 1083 570 1120 b 489 1243 570 1207 534 1243 b 408 1164 444 1243 408 1207 b 489 1083 408 1120 444 1083 z m 90 0 l 241 0 l 241 725 l 245 725 l 749 0 l 888 0 l 888 979 l 738 979 l 738 255 l 734 255 l 231 979 l 90 979 z "},"Ň":{"ha":979,"x_min":0,"x_max":0,"o":"m 701 1264 l 587 1264 l 490 1127 l 392 1264 l 277 1264 l 427 1058 l 552 1058 z m 90 0 l 241 0 l 241 725 l 245 725 l 749 0 l 888 0 l 888 979 l 738 979 l 738 255 l 734 255 l 231 979 l 90 979 z "},"Ṋ":{"ha":979,"x_min":0,"x_max":0,"o":"m 90 0 l 241 0 l 241 725 l 245 725 l 749 0 l 888 0 l 888 979 l 738 979 l 738 255 l 734 255 l 231 979 l 90 979 z m 269 -293 l 386 -293 l 488 -150 l 593 -293 l 709 -293 l 552 -81 l 426 -81 z "},"Ṉ":{"ha":979,"x_min":0,"x_max":0,"o":"m 90 0 l 241 0 l 241 725 l 245 725 l 749 0 l 888 0 l 888 979 l 738 979 l 738 255 l 734 255 l 231 979 l 90 979 z m 292 -237 l 687 -237 l 687 -138 l 292 -138 z "},"Ņ":{"ha":979,"x_min":0,"x_max":0,"o":"m 90 0 l 241 0 l 241 725 l 245 725 l 749 0 l 888 0 l 888 979 l 738 979 l 738 255 l 734 255 l 231 979 l 90 979 z m 362 -314 l 455 -314 l 554 -81 l 420 -81 z "},"Ŋ":{"ha":979,"x_min":0,"x_max":0,"o":"m 241 0 l 241 725 l 245 725 l 736 18 l 736 -29 b 646 -123 736 -92 707 -123 b 596 -120 628 -123 610 -121 l 596 -233 b 673 -238 614 -236 644 -238 b 888 -30 817 -238 888 -170 l 888 979 l 738 979 l 738 255 l 734 255 l 231 979 l 90 979 l 90 0 z "},"O":{"ha":1026,"x_min":0,"x_max":0,"o":"m 513 -16 b 972 489 796 -16 972 178 l 972 490 b 513 995 972 800 795 995 b 55 490 232 995 55 801 l 55 489 b 513 -16 55 178 231 -16 z m 513 118 b 210 489 328 118 210 261 l 210 490 b 513 861 210 718 328 861 b 817 490 699 861 817 718 l 817 489 b 513 118 817 263 701 118 z "},"Ö":{"ha":1026,"x_min":0,"x_max":0,"o":"m 385 1083 b 462 1160 428 1083 462 1117 b 385 1236 462 1202 428 1236 b 307 1160 341 1236 307 1202 b 385 1083 307 1117 341 1083 z m 642 1083 b 720 1160 686 1083 720 1117 b 642 1236 720 1202 686 1236 b 565 1160 599 1236 565 1202 b 642 1083 565 1117 599 1083 z m 513 -16 b 972 489 796 -16 972 178 l 972 490 b 513 995 972 800 795 995 b 55 490 232 995 55 801 l 55 489 b 513 -16 55 178 231 -16 z m 513 118 b 210 489 328 118 210 261 l 210 490 b 513 861 210 718 328 861 b 817 490 699 861 817 718 l 817 489 b 513 118 817 263 701 118 z "},"Õ":{"ha":1026,"x_min":0,"x_max":0,"o":"m 608 1057 b 720 1234 678 1057 720 1116 l 720 1242 l 629 1242 l 629 1238 b 592 1160 629 1185 618 1160 b 533 1190 573 1160 554 1173 l 507 1209 b 418 1243 483 1229 454 1243 b 306 1066 349 1243 306 1185 l 306 1058 l 396 1058 l 396 1063 b 433 1141 396 1116 408 1141 b 491 1110 452 1141 470 1127 l 516 1090 b 608 1057 541 1072 570 1057 z m 513 -16 b 972 489 796 -16 972 178 l 972 490 b 513 995 972 800 795 995 b 55 490 232 995 55 801 l 55 489 b 513 -16 55 178 231 -16 z m 513 118 b 210 489 328 118 210 261 l 210 490 b 513 861 210 718 328 861 b 817 490 699 861 817 718 l 817 489 b 513 118 817 263 701 118 z "},"Ó":{"ha":1026,"x_min":0,"x_max":0,"o":"m 553 1058 l 702 1264 l 562 1264 l 448 1058 z m 513 -16 b 972 489 796 -16 972 178 l 972 490 b 513 995 972 800 795 995 b 55 490 232 995 55 801 l 55 489 b 513 -16 55 178 231 -16 z m 513 118 b 210 489 328 118 210 261 l 210 490 b 513 861 210 718 328 861 b 817 490 699 861 817 718 l 817 489 b 513 118 817 263 701 118 z "},"Ô":{"ha":1026,"x_min":0,"x_max":0,"o":"m 301 1058 l 416 1058 l 513 1194 l 610 1058 l 725 1058 l 575 1264 l 450 1264 z m 513 -16 b 972 489 796 -16 972 178 l 972 490 b 513 995 972 800 795 995 b 55 490 232 995 55 801 l 55 489 b 513 -16 55 178 231 -16 z m 513 118 b 210 489 328 118 210 261 l 210 490 b 513 861 210 718 328 861 b 817 490 699 861 817 718 l 817 489 b 513 118 817 263 701 118 z "},"Ò":{"ha":1026,"x_min":0,"x_max":0,"o":"m 479 1058 l 583 1058 l 470 1264 l 330 1264 z m 513 -16 b 972 489 796 -16 972 178 l 972 490 b 513 995 972 800 795 995 b 55 490 232 995 55 801 l 55 489 b 513 -16 55 178 231 -16 z m 513 118 b 210 489 328 118 210 261 l 210 490 b 513 861 210 718 328 861 b 817 490 699 861 817 718 l 817 489 b 513 118 817 263 701 118 z "},"Ổ":{"ha":1026,"x_min":0,"x_max":0,"o":"m 597 1164 l 663 1164 b 711 1245 692 1187 711 1213 b 605 1328 711 1296 667 1328 b 547 1319 582 1328 561 1324 l 547 1248 b 574 1251 553 1249 564 1251 b 621 1214 604 1251 621 1237 b 597 1167 621 1199 613 1183 z m 457 1162 l 321 1025 l 433 1025 l 513 1107 l 593 1025 l 705 1025 l 568 1162 z m 513 -16 b 972 489 796 -16 972 178 l 972 490 b 513 995 972 800 795 995 b 55 490 232 995 55 801 l 55 489 b 513 -16 55 178 231 -16 z m 513 118 b 210 489 328 118 210 261 l 210 490 b 513 861 210 718 328 861 b 817 490 699 861 817 718 l 817 489 b 513 118 817 263 701 118 z "},"Ồ":{"ha":1026,"x_min":0,"x_max":0,"o":"m 702 1194 l 597 1322 l 480 1322 l 616 1194 z m 457 1162 l 321 1025 l 433 1025 l 513 1107 l 593 1025 l 705 1025 l 568 1162 z m 513 -16 b 972 489 796 -16 972 178 l 972 490 b 513 995 972 800 795 995 b 55 490 232 995 55 801 l 55 489 b 513 -16 55 178 231 -16 z m 513 118 b 210 489 328 118 210 261 l 210 490 b 513 861 210 718 328 861 b 817 490 699 861 817 718 l 817 489 b 513 118 817 263 701 118 z "},"Ọ":{"ha":1026,"x_min":0,"x_max":0,"o":"m 513 -16 b 972 489 796 -16 972 178 l 972 490 b 513 995 972 800 795 995 b 55 490 232 995 55 801 l 55 489 b 513 -16 55 178 231 -16 z m 513 118 b 210 489 328 118 210 261 l 210 490 b 513 861 210 718 328 861 b 817 490 699 861 817 718 l 817 489 b 513 118 817 263 701 118 z m 513 -279 b 599 -195 561 -279 599 -241 b 513 -110 599 -148 561 -110 b 428 -195 466 -110 428 -148 b 513 -279 428 -241 466 -279 z "},"Ȍ":{"ha":1026,"x_min":0,"x_max":0,"o":"m 368 1058 l 472 1058 l 345 1264 l 204 1264 z m 589 1058 l 694 1058 l 581 1264 l 440 1264 z m 513 -16 b 972 489 796 -16 972 178 l 972 490 b 513 995 972 800 795 995 b 55 490 232 995 55 801 l 55 489 b 513 -16 55 178 231 -16 z m 513 118 b 210 489 328 118 210 261 l 210 490 b 513 861 210 718 328 861 b 817 490 699 861 817 718 l 817 489 b 513 118 817 263 701 118 z "},"Ṍ":{"ha":1026,"x_min":0,"x_max":0,"o":"m 457 1194 l 543 1194 l 678 1322 l 561 1322 z m 597 1029 b 701 1156 657 1029 701 1072 l 701 1161 l 618 1161 l 618 1159 b 584 1107 618 1125 606 1107 b 534 1124 567 1107 554 1112 l 517 1135 b 429 1161 490 1152 462 1161 b 326 1035 368 1161 326 1120 l 326 1029 l 409 1029 l 409 1031 b 442 1084 409 1066 420 1084 b 491 1065 458 1084 471 1078 l 507 1055 b 597 1029 535 1038 563 1029 z m 513 -16 b 972 489 796 -16 972 178 l 972 490 b 513 995 972 800 795 995 b 55 490 232 995 55 801 l 55 489 b 513 -16 55 178 231 -16 z m 513 118 b 210 489 328 118 210 261 l 210 490 b 513 861 210 718 328 861 b 817 490 699 861 817 718 l 817 489 b 513 118 817 263 701 118 z "},"Ṓ":{"ha":1026,"x_min":0,"x_max":0,"o":"m 457 1185 l 543 1185 l 678 1314 l 561 1314 z m 330 1043 l 696 1043 l 696 1130 l 330 1130 z m 513 -16 b 972 489 796 -16 972 178 l 972 490 b 513 995 972 800 795 995 b 55 490 232 995 55 801 l 55 489 b 513 -16 55 178 231 -16 z m 513 118 b 210 489 328 118 210 261 l 210 490 b 513 861 210 718 328 861 b 817 490 699 861 817 718 l 817 489 b 513 118 817 263 701 118 z "},"Ỗ":{"ha":1026,"x_min":0,"x_max":0,"o":"m 597 1191 b 701 1317 657 1191 701 1233 l 701 1322 l 618 1322 l 618 1320 b 584 1268 618 1286 606 1268 b 534 1285 567 1268 554 1273 l 517 1295 b 429 1322 490 1312 462 1322 b 326 1196 368 1322 326 1280 l 326 1191 l 409 1191 l 409 1193 b 442 1244 409 1227 420 1244 b 491 1227 458 1244 471 1239 l 507 1217 b 597 1191 535 1199 563 1191 z m 457 1162 l 321 1025 l 433 1025 l 513 1107 l 593 1025 l 705 1025 l 568 1162 z m 513 -16 b 972 489 796 -16 972 178 l 972 490 b 513 995 972 800 795 995 b 55 490 232 995 55 801 l 55 489 b 513 -16 55 178 231 -16 z m 513 118 b 210 489 328 118 210 261 l 210 490 b 513 861 210 718 328 861 b 817 490 699 861 817 718 l 817 489 b 513 118 817 263 701 118 z "},"Ȱ":{"ha":1026,"x_min":0,"x_max":0,"o":"m 330 1197 l 696 1197 l 696 1284 l 330 1284 z m 512 1032 l 514 1032 b 578 1095 551 1032 578 1060 l 578 1096 b 514 1156 578 1130 551 1156 l 512 1156 b 448 1096 475 1156 448 1130 l 448 1094 b 512 1032 448 1060 475 1032 z m 513 -16 b 972 489 796 -16 972 178 l 972 490 b 513 995 972 800 795 995 b 55 490 232 995 55 801 l 55 489 b 513 -16 55 178 231 -16 z m 513 118 b 210 489 328 118 210 261 l 210 490 b 513 861 210 718 328 861 b 817 490 699 861 817 718 l 817 489 b 513 118 817 263 701 118 z "},"Ṑ":{"ha":1026,"x_min":0,"x_max":0,"o":"m 570 1185 l 465 1314 l 348 1314 l 484 1185 z m 330 1043 l 696 1043 l 696 1130 l 330 1130 z m 513 -16 b 972 489 796 -16 972 178 l 972 490 b 513 995 972 800 795 995 b 55 490 232 995 55 801 l 55 489 b 513 -16 55 178 231 -16 z m 513 118 b 210 489 328 118 210 261 l 210 490 b 513 861 210 718 328 861 b 817 490 699 861 817 718 l 817 489 b 513 118 817 263 701 118 z "},"Ǒ":{"ha":1026,"x_min":0,"x_max":0,"o":"m 725 1264 l 610 1264 l 514 1127 l 416 1264 l 301 1264 l 451 1058 l 576 1058 z m 513 -16 b 972 489 796 -16 972 178 l 972 490 b 513 995 972 800 795 995 b 55 490 232 995 55 801 l 55 489 b 513 -16 55 178 231 -16 z m 513 118 b 210 489 328 118 210 261 l 210 490 b 513 861 210 718 328 861 b 817 490 699 861 817 718 l 817 489 b 513 118 817 263 701 118 z "},"Ő":{"ha":1026,"x_min":0,"x_max":0,"o":"m 441 1058 l 576 1264 l 435 1264 l 336 1058 z m 663 1058 l 812 1264 l 672 1264 l 559 1058 z m 513 -16 b 972 489 796 -16 972 178 l 972 490 b 513 995 972 800 795 995 b 55 490 232 995 55 801 l 55 489 b 513 -16 55 178 231 -16 z m 513 118 b 210 489 328 118 210 261 l 210 490 b 513 861 210 718 328 861 b 817 490 699 861 817 718 l 817 489 b 513 118 817 263 701 118 z "},"Ŏ":{"ha":1026,"x_min":0,"x_max":0,"o":"m 513 1056 b 715 1253 635 1056 715 1136 l 715 1259 l 617 1259 l 617 1256 b 513 1148 617 1197 578 1148 b 410 1256 449 1148 410 1197 l 410 1259 l 313 1259 l 313 1253 b 513 1056 313 1136 391 1056 z m 513 -16 b 972 489 796 -16 972 178 l 972 490 b 513 995 972 800 795 995 b 55 490 232 995 55 801 l 55 489 b 513 -16 55 178 231 -16 z m 513 118 b 210 489 328 118 210 261 l 210 490 b 513 861 210 718 328 861 b 817 490 699 861 817 718 l 817 489 b 513 118 817 263 701 118 z "},"Ȏ":{"ha":1026,"x_min":0,"x_max":0,"o":"m 513 1259 b 313 1062 391 1259 313 1179 l 313 1056 l 410 1056 l 410 1059 b 513 1166 410 1118 449 1166 b 617 1059 578 1166 617 1118 l 617 1056 l 715 1056 l 715 1062 b 513 1259 715 1179 635 1259 z m 513 -16 b 972 489 796 -16 972 178 l 972 490 b 513 995 972 800 795 995 b 55 490 232 995 55 801 l 55 489 b 513 -16 55 178 231 -16 z m 513 118 b 210 489 328 118 210 261 l 210 490 b 513 861 210 718 328 861 b 817 490 699 861 817 718 l 817 489 b 513 118 817 263 701 118 z "},"Ỏ":{"ha":1026,"x_min":0,"x_max":0,"o":"m 460 1058 l 552 1058 b 621 1165 597 1088 621 1123 b 473 1278 621 1234 553 1278 b 394 1265 441 1278 411 1272 l 394 1186 b 439 1190 404 1187 418 1190 b 521 1141 486 1190 521 1172 b 460 1060 521 1116 498 1088 z m 513 -16 b 972 489 796 -16 972 178 l 972 490 b 513 995 972 800 795 995 b 55 490 232 995 55 801 l 55 489 b 513 -16 55 178 231 -16 z m 513 118 b 210 489 328 118 210 261 l 210 490 b 513 861 210 718 328 861 b 817 490 699 861 817 718 l 817 489 b 513 118 817 263 701 118 z "},"Ȫ":{"ha":1026,"x_min":0,"x_max":0,"o":"m 330 1196 l 696 1196 l 696 1282 l 330 1282 z m 627 1026 l 630 1026 b 695 1088 667 1026 695 1053 l 695 1090 b 630 1151 695 1124 667 1151 l 627 1151 b 562 1090 591 1151 562 1124 l 562 1088 b 627 1026 562 1053 591 1026 z m 397 1026 l 399 1026 b 464 1088 437 1026 464 1053 l 464 1090 b 399 1151 464 1124 437 1151 l 397 1151 b 332 1090 359 1151 332 1124 l 332 1088 b 397 1026 332 1053 359 1026 z m 513 -16 b 972 489 796 -16 972 178 l 972 490 b 513 995 972 800 795 995 b 55 490 232 995 55 801 l 55 489 b 513 -16 55 178 231 -16 z m 513 118 b 210 489 328 118 210 261 l 210 490 b 513 861 210 718 328 861 b 817 490 699 861 817 718 l 817 489 b 513 118 817 263 701 118 z "},"Ȭ":{"ha":1026,"x_min":0,"x_max":0,"o":"m 330 1203 l 696 1203 l 696 1290 l 330 1290 z m 597 1029 b 701 1156 657 1029 701 1072 l 701 1161 l 618 1161 l 618 1159 b 584 1107 618 1125 606 1107 b 534 1124 567 1107 554 1112 l 517 1135 b 429 1161 490 1152 462 1161 b 326 1035 368 1161 326 1120 l 326 1029 l 409 1029 l 409 1031 b 442 1084 409 1066 420 1084 b 491 1065 458 1084 471 1078 l 507 1055 b 597 1029 535 1038 563 1029 z m 513 -16 b 972 489 796 -16 972 178 l 972 490 b 513 995 972 800 795 995 b 55 490 232 995 55 801 l 55 489 b 513 -16 55 178 231 -16 z m 513 118 b 210 489 328 118 210 261 l 210 490 b 513 861 210 718 328 861 b 817 490 699 861 817 718 l 817 489 b 513 118 817 263 701 118 z "},"Ȯ":{"ha":1026,"x_min":0,"x_max":0,"o":"m 513 1083 b 594 1164 558 1083 594 1120 b 513 1243 594 1207 558 1243 b 432 1164 468 1243 432 1207 b 513 1083 432 1120 468 1083 z m 513 -16 b 972 489 796 -16 972 178 l 972 490 b 513 995 972 800 795 995 b 55 490 232 995 55 801 l 55 489 b 513 -16 55 178 231 -16 z m 513 118 b 210 489 328 118 210 261 l 210 490 b 513 861 210 718 328 861 b 817 490 699 861 817 718 l 817 489 b 513 118 817 263 701 118 z "},"Ộ":{"ha":1026,"x_min":0,"x_max":0,"o":"m 301 1058 l 416 1058 l 513 1194 l 610 1058 l 725 1058 l 575 1264 l 450 1264 z m 513 -16 b 972 489 796 -16 972 178 l 972 490 b 513 995 972 800 795 995 b 55 490 232 995 55 801 l 55 489 b 513 -16 55 178 231 -16 z m 513 118 b 210 489 328 118 210 261 l 210 490 b 513 861 210 718 328 861 b 817 490 699 861 817 718 l 817 489 b 513 118 817 263 701 118 z m 513 -279 b 599 -195 561 -279 599 -241 b 513 -110 599 -148 561 -110 b 428 -195 466 -110 428 -148 b 513 -279 428 -241 466 -279 z "},"Ố":{"ha":1026,"x_min":0,"x_max":0,"o":"m 589 1194 l 675 1194 l 810 1322 l 693 1322 z m 457 1162 l 321 1025 l 433 1025 l 513 1107 l 593 1025 l 705 1025 l 568 1162 z m 513 -16 b 972 489 796 -16 972 178 l 972 490 b 513 995 972 800 795 995 b 55 490 232 995 55 801 l 55 489 b 513 -16 55 178 231 -16 z m 513 118 b 210 489 328 118 210 261 l 210 490 b 513 861 210 718 328 861 b 817 490 699 861 817 718 l 817 489 b 513 118 817 263 701 118 z "},"Ṏ":{"ha":1026,"x_min":0,"x_max":0,"o":"m 627 1190 l 630 1190 b 695 1252 667 1190 695 1217 l 695 1254 b 630 1315 695 1289 667 1315 l 627 1315 b 562 1254 591 1315 562 1289 l 562 1251 b 627 1190 562 1217 591 1190 z m 397 1190 l 399 1190 b 464 1252 437 1190 464 1217 l 464 1254 b 399 1315 464 1289 437 1315 l 397 1315 b 332 1254 359 1315 332 1289 l 332 1251 b 397 1190 332 1217 359 1190 z m 597 1029 b 701 1156 657 1029 701 1072 l 701 1161 l 618 1161 l 618 1159 b 584 1107 618 1125 606 1107 b 534 1124 567 1107 554 1112 l 517 1135 b 429 1161 490 1152 462 1161 b 326 1035 368 1161 326 1120 l 326 1029 l 409 1029 l 409 1031 b 442 1084 409 1066 420 1084 b 491 1065 458 1084 471 1078 l 507 1055 b 597 1029 535 1038 563 1029 z m 513 -16 b 972 489 796 -16 972 178 l 972 490 b 513 995 972 800 795 995 b 55 490 232 995 55 801 l 55 489 b 513 -16 55 178 231 -16 z m 513 118 b 210 489 328 118 210 261 l 210 490 b 513 861 210 718 328 861 b 817 490 699 861 817 718 l 817 489 b 513 118 817 263 701 118 z "},"Ō":{"ha":1026,"x_min":0,"x_max":0,"o":"m 322 1110 l 704 1110 l 704 1208 l 322 1208 z m 513 -16 b 972 489 796 -16 972 178 l 972 490 b 513 995 972 800 795 995 b 55 490 232 995 55 801 l 55 489 b 513 -16 55 178 231 -16 z m 513 118 b 210 489 328 118 210 261 l 210 490 b 513 861 210 718 328 861 b 817 490 699 861 817 718 l 817 489 b 513 118 817 263 701 118 z "},"Ǫ":{"ha":1026,"x_min":0,"x_max":0,"o":"m 564 -323 b 643 -309 590 -323 624 -319 l 643 -224 b 604 -231 633 -229 620 -231 b 536 -146 566 -231 536 -203 l 536 -145 b 602 -9 536 -94 559 -50 b 972 489 832 27 972 212 l 972 490 b 513 995 972 800 795 995 b 55 490 232 995 55 801 l 55 489 b 484 -16 55 189 218 -2 b 404 -177 433 -60 404 -118 l 404 -178 b 564 -323 404 -273 476 -323 z m 513 118 b 210 489 328 118 210 261 l 210 490 b 513 861 210 718 328 861 b 817 490 699 861 817 718 l 817 489 b 513 118 817 263 701 118 z "},"Ǭ":{"ha":1026,"x_min":0,"x_max":0,"o":"m 322 1110 l 704 1110 l 704 1208 l 322 1208 z m 564 -323 b 643 -309 590 -323 624 -319 l 643 -224 b 604 -231 633 -229 620 -231 b 536 -146 566 -231 536 -203 l 536 -145 b 602 -9 536 -94 559 -50 b 972 489 832 27 972 212 l 972 490 b 513 995 972 800 795 995 b 55 490 232 995 55 801 l 55 489 b 484 -16 55 189 218 -2 b 404 -177 433 -60 404 -118 l 404 -178 b 564 -323 404 -273 476 -323 z m 513 118 b 210 489 328 118 210 261 l 210 490 b 513 861 210 718 328 861 b 817 490 699 861 817 718 l 817 489 b 513 118 817 263 701 118 z "},"Ơ":{"ha":1026,"x_min":0,"x_max":0,"o":"m 513 -16 b 972 489 796 -16 972 178 l 972 490 b 741 943 972 705 887 865 b 923 1175 880 973 919 1042 l 801 1175 b 513 995 796 1044 738 1000 b 55 490 232 995 55 801 l 55 489 b 513 -16 55 178 231 -16 z m 513 118 b 210 489 328 118 210 261 l 210 490 b 513 861 210 718 328 861 b 817 490 699 861 817 718 l 817 489 b 513 118 817 263 701 118 z "},"Ợ":{"ha":1026,"x_min":0,"x_max":0,"o":"m 513 -16 b 972 489 796 -16 972 178 l 972 490 b 741 943 972 705 887 865 b 923 1175 880 973 919 1042 l 801 1175 b 513 995 796 1044 738 1000 b 55 490 232 995 55 801 l 55 489 b 513 -16 55 178 231 -16 z m 513 118 b 210 489 328 118 210 261 l 210 490 b 513 861 210 718 328 861 b 817 490 699 861 817 718 l 817 489 b 513 118 817 263 701 118 z m 513 -279 b 599 -195 561 -279 599 -241 b 513 -110 599 -148 561 -110 b 428 -195 466 -110 428 -148 b 513 -279 428 -241 466 -279 z "},"Ở":{"ha":1026,"x_min":0,"x_max":0,"o":"m 425 1058 l 517 1058 b 586 1165 562 1088 586 1123 b 438 1278 586 1234 518 1278 b 359 1265 406 1278 377 1272 l 359 1186 b 404 1190 370 1187 385 1190 b 486 1141 452 1190 486 1172 b 425 1060 486 1116 463 1088 z m 513 -16 b 972 489 796 -16 972 178 l 972 490 b 741 943 972 705 887 865 b 923 1175 880 973 919 1042 l 801 1175 b 513 995 796 1044 738 1000 b 55 490 232 995 55 801 l 55 489 b 513 -16 55 178 231 -16 z m 513 118 b 210 489 328 118 210 261 l 210 490 b 513 861 210 718 328 861 b 817 490 699 861 817 718 l 817 489 b 513 118 817 263 701 118 z "},"Ỡ":{"ha":1026,"x_min":0,"x_max":0,"o":"m 565 1057 b 668 1234 629 1057 668 1116 l 668 1242 l 584 1242 l 584 1238 b 550 1160 584 1185 574 1160 b 497 1190 533 1160 516 1173 l 473 1209 b 393 1243 452 1229 426 1243 b 290 1066 330 1243 290 1185 l 290 1058 l 374 1058 l 374 1063 b 407 1141 374 1116 384 1141 b 459 1110 424 1141 440 1127 l 482 1090 b 565 1057 504 1072 531 1057 z m 513 -16 b 972 489 796 -16 972 178 l 972 490 b 750 937 972 701 890 858 b 965 1175 916 964 960 1036 l 843 1175 b 513 995 837 1041 770 996 b 55 490 232 995 55 801 l 55 489 b 513 -16 55 178 231 -16 z m 513 118 b 210 489 328 118 210 261 l 210 490 b 513 861 210 718 328 861 b 817 490 699 861 817 718 l 817 489 b 513 118 817 263 701 118 z "},"Ờ":{"ha":1026,"x_min":0,"x_max":0,"o":"m 479 1058 l 583 1058 l 470 1264 l 330 1264 z m 513 -16 b 972 489 796 -16 972 178 l 972 490 b 741 943 972 705 887 865 b 923 1175 880 973 919 1042 l 801 1175 b 513 995 796 1044 738 1000 b 55 490 232 995 55 801 l 55 489 b 513 -16 55 178 231 -16 z m 513 118 b 210 489 328 118 210 261 l 210 490 b 513 861 210 718 328 861 b 817 490 699 861 817 718 l 817 489 b 513 118 817 263 701 118 z "},"Ớ":{"ha":1026,"x_min":0,"x_max":0,"o":"m 519 1058 l 667 1264 l 527 1264 l 414 1058 z m 513 -16 b 972 489 796 -16 972 178 l 972 490 b 741 943 972 705 887 865 b 923 1175 880 973 919 1042 l 801 1175 b 513 995 796 1044 738 1000 b 55 490 232 995 55 801 l 55 489 b 513 -16 55 178 231 -16 z m 513 118 b 210 489 328 118 210 261 l 210 490 b 513 861 210 718 328 861 b 817 490 699 861 817 718 l 817 489 b 513 118 817 263 701 118 z "},"Ø":{"ha":1022,"x_min":0,"x_max":0,"o":"m 511 -16 b 967 489 792 -16 967 178 l 967 490 b 868 830 967 629 932 745 l 972 951 l 898 1015 l 800 901 b 511 995 725 962 627 995 b 55 490 231 995 55 801 l 55 489 b 154 149 55 350 90 234 l 50 27 l 123 -37 l 222 78 b 511 -16 297 17 395 -16 z m 201 489 l 201 490 b 511 863 201 720 321 863 b 707 793 590 863 656 838 l 252 263 b 201 489 218 323 201 399 z m 511 115 b 314 185 432 115 366 140 l 770 715 b 821 490 803 656 821 579 l 821 489 b 511 115 821 262 703 115 z "},"Ǿ":{"ha":1022,"x_min":0,"x_max":0,"o":"m 551 1058 l 700 1264 l 559 1264 l 446 1058 z m 511 -16 b 967 489 792 -16 967 178 l 967 490 b 868 830 967 629 932 745 l 972 951 l 898 1015 l 800 901 b 511 995 725 962 627 995 b 55 490 231 995 55 801 l 55 489 b 154 149 55 350 90 234 l 50 27 l 123 -37 l 222 78 b 511 -16 297 17 395 -16 z m 201 489 l 201 490 b 511 863 201 720 321 863 b 707 793 590 863 656 838 l 252 263 b 201 489 218 323 201 399 z m 511 115 b 314 185 432 115 366 140 l 770 715 b 821 490 803 656 821 579 l 821 489 b 511 115 821 262 703 115 z "},"Ɵ":{"ha":1026,"x_min":0,"x_max":0,"o":"m 513 -16 b 972 489 796 -16 972 178 l 972 490 b 513 995 972 800 795 995 b 55 490 232 995 55 801 l 55 489 b 513 -16 55 178 231 -16 z m 513 861 b 813 555 681 861 793 745 l 213 555 b 513 861 234 745 347 861 z m 513 118 b 212 443 340 118 227 242 l 815 443 b 513 118 800 243 688 118 z "},"P":{"ha":822,"x_min":0,"x_max":0,"o":"m 90 0 l 242 0 l 242 334 l 454 334 b 779 656 646 334 779 465 l 779 658 b 454 979 779 850 646 979 l 90 979 z m 416 850 b 625 657 549 850 625 779 l 625 656 b 416 462 625 533 549 462 l 242 462 l 242 850 z "},"Ṗ":{"ha":822,"x_min":0,"x_max":0,"o":"m 347 1083 b 429 1164 393 1083 429 1120 b 347 1243 429 1207 393 1243 b 267 1164 302 1243 267 1207 b 347 1083 267 1120 302 1083 z m 90 0 l 242 0 l 242 334 l 454 334 b 779 656 646 334 779 465 l 779 658 b 454 979 779 850 646 979 l 90 979 z m 416 850 b 625 657 549 850 625 779 l 625 656 b 416 462 625 533 549 462 l 242 462 l 242 850 z "},"Ṕ":{"ha":822,"x_min":0,"x_max":0,"o":"m 387 1058 l 536 1264 l 396 1264 l 283 1058 z m 90 0 l 242 0 l 242 334 l 454 334 b 779 656 646 334 779 465 l 779 658 b 454 979 779 850 646 979 l 90 979 z m 416 850 b 625 657 549 850 625 779 l 625 656 b 416 462 625 533 549 462 l 242 462 l 242 850 z "},"Q":{"ha":1026,"x_min":0,"x_max":0,"o":"m 513 -16 b 688 12 577 -16 635 -7 l 771 -104 l 929 -104 l 800 75 b 972 489 910 161 972 304 l 972 490 b 513 995 972 800 795 995 b 55 490 232 995 55 801 l 55 489 b 513 -16 55 178 231 -16 z m 513 118 b 210 489 328 118 210 261 l 210 490 b 513 861 210 718 328 861 b 816 490 699 861 816 718 l 816 489 b 713 195 816 361 779 260 l 638 300 l 481 300 l 603 130 b 513 118 575 122 545 118 z "},"R":{"ha":852,"x_min":0,"x_max":0,"o":"m 90 0 l 242 0 l 242 376 l 451 376 l 650 0 l 825 0 l 606 399 b 796 677 724 439 796 545 l 796 679 b 470 979 796 863 670 979 l 90 979 z m 242 500 l 242 851 l 451 851 b 640 677 568 851 640 786 l 640 676 b 455 500 640 565 572 500 z "},"Ř":{"ha":852,"x_min":0,"x_max":0,"o":"m 620 1264 l 505 1264 l 409 1127 l 311 1264 l 197 1264 l 346 1058 l 471 1058 z m 90 0 l 242 0 l 242 376 l 451 376 l 650 0 l 825 0 l 606 399 b 796 677 724 439 796 545 l 796 679 b 470 979 796 863 670 979 l 90 979 z m 242 500 l 242 851 l 451 851 b 640 677 568 851 640 786 l 640 676 b 455 500 640 565 572 500 z "},"Ṟ":{"ha":852,"x_min":0,"x_max":0,"o":"m 90 0 l 242 0 l 242 376 l 451 376 l 650 0 l 825 0 l 606 399 b 796 677 724 439 796 545 l 796 679 b 470 979 796 863 670 979 l 90 979 z m 242 500 l 242 851 l 451 851 b 640 677 568 851 640 786 l 640 676 b 455 500 640 565 572 500 z m 233 -237 l 629 -237 l 629 -138 l 233 -138 z "},"Ṝ":{"ha":852,"x_min":0,"x_max":0,"o":"m 217 1110 l 599 1110 l 599 1208 l 217 1208 z m 90 0 l 242 0 l 242 376 l 451 376 l 650 0 l 825 0 l 606 399 b 796 677 724 439 796 545 l 796 679 b 470 979 796 863 670 979 l 90 979 z m 242 500 l 242 851 l 451 851 b 640 677 568 851 640 786 l 640 676 b 455 500 640 565 572 500 z m 431 -279 b 517 -195 479 -279 517 -241 b 431 -110 517 -148 479 -110 b 346 -195 384 -110 346 -148 b 431 -279 346 -241 384 -279 z "},"Ȑ":{"ha":852,"x_min":0,"x_max":0,"o":"m 262 1058 l 367 1058 l 239 1264 l 99 1264 z m 484 1058 l 589 1058 l 475 1264 l 336 1264 z m 90 0 l 242 0 l 242 376 l 451 376 l 650 0 l 825 0 l 606 399 b 796 677 724 439 796 545 l 796 679 b 470 979 796 863 670 979 l 90 979 z m 242 500 l 242 851 l 451 851 b 640 677 568 851 640 786 l 640 676 b 455 500 640 565 572 500 z "},"Ȓ":{"ha":852,"x_min":0,"x_max":0,"o":"m 408 1259 b 208 1062 286 1259 208 1179 l 208 1056 l 305 1056 l 305 1059 b 408 1166 305 1118 345 1166 b 512 1059 473 1166 512 1118 l 512 1056 l 610 1056 l 610 1062 b 408 1259 610 1179 530 1259 z m 90 0 l 242 0 l 242 376 l 451 376 l 650 0 l 825 0 l 606 399 b 796 677 724 439 796 545 l 796 679 b 470 979 796 863 670 979 l 90 979 z m 242 500 l 242 851 l 451 851 b 640 677 568 851 640 786 l 640 676 b 455 500 640 565 572 500 z "},"Ŕ":{"ha":852,"x_min":0,"x_max":0,"o":"m 448 1058 l 597 1264 l 457 1264 l 343 1058 z m 90 0 l 242 0 l 242 376 l 451 376 l 650 0 l 825 0 l 606 399 b 796 677 724 439 796 545 l 796 679 b 470 979 796 863 670 979 l 90 979 z m 242 500 l 242 851 l 451 851 b 640 677 568 851 640 786 l 640 676 b 455 500 640 565 572 500 z "},"Ṛ":{"ha":852,"x_min":0,"x_max":0,"o":"m 90 0 l 242 0 l 242 376 l 451 376 l 650 0 l 825 0 l 606 399 b 796 677 724 439 796 545 l 796 679 b 470 979 796 863 670 979 l 90 979 z m 242 500 l 242 851 l 451 851 b 640 677 568 851 640 786 l 640 676 b 455 500 640 565 572 500 z m 431 -279 b 517 -195 479 -279 517 -241 b 431 -110 517 -148 479 -110 b 346 -195 384 -110 346 -148 b 431 -279 346 -241 384 -279 z "},"Ṙ":{"ha":852,"x_min":0,"x_max":0,"o":"m 408 1083 b 489 1164 453 1083 489 1120 b 408 1243 489 1207 453 1243 b 327 1164 363 1243 327 1207 b 408 1083 327 1120 363 1083 z m 90 0 l 242 0 l 242 376 l 451 376 l 650 0 l 825 0 l 606 399 b 796 677 724 439 796 545 l 796 679 b 470 979 796 863 670 979 l 90 979 z m 242 500 l 242 851 l 451 851 b 640 677 568 851 640 786 l 640 676 b 455 500 640 565 572 500 z "},"Ŗ":{"ha":852,"x_min":0,"x_max":0,"o":"m 90 0 l 242 0 l 242 376 l 451 376 l 650 0 l 825 0 l 606 399 b 796 677 724 439 796 545 l 796 679 b 470 979 796 863 670 979 l 90 979 z m 242 500 l 242 851 l 451 851 b 640 677 568 851 640 786 l 640 676 b 455 500 640 565 572 500 z m 304 -314 l 397 -314 l 496 -81 l 361 -81 z "},"S":{"ha":843,"x_min":0,"x_max":0,"o":"m 424 -16 b 797 275 656 -16 797 97 l 797 276 b 508 552 797 427 710 509 l 401 574 b 223 719 279 601 223 646 l 223 720 b 422 863 223 805 300 863 b 630 718 538 863 616 808 l 631 708 l 779 708 l 778 720 b 424 995 768 884 628 995 b 69 713 217 995 70 880 l 69 713 b 354 439 69 568 162 479 l 460 416 b 644 267 590 388 644 345 l 644 266 b 430 115 644 174 561 115 b 195 262 299 115 209 172 l 194 271 l 46 271 l 47 260 b 424 -16 59 88 204 -16 z "},"Š":{"ha":843,"x_min":0,"x_max":0,"o":"m 637 1264 l 523 1264 l 426 1127 l 328 1264 l 214 1264 l 363 1058 l 488 1058 z m 424 -16 b 797 275 656 -16 797 97 l 797 276 b 508 552 797 427 710 509 l 401 574 b 223 719 279 601 223 646 l 223 720 b 422 863 223 805 300 863 b 630 718 538 863 616 808 l 631 708 l 779 708 l 778 720 b 424 995 768 884 628 995 b 69 713 217 995 70 880 l 69 713 b 354 439 69 568 162 479 l 460 416 b 644 267 590 388 644 345 l 644 266 b 430 115 644 174 561 115 b 195 262 299 115 209 172 l 194 271 l 46 271 l 47 260 b 424 -16 59 88 204 -16 z "},"Ş":{"ha":843,"x_min":0,"x_max":0,"o":"m 417 -314 b 570 -186 500 -314 570 -267 l 570 -185 b 448 -61 570 -107 521 -66 l 478 -14 b 797 275 677 2 797 111 l 797 276 b 508 552 797 427 710 509 l 401 574 b 223 719 279 601 223 646 l 223 720 b 422 863 223 805 300 863 b 630 718 538 863 616 808 l 631 708 l 779 708 l 778 720 b 424 995 768 884 628 995 b 69 713 217 995 70 880 l 69 713 b 354 439 69 568 162 479 l 460 416 b 644 267 590 388 644 345 l 644 266 b 430 115 644 174 561 115 b 195 262 299 115 209 172 l 194 271 l 46 271 l 47 260 b 384 -16 58 99 187 -3 l 342 -79 l 342 -138 l 372 -138 b 449 -185 423 -138 449 -154 l 449 -186 b 382 -226 449 -215 419 -226 b 311 -215 355 -226 327 -220 l 311 -297 b 417 -314 332 -307 373 -314 z "},"Ṡ":{"ha":843,"x_min":0,"x_max":0,"o":"m 425 1083 b 506 1164 471 1083 506 1120 b 425 1243 506 1207 471 1243 b 344 1164 380 1243 344 1207 b 425 1083 344 1120 380 1083 z m 424 -16 b 797 275 656 -16 797 97 l 797 276 b 508 552 797 427 710 509 l 401 574 b 223 719 279 601 223 646 l 223 720 b 422 863 223 805 300 863 b 630 718 538 863 616 808 l 631 708 l 779 708 l 778 720 b 424 995 768 884 628 995 b 69 713 217 995 70 880 l 69 713 b 354 439 69 568 162 479 l 460 416 b 644 267 590 388 644 345 l 644 266 b 430 115 644 174 561 115 b 195 262 299 115 209 172 l 194 271 l 46 271 l 47 260 b 424 -16 59 88 204 -16 z "},"Ṣ":{"ha":843,"x_min":0,"x_max":0,"o":"m 424 -16 b 797 275 656 -16 797 97 l 797 276 b 508 552 797 427 710 509 l 401 574 b 223 719 279 601 223 646 l 223 720 b 422 863 223 805 300 863 b 630 718 538 863 616 808 l 631 708 l 779 708 l 778 720 b 424 995 768 884 628 995 b 69 713 217 995 70 880 l 69 713 b 354 439 69 568 162 479 l 460 416 b 644 267 590 388 644 345 l 644 266 b 430 115 644 174 561 115 b 195 262 299 115 209 172 l 194 271 l 46 271 l 47 260 b 424 -16 59 88 204 -16 z m 425 -279 b 511 -195 473 -279 511 -241 b 425 -110 511 -148 473 -110 b 340 -195 378 -110 340 -148 b 425 -279 340 -241 378 -279 z "},"Ș":{"ha":843,"x_min":0,"x_max":0,"o":"m 424 -16 b 797 275 656 -16 797 97 l 797 276 b 508 552 797 427 710 509 l 401 574 b 223 719 279 601 223 646 l 223 720 b 422 863 223 805 300 863 b 630 718 538 863 616 808 l 631 708 l 779 708 l 778 720 b 424 995 768 884 628 995 b 69 713 217 995 70 880 l 69 713 b 354 439 69 568 162 479 l 460 416 b 644 267 590 388 644 345 l 644 266 b 430 115 644 174 561 115 b 195 262 299 115 209 172 l 194 271 l 46 271 l 47 260 b 424 -16 59 88 204 -16 z m 298 -314 l 391 -314 l 490 -81 l 355 -81 z "},"Ṩ":{"ha":843,"x_min":0,"x_max":0,"o":"m 425 1083 b 506 1164 471 1083 506 1120 b 425 1243 506 1207 471 1243 b 344 1164 380 1243 344 1207 b 425 1083 344 1120 380 1083 z m 424 -16 b 797 275 656 -16 797 97 l 797 276 b 508 552 797 427 710 509 l 401 574 b 223 719 279 601 223 646 l 223 720 b 422 863 223 805 300 863 b 630 718 538 863 616 808 l 631 708 l 779 708 l 778 720 b 424 995 768 884 628 995 b 69 713 217 995 70 880 l 69 713 b 354 439 69 568 162 479 l 460 416 b 644 267 590 388 644 345 l 644 266 b 430 115 644 174 561 115 b 195 262 299 115 209 172 l 194 271 l 46 271 l 47 260 b 424 -16 59 88 204 -16 z m 425 -279 b 511 -195 473 -279 511 -241 b 425 -110 511 -148 473 -110 b 340 -195 378 -110 340 -148 b 425 -279 340 -241 378 -279 z "},"Ṧ":{"ha":843,"x_min":0,"x_max":0,"o":"m 424 1183 l 427 1183 b 490 1245 463 1183 490 1211 l 490 1246 b 427 1308 490 1280 463 1308 l 424 1308 b 360 1246 387 1308 360 1280 l 360 1245 b 424 1183 360 1211 387 1183 z m 481 1032 l 618 1169 l 505 1169 l 426 1087 l 345 1169 l 233 1169 l 370 1032 z m 424 -16 b 797 275 656 -16 797 97 l 797 276 b 508 552 797 427 710 509 l 401 574 b 223 719 279 601 223 646 l 223 720 b 422 863 223 805 300 863 b 630 718 538 863 616 808 l 631 708 l 779 708 l 778 720 b 424 995 768 884 628 995 b 69 713 217 995 70 880 l 69 713 b 354 439 69 568 162 479 l 460 416 b 644 267 590 388 644 345 l 644 266 b 430 115 644 174 561 115 b 195 262 299 115 209 172 l 194 271 l 46 271 l 47 260 b 424 -16 59 88 204 -16 z "},"Ŝ":{"ha":843,"x_min":0,"x_max":0,"o":"m 214 1058 l 328 1058 l 425 1194 l 523 1058 l 637 1058 l 488 1264 l 363 1264 z m 424 -16 b 797 275 656 -16 797 97 l 797 276 b 508 552 797 427 710 509 l 401 574 b 223 719 279 601 223 646 l 223 720 b 422 863 223 805 300 863 b 630 718 538 863 616 808 l 631 708 l 779 708 l 778 720 b 424 995 768 884 628 995 b 69 713 217 995 70 880 l 69 713 b 354 439 69 568 162 479 l 460 416 b 644 267 590 388 644 345 l 644 266 b 430 115 644 174 561 115 b 195 262 299 115 209 172 l 194 271 l 46 271 l 47 260 b 424 -16 59 88 204 -16 z "},"Ṥ":{"ha":843,"x_min":0,"x_max":0,"o":"m 479 1183 l 481 1183 b 545 1245 518 1183 545 1211 l 545 1246 b 481 1308 545 1280 518 1308 l 479 1308 b 414 1246 442 1308 414 1280 l 414 1245 b 479 1183 414 1211 442 1183 z m 369 1031 l 455 1031 l 591 1160 l 473 1160 z m 424 -16 b 797 275 656 -16 797 97 l 797 276 b 508 552 797 427 710 509 l 401 574 b 223 719 279 601 223 646 l 223 720 b 422 863 223 805 300 863 b 630 718 538 863 616 808 l 631 708 l 779 708 l 778 720 b 424 995 768 884 628 995 b 69 713 217 995 70 880 l 69 713 b 354 439 69 568 162 479 l 460 416 b 644 267 590 388 644 345 l 644 266 b 430 115 644 174 561 115 b 195 262 299 115 209 172 l 194 271 l 46 271 l 47 260 b 424 -16 59 88 204 -16 z "},"Ś":{"ha":843,"x_min":0,"x_max":0,"o":"m 465 1058 l 614 1264 l 474 1264 l 361 1058 z m 424 -16 b 797 275 656 -16 797 97 l 797 276 b 508 552 797 427 710 509 l 401 574 b 223 719 279 601 223 646 l 223 720 b 422 863 223 805 300 863 b 630 718 538 863 616 808 l 631 708 l 779 708 l 778 720 b 424 995 768 884 628 995 b 69 713 217 995 70 880 l 69 713 b 354 439 69 568 162 479 l 460 416 b 644 267 590 388 644 345 l 644 266 b 430 115 644 174 561 115 b 195 262 299 115 209 172 l 194 271 l 46 271 l 47 260 b 424 -16 59 88 204 -16 z "},"ẞ":{"ha":972,"x_min":0,"x_max":0,"o":"m 621 -16 b 927 269 808 -16 927 95 l 927 271 b 646 547 927 418 838 507 l 869 796 l 869 903 b 503 995 744 962 611 995 b 91 625 243 995 91 859 l 91 0 l 243 0 l 243 608 b 505 861 243 772 336 861 b 709 818 571 861 638 846 l 487 566 l 487 456 l 569 441 b 772 272 707 415 772 361 l 772 271 b 608 118 772 177 709 118 b 399 171 539 118 474 134 l 399 26 b 621 -16 468 -1 545 -16 z "},"T":{"ha":817,"x_min":0,"x_max":0,"o":"m 333 0 l 485 0 l 485 848 l 784 848 l 784 979 l 33 979 l 33 848 l 333 848 z "},"Ṱ":{"ha":817,"x_min":0,"x_max":0,"o":"m 333 0 l 485 0 l 485 848 l 784 848 l 784 979 l 33 979 l 33 848 l 333 848 z m 189 -293 l 305 -293 l 408 -150 l 512 -293 l 629 -293 l 471 -81 l 345 -81 z "},"Ṭ":{"ha":817,"x_min":0,"x_max":0,"o":"m 333 0 l 485 0 l 485 848 l 784 848 l 784 979 l 33 979 l 33 848 l 333 848 z m 409 -279 b 494 -195 456 -279 494 -241 b 409 -110 494 -148 456 -110 b 323 -195 361 -110 323 -148 b 409 -279 323 -241 361 -279 z "},"Ț":{"ha":817,"x_min":0,"x_max":0,"o":"m 333 0 l 485 0 l 485 848 l 784 848 l 784 979 l 33 979 l 33 848 l 333 848 z m 281 -314 l 374 -314 l 473 -81 l 339 -81 z "},"Ṫ":{"ha":817,"x_min":0,"x_max":0,"o":"m 408 1083 b 490 1164 454 1083 490 1120 b 408 1243 490 1207 454 1243 b 328 1164 363 1243 328 1207 b 408 1083 328 1120 363 1083 z m 333 0 l 485 0 l 485 848 l 784 848 l 784 979 l 33 979 l 33 848 l 333 848 z "},"Ţ":{"ha":817,"x_min":0,"x_max":0,"o":"m 333 0 l 391 0 l 339 -79 l 339 -138 l 368 -138 b 446 -185 420 -138 446 -154 l 446 -186 b 380 -226 446 -215 416 -226 b 308 -215 351 -226 324 -220 l 308 -297 b 414 -314 329 -307 370 -314 b 567 -186 497 -314 567 -267 l 567 -185 b 445 -61 567 -107 518 -66 l 485 0 l 485 848 l 784 848 l 784 979 l 33 979 l 33 848 l 333 848 z "},"Ṯ":{"ha":817,"x_min":0,"x_max":0,"o":"m 333 0 l 485 0 l 485 848 l 784 848 l 784 979 l 33 979 l 33 848 l 333 848 z m 211 -237 l 606 -237 l 606 -138 l 211 -138 z "},"Ť":{"ha":817,"x_min":0,"x_max":0,"o":"m 621 1264 l 506 1264 l 410 1127 l 311 1264 l 197 1264 l 347 1058 l 471 1058 z m 333 0 l 485 0 l 485 848 l 784 848 l 784 979 l 33 979 l 33 848 l 333 848 z "},"Ŧ":{"ha":817,"x_min":0,"x_max":0,"o":"m 333 0 l 485 0 l 485 427 l 690 427 l 690 540 l 485 540 l 485 848 l 784 848 l 784 979 l 33 979 l 33 848 l 333 848 l 333 540 l 127 540 l 127 427 l 333 427 z "},"U":{"ha":972,"x_min":0,"x_max":0,"o":"m 487 -16 b 882 344 733 -16 882 130 l 882 979 l 731 979 l 731 356 b 487 118 731 214 643 118 b 242 356 331 118 242 214 l 242 979 l 90 979 l 90 344 b 487 -16 90 130 241 -16 z "},"Ù":{"ha":972,"x_min":0,"x_max":0,"o":"m 452 1058 l 556 1058 l 443 1264 l 302 1264 z m 487 -16 b 882 344 733 -16 882 130 l 882 979 l 731 979 l 731 356 b 487 118 731 214 643 118 b 242 356 331 118 242 214 l 242 979 l 90 979 l 90 344 b 487 -16 90 130 241 -16 z "},"Ȕ":{"ha":972,"x_min":0,"x_max":0,"o":"m 340 1058 l 445 1058 l 317 1264 l 177 1264 z m 562 1058 l 667 1058 l 553 1264 l 414 1264 z m 487 -16 b 882 344 733 -16 882 130 l 882 979 l 731 979 l 731 356 b 487 118 731 214 643 118 b 242 356 331 118 242 214 l 242 979 l 90 979 l 90 344 b 487 -16 90 130 241 -16 z "},"Ú":{"ha":972,"x_min":0,"x_max":0,"o":"m 526 1058 l 675 1264 l 535 1264 l 422 1058 z m 487 -16 b 882 344 733 -16 882 130 l 882 979 l 731 979 l 731 356 b 487 118 731 214 643 118 b 242 356 331 118 242 214 l 242 979 l 90 979 l 90 344 b 487 -16 90 130 241 -16 z "},"Ű":{"ha":972,"x_min":0,"x_max":0,"o":"m 414 1058 l 549 1264 l 409 1264 l 310 1058 z m 637 1058 l 785 1264 l 645 1264 l 532 1058 z m 487 -16 b 882 344 733 -16 882 130 l 882 979 l 731 979 l 731 356 b 487 118 731 214 643 118 b 242 356 331 118 242 214 l 242 979 l 90 979 l 90 344 b 487 -16 90 130 241 -16 z "},"Û":{"ha":972,"x_min":0,"x_max":0,"o":"m 275 1058 l 389 1058 l 486 1194 l 584 1058 l 698 1058 l 549 1264 l 424 1264 z m 487 -16 b 882 344 733 -16 882 130 l 882 979 l 731 979 l 731 356 b 487 118 731 214 643 118 b 242 356 331 118 242 214 l 242 979 l 90 979 l 90 344 b 487 -16 90 130 241 -16 z "},"Ǔ":{"ha":972,"x_min":0,"x_max":0,"o":"m 698 1264 l 584 1264 l 487 1127 l 389 1264 l 275 1264 l 424 1058 l 549 1058 z m 487 -16 b 882 344 733 -16 882 130 l 882 979 l 731 979 l 731 356 b 487 118 731 214 643 118 b 242 356 331 118 242 214 l 242 979 l 90 979 l 90 344 b 487 -16 90 130 241 -16 z "},"Ṷ":{"ha":972,"x_min":0,"x_max":0,"o":"m 487 -16 b 882 344 733 -16 882 130 l 882 979 l 731 979 l 731 356 b 487 118 731 214 643 118 b 242 356 331 118 242 214 l 242 979 l 90 979 l 90 344 b 487 -16 90 130 241 -16 z m 267 -293 l 383 -293 l 486 -150 l 589 -293 l 706 -293 l 549 -81 l 423 -81 z "},"Ü":{"ha":972,"x_min":0,"x_max":0,"o":"m 357 1083 b 435 1160 401 1083 435 1117 b 357 1236 435 1202 401 1236 b 280 1160 314 1236 280 1202 b 357 1083 280 1117 314 1083 z m 615 1083 b 693 1160 659 1083 693 1117 b 615 1236 693 1202 659 1236 b 538 1160 572 1236 538 1202 b 615 1083 538 1117 572 1083 z m 487 -16 b 882 344 733 -16 882 130 l 882 979 l 731 979 l 731 356 b 487 118 731 214 643 118 b 242 356 331 118 242 214 l 242 979 l 90 979 l 90 344 b 487 -16 90 130 241 -16 z "},"Ǜ":{"ha":972,"x_min":0,"x_max":0,"o":"m 543 1186 l 439 1315 l 321 1315 l 456 1186 z m 601 1026 l 604 1026 b 668 1088 640 1026 668 1053 l 668 1090 b 604 1151 668 1124 640 1151 l 601 1151 b 535 1090 564 1151 535 1124 l 535 1088 b 601 1026 535 1053 564 1026 z m 370 1026 l 373 1026 b 437 1088 410 1026 437 1053 l 437 1090 b 373 1151 437 1124 410 1151 l 370 1151 b 304 1090 333 1151 304 1124 l 304 1088 b 370 1026 304 1053 333 1026 z m 487 -16 b 882 344 733 -16 882 130 l 882 979 l 731 979 l 731 356 b 487 118 731 214 643 118 b 242 356 331 118 242 214 l 242 979 l 90 979 l 90 344 b 487 -16 90 130 241 -16 z "},"Ǘ":{"ha":972,"x_min":0,"x_max":0,"o":"m 430 1186 l 516 1186 l 652 1315 l 534 1315 z m 601 1026 l 604 1026 b 668 1088 640 1026 668 1053 l 668 1090 b 604 1151 668 1124 640 1151 l 601 1151 b 535 1090 564 1151 535 1124 l 535 1088 b 601 1026 535 1053 564 1026 z m 370 1026 l 373 1026 b 437 1088 410 1026 437 1053 l 437 1090 b 373 1151 437 1124 410 1151 l 370 1151 b 304 1090 333 1151 304 1124 l 304 1088 b 370 1026 304 1053 333 1026 z m 487 -16 b 882 344 733 -16 882 130 l 882 979 l 731 979 l 731 356 b 487 118 731 214 643 118 b 242 356 331 118 242 214 l 242 979 l 90 979 l 90 344 b 487 -16 90 130 241 -16 z "},"Ǖ":{"ha":972,"x_min":0,"x_max":0,"o":"m 303 1196 l 669 1196 l 669 1282 l 303 1282 z m 601 1026 l 604 1026 b 668 1088 640 1026 668 1053 l 668 1090 b 604 1151 668 1124 640 1151 l 601 1151 b 535 1090 564 1151 535 1124 l 535 1088 b 601 1026 535 1053 564 1026 z m 370 1026 l 373 1026 b 437 1088 410 1026 437 1053 l 437 1090 b 373 1151 437 1124 410 1151 l 370 1151 b 304 1090 333 1151 304 1124 l 304 1088 b 370 1026 304 1053 333 1026 z m 487 -16 b 882 344 733 -16 882 130 l 882 979 l 731 979 l 731 356 b 487 118 731 214 643 118 b 242 356 331 118 242 214 l 242 979 l 90 979 l 90 344 b 487 -16 90 130 241 -16 z "},"Ǚ":{"ha":972,"x_min":0,"x_max":0,"o":"m 543 1181 l 679 1318 l 566 1318 l 487 1236 l 406 1318 l 294 1318 l 431 1181 z m 601 1026 l 604 1026 b 668 1088 640 1026 668 1053 l 668 1090 b 604 1151 668 1124 640 1151 l 601 1151 b 535 1090 564 1151 535 1124 l 535 1088 b 601 1026 535 1053 564 1026 z m 370 1026 l 373 1026 b 437 1088 410 1026 437 1053 l 437 1090 b 373 1151 437 1124 410 1151 l 370 1151 b 304 1090 333 1151 304 1124 l 304 1088 b 370 1026 304 1053 333 1026 z m 487 -16 b 882 344 733 -16 882 130 l 882 979 l 731 979 l 731 356 b 487 118 731 214 643 118 b 242 356 331 118 242 214 l 242 979 l 90 979 l 90 344 b 487 -16 90 130 241 -16 z "},"Ṳ":{"ha":972,"x_min":0,"x_max":0,"o":"m 487 -16 b 882 344 733 -16 882 130 l 882 979 l 731 979 l 731 356 b 487 118 731 214 643 118 b 242 356 331 118 242 214 l 242 979 l 90 979 l 90 344 b 487 -16 90 130 241 -16 z m 358 -91 b 281 -168 315 -91 281 -125 b 358 -244 281 -210 315 -244 b 435 -168 401 -244 435 -210 b 358 -91 435 -125 401 -91 z m 614 -91 b 538 -168 572 -91 538 -125 b 614 -244 538 -210 572 -244 b 692 -168 658 -244 692 -210 b 614 -91 692 -125 658 -91 z "},"Ṵ":{"ha":972,"x_min":0,"x_max":0,"o":"m 487 -16 b 882 344 733 -16 882 130 l 882 979 l 731 979 l 731 356 b 487 118 731 214 643 118 b 242 356 331 118 242 214 l 242 979 l 90 979 l 90 344 b 487 -16 90 130 241 -16 z m 586 -294 b 701 -111 658 -294 701 -233 l 701 -102 l 609 -102 l 609 -108 b 570 -191 609 -165 597 -191 b 507 -158 550 -191 530 -176 l 481 -138 b 387 -102 456 -117 426 -102 b 272 -284 316 -102 272 -162 l 272 -293 l 364 -293 l 364 -288 b 403 -205 364 -231 376 -205 b 463 -237 422 -205 441 -220 l 490 -258 b 586 -294 515 -279 547 -294 z "},"Ủ":{"ha":972,"x_min":0,"x_max":0,"o":"m 433 1058 l 525 1058 b 593 1165 570 1088 593 1123 b 446 1278 593 1234 526 1278 b 367 1265 414 1278 385 1272 l 367 1186 b 412 1190 378 1187 392 1190 b 494 1141 460 1190 494 1172 b 433 1060 494 1116 471 1088 z m 487 -16 b 882 344 733 -16 882 130 l 882 979 l 731 979 l 731 356 b 487 118 731 214 643 118 b 242 356 331 118 242 214 l 242 979 l 90 979 l 90 344 b 487 -16 90 130 241 -16 z "},"Ŭ":{"ha":972,"x_min":0,"x_max":0,"o":"m 487 1056 b 688 1253 609 1056 688 1136 l 688 1259 l 590 1259 l 590 1256 b 487 1148 590 1197 551 1148 b 383 1256 422 1148 383 1197 l 383 1259 l 286 1259 l 286 1253 b 487 1056 286 1136 364 1056 z m 487 -16 b 882 344 733 -16 882 130 l 882 979 l 731 979 l 731 356 b 487 118 731 214 643 118 b 242 356 331 118 242 214 l 242 979 l 90 979 l 90 344 b 487 -16 90 130 241 -16 z "},"Ȗ":{"ha":972,"x_min":0,"x_max":0,"o":"m 486 1259 b 286 1062 364 1259 286 1179 l 286 1056 l 383 1056 l 383 1059 b 486 1166 383 1118 422 1166 b 590 1059 551 1166 590 1118 l 590 1056 l 688 1056 l 688 1062 b 486 1259 688 1179 609 1259 z m 487 -16 b 882 344 733 -16 882 130 l 882 979 l 731 979 l 731 356 b 487 118 731 214 643 118 b 242 356 331 118 242 214 l 242 979 l 90 979 l 90 344 b 487 -16 90 130 241 -16 z "},"Ṹ":{"ha":972,"x_min":0,"x_max":0,"o":"m 430 1194 l 516 1194 l 652 1322 l 534 1322 z m 570 1029 b 674 1156 630 1029 674 1072 l 674 1161 l 591 1161 l 591 1159 b 557 1107 591 1125 579 1107 b 507 1124 541 1107 527 1112 l 491 1135 b 403 1161 463 1152 435 1161 b 298 1035 341 1161 298 1120 l 298 1029 l 382 1029 l 382 1031 b 416 1084 382 1066 393 1084 b 464 1065 432 1084 444 1078 l 480 1055 b 570 1029 508 1038 536 1029 z m 487 -16 b 882 344 733 -16 882 130 l 882 979 l 731 979 l 731 356 b 487 118 731 214 643 118 b 242 356 331 118 242 214 l 242 979 l 90 979 l 90 344 b 487 -16 90 130 241 -16 z "},"Ụ":{"ha":972,"x_min":0,"x_max":0,"o":"m 487 -16 b 882 344 733 -16 882 130 l 882 979 l 731 979 l 731 356 b 487 118 731 214 643 118 b 242 356 331 118 242 214 l 242 979 l 90 979 l 90 344 b 487 -16 90 130 241 -16 z m 486 -279 b 572 -195 534 -279 572 -241 b 486 -110 572 -148 534 -110 b 401 -195 439 -110 401 -148 b 486 -279 401 -241 439 -279 z "},"Ũ":{"ha":972,"x_min":0,"x_max":0,"o":"m 581 1057 b 693 1234 651 1057 693 1116 l 693 1242 l 603 1242 l 603 1238 b 566 1160 603 1185 591 1160 b 506 1190 547 1160 528 1173 l 480 1209 b 391 1243 456 1229 428 1243 b 279 1066 322 1243 279 1185 l 279 1058 l 370 1058 l 370 1063 b 407 1141 370 1116 380 1141 b 464 1110 425 1141 444 1127 l 490 1090 b 581 1057 513 1072 544 1057 z m 487 -16 b 882 344 733 -16 882 130 l 882 979 l 731 979 l 731 356 b 487 118 731 214 643 118 b 242 356 331 118 242 214 l 242 979 l 90 979 l 90 344 b 487 -16 90 130 241 -16 z "},"Ū":{"ha":972,"x_min":0,"x_max":0,"o":"m 295 1110 l 677 1110 l 677 1208 l 295 1208 z m 487 -16 b 882 344 733 -16 882 130 l 882 979 l 731 979 l 731 356 b 487 118 731 214 643 118 b 242 356 331 118 242 214 l 242 979 l 90 979 l 90 344 b 487 -16 90 130 241 -16 z "},"Ṻ":{"ha":972,"x_min":0,"x_max":0,"o":"m 601 1181 l 604 1181 b 668 1243 640 1181 668 1208 l 668 1245 b 604 1306 668 1280 640 1306 l 601 1306 b 535 1245 564 1306 535 1280 l 535 1243 b 601 1181 535 1208 564 1181 z m 370 1181 l 373 1181 b 437 1243 410 1181 437 1208 l 437 1245 b 373 1306 437 1280 410 1306 l 370 1306 b 304 1245 333 1306 304 1280 l 304 1243 b 370 1181 304 1208 333 1181 z m 303 1043 l 669 1043 l 669 1130 l 303 1130 z m 487 -16 b 882 344 733 -16 882 130 l 882 979 l 731 979 l 731 356 b 487 118 731 214 643 118 b 242 356 331 118 242 214 l 242 979 l 90 979 l 90 344 b 487 -16 90 130 241 -16 z "},"Ů":{"ha":972,"x_min":0,"x_max":0,"o":"m 490 1034 b 618 1160 560 1034 618 1090 l 618 1161 b 490 1287 618 1232 560 1287 b 360 1161 418 1287 360 1232 l 360 1160 b 490 1034 360 1090 418 1034 z m 490 1106 b 434 1160 459 1106 434 1130 l 434 1161 b 490 1215 434 1192 458 1215 b 545 1161 520 1215 545 1192 l 545 1160 b 490 1106 545 1130 519 1106 z m 487 -16 b 882 344 733 -16 882 130 l 882 979 l 731 979 l 731 356 b 487 118 731 214 643 118 b 242 356 331 118 242 214 l 242 979 l 90 979 l 90 344 b 487 -16 90 130 241 -16 z "},"Ų":{"ha":972,"x_min":0,"x_max":0,"o":"m 534 -323 b 614 -309 561 -323 595 -319 l 614 -224 b 575 -231 604 -229 591 -231 b 507 -146 537 -231 507 -203 l 507 -145 b 572 -10 507 -94 529 -50 b 882 344 767 20 882 156 l 882 979 l 731 979 l 731 356 b 487 118 731 214 643 118 b 242 356 331 118 242 214 l 242 979 l 90 979 l 90 344 b 454 -16 90 139 228 -3 b 375 -177 404 -60 375 -118 l 375 -178 b 534 -323 375 -273 447 -323 z "},"Ư":{"ha":972,"x_min":0,"x_max":0,"o":"m 487 -16 b 882 344 733 -16 882 130 l 882 929 b 1015 1175 984 966 1015 1034 l 893 1175 b 731 979 894 1040 866 998 l 731 356 b 487 118 731 214 643 118 b 242 356 331 118 242 214 l 242 979 l 90 979 l 90 344 b 487 -16 90 130 241 -16 z "},"Ừ":{"ha":972,"x_min":0,"x_max":0,"o":"m 452 1058 l 556 1058 l 443 1264 l 302 1264 z m 487 -16 b 882 344 733 -16 882 130 l 882 929 b 1015 1175 984 966 1015 1034 l 893 1175 b 731 979 894 1040 866 998 l 731 356 b 487 118 731 214 643 118 b 242 356 331 118 242 214 l 242 979 l 90 979 l 90 344 b 487 -16 90 130 241 -16 z "},"Ứ":{"ha":972,"x_min":0,"x_max":0,"o":"m 526 1058 l 675 1264 l 535 1264 l 422 1058 z m 487 -16 b 882 344 733 -16 882 130 l 882 929 b 1015 1175 984 966 1015 1034 l 893 1175 b 731 979 894 1040 866 998 l 731 356 b 487 118 731 214 643 118 b 242 356 331 118 242 214 l 242 979 l 90 979 l 90 344 b 487 -16 90 130 241 -16 z "},"Ự":{"ha":972,"x_min":0,"x_max":0,"o":"m 487 -16 b 882 344 733 -16 882 130 l 882 929 b 1015 1175 984 966 1015 1034 l 893 1175 b 731 979 894 1040 866 998 l 731 356 b 487 118 731 214 643 118 b 242 356 331 118 242 214 l 242 979 l 90 979 l 90 344 b 487 -16 90 130 241 -16 z m 486 -279 b 572 -195 534 -279 572 -241 b 486 -110 572 -148 534 -110 b 401 -195 439 -110 401 -148 b 486 -279 401 -241 439 -279 z "},"Ử":{"ha":972,"x_min":0,"x_max":0,"o":"m 433 1058 l 525 1058 b 593 1165 570 1088 593 1123 b 446 1278 593 1234 526 1278 b 367 1265 414 1278 385 1272 l 367 1186 b 412 1190 378 1187 392 1190 b 494 1141 460 1190 494 1172 b 433 1060 494 1116 471 1088 z m 487 -16 b 882 344 733 -16 882 130 l 882 929 b 1015 1175 984 966 1015 1034 l 893 1175 b 731 979 894 1040 866 998 l 731 356 b 487 118 731 214 643 118 b 242 356 331 118 242 214 l 242 979 l 90 979 l 90 344 b 487 -16 90 130 241 -16 z "},"Ữ":{"ha":972,"x_min":0,"x_max":0,"o":"m 585 1057 b 688 1234 650 1057 688 1116 l 688 1242 l 604 1242 l 604 1238 b 570 1160 604 1185 594 1160 b 517 1190 553 1160 536 1173 l 494 1209 b 412 1243 472 1229 446 1243 b 310 1066 350 1243 310 1185 l 310 1058 l 393 1058 l 393 1063 b 427 1141 393 1116 404 1141 b 479 1110 444 1141 460 1127 l 503 1090 b 585 1057 524 1072 551 1057 z m 487 -16 b 882 344 733 -16 882 130 l 882 929 b 1015 1175 984 966 1015 1034 l 893 1175 b 731 979 894 1040 866 998 l 731 356 b 487 118 731 214 643 118 b 242 356 331 118 242 214 l 242 979 l 90 979 l 90 344 b 487 -16 90 130 241 -16 z "},"V":{"ha":900,"x_min":0,"x_max":0,"o":"m 366 0 l 534 0 l 882 979 l 719 979 l 452 169 l 448 169 l 181 979 l 18 979 z "},"Ṽ":{"ha":900,"x_min":0,"x_max":0,"o":"m 546 1057 b 657 1234 616 1057 657 1116 l 657 1242 l 567 1242 l 567 1238 b 530 1160 567 1185 556 1160 b 471 1190 511 1160 492 1173 l 445 1209 b 355 1243 421 1229 392 1243 b 243 1066 287 1243 243 1185 l 243 1058 l 334 1058 l 334 1063 b 371 1141 334 1116 345 1141 b 429 1110 389 1141 408 1127 l 454 1090 b 546 1057 478 1072 509 1057 z m 366 0 l 534 0 l 882 979 l 719 979 l 452 169 l 448 169 l 181 979 l 18 979 z "},"Ṿ":{"ha":900,"x_min":0,"x_max":0,"o":"m 366 0 l 534 0 l 882 979 l 719 979 l 452 169 l 448 169 l 181 979 l 18 979 z m 451 -279 b 536 -195 499 -279 536 -241 b 451 -110 536 -148 499 -110 b 366 -195 404 -110 366 -148 b 451 -279 366 -241 404 -279 z "},"W":{"ha":1304,"x_min":0,"x_max":0,"o":"m 294 0 l 439 0 l 650 738 l 654 738 l 864 0 l 1010 0 l 1274 979 l 1116 979 l 934 212 l 930 212 l 724 979 l 580 979 l 373 212 l 370 212 l 188 979 l 30 979 z "},"Ẁ":{"ha":1304,"x_min":0,"x_max":0,"o":"m 617 1058 l 722 1058 l 608 1264 l 469 1264 z m 294 0 l 439 0 l 650 738 l 654 738 l 864 0 l 1010 0 l 1274 979 l 1116 979 l 934 212 l 930 212 l 724 979 l 580 979 l 373 212 l 370 212 l 188 979 l 30 979 z "},"Ẃ":{"ha":1304,"x_min":0,"x_max":0,"o":"m 692 1058 l 841 1264 l 701 1264 l 587 1058 z m 294 0 l 439 0 l 650 738 l 654 738 l 864 0 l 1010 0 l 1274 979 l 1116 979 l 934 212 l 930 212 l 724 979 l 580 979 l 373 212 l 370 212 l 188 979 l 30 979 z "},"Ẇ":{"ha":1304,"x_min":0,"x_max":0,"o":"m 651 1083 b 733 1164 697 1083 733 1120 b 651 1243 733 1207 697 1243 b 570 1164 607 1243 570 1207 b 651 1083 570 1120 607 1083 z m 294 0 l 439 0 l 650 738 l 654 738 l 864 0 l 1010 0 l 1274 979 l 1116 979 l 934 212 l 930 212 l 724 979 l 580 979 l 373 212 l 370 212 l 188 979 l 30 979 z "},"Ẉ":{"ha":1304,"x_min":0,"x_max":0,"o":"m 294 0 l 439 0 l 650 738 l 654 738 l 864 0 l 1010 0 l 1274 979 l 1116 979 l 934 212 l 930 212 l 724 979 l 580 979 l 373 212 l 370 212 l 188 979 l 30 979 z m 652 -279 b 737 -195 700 -279 737 -241 b 652 -110 737 -148 700 -110 b 566 -195 604 -110 566 -148 b 652 -279 566 -241 604 -279 z "},"Ẅ":{"ha":1304,"x_min":0,"x_max":0,"o":"m 524 1083 b 600 1160 567 1083 600 1117 b 524 1236 600 1202 567 1236 b 446 1160 480 1236 446 1202 b 524 1083 446 1117 480 1083 z m 781 1083 b 859 1160 825 1083 859 1117 b 781 1236 859 1202 825 1236 b 703 1160 738 1236 703 1202 b 781 1083 703 1117 738 1083 z m 294 0 l 439 0 l 650 738 l 654 738 l 864 0 l 1010 0 l 1274 979 l 1116 979 l 934 212 l 930 212 l 724 979 l 580 979 l 373 212 l 370 212 l 188 979 l 30 979 z "},"Ŵ":{"ha":1304,"x_min":0,"x_max":0,"o":"m 440 1058 l 555 1058 l 651 1194 l 749 1058 l 864 1058 l 714 1264 l 589 1264 z m 294 0 l 439 0 l 650 738 l 654 738 l 864 0 l 1010 0 l 1274 979 l 1116 979 l 934 212 l 930 212 l 724 979 l 580 979 l 373 212 l 370 212 l 188 979 l 30 979 z "},"X":{"ha":907,"x_min":0,"x_max":0,"o":"m 30 0 l 198 0 l 444 374 l 449 374 l 693 0 l 871 0 l 545 487 l 545 490 l 877 979 l 705 979 l 463 600 l 456 600 l 214 979 l 33 979 l 355 494 l 355 492 z "},"Ẋ":{"ha":907,"x_min":0,"x_max":0,"o":"m 458 1083 b 540 1164 504 1083 540 1120 b 458 1243 540 1207 504 1243 b 378 1164 414 1243 378 1207 b 458 1083 378 1120 414 1083 z m 30 0 l 198 0 l 444 374 l 449 374 l 693 0 l 871 0 l 545 487 l 545 490 l 877 979 l 705 979 l 463 600 l 456 600 l 214 979 l 33 979 l 355 494 l 355 492 z "},"Ẍ":{"ha":907,"x_min":0,"x_max":0,"o":"m 330 1083 b 408 1160 374 1083 408 1117 b 330 1236 408 1202 374 1236 b 252 1160 287 1236 252 1202 b 330 1083 252 1117 287 1083 z m 588 1083 b 665 1160 632 1083 665 1117 b 588 1236 665 1202 632 1236 b 511 1160 545 1236 511 1202 b 588 1083 511 1117 545 1083 z m 30 0 l 198 0 l 444 374 l 449 374 l 693 0 l 871 0 l 545 487 l 545 490 l 877 979 l 705 979 l 463 600 l 456 600 l 214 979 l 33 979 l 355 494 l 355 492 z "},"Y":{"ha":877,"x_min":0,"x_max":0,"o":"m 362 0 l 514 0 l 514 401 l 859 979 l 690 979 l 441 547 l 436 547 l 186 979 l 18 979 l 362 401 z "},"Ỳ":{"ha":877,"x_min":0,"x_max":0,"o":"m 404 1058 l 509 1058 l 395 1264 l 255 1264 z m 362 0 l 514 0 l 514 401 l 859 979 l 690 979 l 441 547 l 436 547 l 186 979 l 18 979 l 362 401 z "},"Ý":{"ha":877,"x_min":0,"x_max":0,"o":"m 478 1058 l 627 1264 l 487 1264 l 374 1058 z m 362 0 l 514 0 l 514 401 l 859 979 l 690 979 l 441 547 l 436 547 l 186 979 l 18 979 l 362 401 z "},"Ẏ":{"ha":877,"x_min":0,"x_max":0,"o":"m 438 1083 b 519 1164 484 1083 519 1120 b 438 1243 519 1207 484 1243 b 357 1164 393 1243 357 1207 b 438 1083 357 1120 393 1083 z m 362 0 l 514 0 l 514 401 l 859 979 l 690 979 l 441 547 l 436 547 l 186 979 l 18 979 l 362 401 z "},"Ỵ":{"ha":877,"x_min":0,"x_max":0,"o":"m 362 0 l 514 0 l 514 401 l 859 979 l 690 979 l 441 547 l 436 547 l 186 979 l 18 979 l 362 401 z m 438 -279 b 524 -195 486 -279 524 -241 b 438 -110 524 -148 486 -110 b 353 -195 391 -110 353 -148 b 438 -279 353 -241 391 -279 z "},"Ÿ":{"ha":877,"x_min":0,"x_max":0,"o":"m 310 1083 b 387 1160 353 1083 387 1117 b 310 1236 387 1202 353 1236 b 232 1160 267 1236 232 1202 b 310 1083 232 1117 267 1083 z m 567 1083 b 645 1160 611 1083 645 1117 b 567 1236 645 1202 611 1236 b 490 1160 524 1236 490 1202 b 567 1083 490 1117 524 1083 z m 362 0 l 514 0 l 514 401 l 859 979 l 690 979 l 441 547 l 436 547 l 186 979 l 18 979 l 362 401 z "},"Ỹ":{"ha":877,"x_min":0,"x_max":0,"o":"m 533 1057 b 645 1234 604 1057 645 1116 l 645 1242 l 555 1242 l 555 1238 b 517 1160 555 1185 543 1160 b 458 1190 498 1160 479 1173 l 433 1209 b 343 1243 408 1229 380 1243 b 231 1066 274 1243 231 1185 l 231 1058 l 321 1058 l 321 1063 b 359 1141 321 1116 333 1141 b 416 1110 377 1141 395 1127 l 441 1090 b 533 1057 466 1072 496 1057 z m 362 0 l 514 0 l 514 401 l 859 979 l 690 979 l 441 547 l 436 547 l 186 979 l 18 979 l 362 401 z "},"Ŷ":{"ha":877,"x_min":0,"x_max":0,"o":"m 227 1058 l 341 1058 l 437 1194 l 536 1058 l 650 1058 l 500 1264 l 376 1264 z m 362 0 l 514 0 l 514 401 l 859 979 l 690 979 l 441 547 l 436 547 l 186 979 l 18 979 l 362 401 z "},"Ȳ":{"ha":877,"x_min":0,"x_max":0,"o":"m 248 1110 l 629 1110 l 629 1208 l 248 1208 z m 362 0 l 514 0 l 514 401 l 859 979 l 690 979 l 441 547 l 436 547 l 186 979 l 18 979 l 362 401 z "},"Ỷ":{"ha":877,"x_min":0,"x_max":0,"o":"m 385 1058 l 477 1058 b 545 1165 522 1088 545 1123 b 397 1278 545 1234 478 1278 b 319 1265 366 1278 336 1272 l 319 1186 b 364 1190 330 1187 344 1190 b 446 1141 412 1190 446 1172 b 385 1060 446 1116 423 1088 z m 362 0 l 514 0 l 514 401 l 859 979 l 690 979 l 441 547 l 436 547 l 186 979 l 18 979 l 362 401 z "},"Z":{"ha":863,"x_min":0,"x_max":0,"o":"m 64 0 l 800 0 l 800 131 l 252 131 l 252 134 l 787 875 l 787 979 l 81 979 l 81 848 l 602 848 l 602 844 l 64 104 z "},"Ź":{"ha":863,"x_min":0,"x_max":0,"o":"m 472 1058 l 621 1264 l 481 1264 l 368 1058 z m 64 0 l 800 0 l 800 131 l 252 131 l 252 134 l 787 875 l 787 979 l 81 979 l 81 848 l 602 848 l 602 844 l 64 104 z "},"Ž":{"ha":863,"x_min":0,"x_max":0,"o":"m 644 1264 l 530 1264 l 433 1127 l 335 1264 l 220 1264 l 370 1058 l 495 1058 z m 64 0 l 800 0 l 800 131 l 252 131 l 252 134 l 787 875 l 787 979 l 81 979 l 81 848 l 602 848 l 602 844 l 64 104 z "},"Ẑ":{"ha":863,"x_min":0,"x_max":0,"o":"m 220 1058 l 335 1058 l 431 1194 l 530 1058 l 644 1058 l 494 1264 l 370 1264 z m 64 0 l 800 0 l 800 131 l 252 131 l 252 134 l 787 875 l 787 979 l 81 979 l 81 848 l 602 848 l 602 844 l 64 104 z "},"Ẕ":{"ha":863,"x_min":0,"x_max":0,"o":"m 64 0 l 800 0 l 800 131 l 252 131 l 252 134 l 787 875 l 787 979 l 81 979 l 81 848 l 602 848 l 602 844 l 64 104 z m 234 -237 l 630 -237 l 630 -138 l 234 -138 z "},"Ẓ":{"ha":863,"x_min":0,"x_max":0,"o":"m 64 0 l 800 0 l 800 131 l 252 131 l 252 134 l 787 875 l 787 979 l 81 979 l 81 848 l 602 848 l 602 844 l 64 104 z m 432 -279 b 517 -195 480 -279 517 -241 b 432 -110 517 -148 480 -110 b 347 -195 385 -110 347 -148 b 432 -279 347 -241 385 -279 z "},"Ż":{"ha":863,"x_min":0,"x_max":0,"o":"m 431 1083 b 513 1164 477 1083 513 1120 b 431 1243 513 1207 477 1243 b 351 1164 387 1243 351 1207 b 431 1083 351 1120 387 1083 z m 64 0 l 800 0 l 800 131 l 252 131 l 252 134 l 787 875 l 787 979 l 81 979 l 81 848 l 602 848 l 602 844 l 64 104 z "},"Æ":{"ha":1329,"x_min":0,"x_max":0,"o":"m 9 0 l 163 0 l 301 290 l 653 290 l 653 0 l 1263 0 l 1263 131 l 799 131 l 799 430 l 1238 430 l 1238 556 l 799 556 l 799 848 l 1263 848 l 1263 979 l 476 979 z m 570 857 l 653 857 l 653 412 l 359 412 z "},"Ǣ":{"ha":1329,"x_min":0,"x_max":0,"o":"m 665 1110 l 1047 1110 l 1047 1208 l 665 1208 z m 9 0 l 163 0 l 301 290 l 653 290 l 653 0 l 1263 0 l 1263 131 l 799 131 l 799 430 l 1238 430 l 1238 556 l 799 556 l 799 848 l 1263 848 l 1263 979 l 476 979 z m 570 857 l 653 857 l 653 412 l 359 412 z "},"Ǽ":{"ha":1329,"x_min":0,"x_max":0,"o":"m 897 1058 l 1045 1264 l 905 1264 l 791 1058 z m 9 0 l 163 0 l 301 290 l 653 290 l 653 0 l 1263 0 l 1263 131 l 799 131 l 799 430 l 1238 430 l 1238 556 l 799 556 l 799 848 l 1263 848 l 1263 979 l 476 979 z m 570 857 l 653 857 l 653 412 l 359 412 z "},"Œ":{"ha":1501,"x_min":0,"x_max":0,"o":"m 507 -16 b 831 157 649 -16 770 48 l 833 157 l 833 0 l 1436 0 l 1436 131 l 977 131 l 977 435 l 1410 435 l 1410 562 l 977 562 l 977 848 l 1436 848 l 1436 979 l 833 979 l 833 824 l 831 824 b 507 995 770 932 651 995 b 55 490 232 995 55 798 l 55 488 b 507 -16 55 181 232 -16 z m 517 118 b 210 488 329 118 210 262 l 210 490 b 517 861 210 717 329 861 b 823 490 704 861 823 716 l 823 488 b 517 118 823 262 705 118 z "},"Þ":{"ha":859,"x_min":0,"x_max":0,"o":"m 106 0 l 258 0 l 258 221 l 491 221 b 795 513 655 221 795 330 l 795 515 b 496 806 795 699 657 806 l 258 806 l 258 979 l 106 979 z m 453 678 b 640 515 562 678 640 624 l 640 513 b 452 349 640 404 562 349 l 258 349 l 258 678 z "},"Ǳ":{"ha":1817,"x_min":0,"x_max":0,"o":"m 90 0 l 435 0 b 899 491 727 0 899 182 l 899 492 b 435 979 899 800 726 979 l 90 979 z m 1017 0 l 1752 0 l 1752 131 l 1205 131 l 1205 134 l 1740 875 l 1740 979 l 1034 979 l 1034 848 l 1555 848 l 1555 844 l 1017 104 z m 242 132 l 242 848 l 421 848 b 743 491 627 848 743 721 l 743 490 b 421 132 743 258 629 132 z "},"Ǆ":{"ha":1817,"x_min":0,"x_max":0,"o":"m 1597 1264 l 1482 1264 l 1386 1127 l 1289 1264 l 1174 1264 l 1323 1058 l 1448 1058 z m 90 0 l 435 0 b 899 491 727 0 899 182 l 899 492 b 435 979 899 800 726 979 l 90 979 z m 1017 0 l 1752 0 l 1752 131 l 1205 131 l 1205 134 l 1740 875 l 1740 979 l 1034 979 l 1034 848 l 1555 848 l 1555 844 l 1017 104 z m 242 132 l 242 848 l 421 848 b 743 491 627 848 743 721 l 743 490 b 421 132 743 258 629 132 z "},"Ǉ":{"ha":1457,"x_min":0,"x_max":0,"o":"m 90 0 l 698 0 l 698 131 l 242 131 l 242 979 l 90 979 z m 1059 -16 b 1364 290 1251 -16 1364 97 l 1364 979 l 1212 979 l 1212 291 b 1058 119 1212 179 1158 119 b 913 252 966 119 920 178 l 913 258 l 764 258 l 764 250 b 1059 -16 772 94 878 -16 z "},"Ǌ":{"ha":1697,"x_min":0,"x_max":0,"o":"m 90 0 l 241 0 l 241 725 l 245 725 l 749 0 l 888 0 l 888 979 l 738 979 l 738 255 l 734 255 l 231 979 l 90 979 z m 1300 -16 b 1605 290 1492 -16 1605 97 l 1605 979 l 1453 979 l 1453 291 b 1299 119 1453 179 1399 119 b 1155 252 1208 119 1161 178 l 1154 258 l 1004 258 l 1005 250 b 1300 -16 1013 94 1119 -16 z "},"Α":{"ha":911,"x_min":0,"x_max":0,"o":"m 18 0 l 177 0 l 267 264 l 644 264 l 734 0 l 893 0 l 538 979 l 374 979 z m 454 817 l 457 817 l 603 387 l 308 387 z "},"Β":{"ha":857,"x_min":0,"x_max":0,"o":"m 90 0 l 483 0 b 817 276 691 0 817 104 l 817 277 b 587 516 817 406 726 502 l 587 519 b 768 732 690 534 768 629 l 768 734 b 481 979 768 882 654 979 l 90 979 z m 444 854 b 617 715 554 854 617 805 l 617 714 b 410 562 617 616 545 562 l 242 562 l 242 854 z m 441 444 b 661 285 587 444 661 390 l 661 283 b 452 124 661 179 588 124 l 242 124 l 242 444 z "},"Γ":{"ha":732,"x_min":0,"x_max":0,"o":"m 242 0 l 242 848 l 688 848 l 688 979 l 90 979 l 90 0 z "},"Δ":{"ha":904,"x_min":0,"x_max":0,"o":"m 37 0 l 867 0 l 867 97 l 534 979 l 370 979 l 37 97 z m 201 131 l 201 136 l 448 823 l 452 823 l 697 136 l 697 131 z "},"∆":{"ha":904,"x_min":0,"x_max":0,"o":"m 37 0 l 867 0 l 867 97 l 534 979 l 370 979 l 37 97 z m 201 131 l 201 136 l 448 823 l 452 823 l 697 136 l 697 131 z "},"Ε":{"ha":777,"x_min":0,"x_max":0,"o":"m 90 0 l 711 0 l 711 131 l 242 131 l 242 435 l 686 435 l 686 562 l 242 562 l 242 848 l 711 848 l 711 979 l 90 979 z "},"Ζ":{"ha":863,"x_min":0,"x_max":0,"o":"m 64 0 l 800 0 l 800 131 l 252 131 l 252 134 l 787 875 l 787 979 l 81 979 l 81 848 l 602 848 l 602 844 l 64 104 z "},"Η":{"ha":986,"x_min":0,"x_max":0,"o":"m 90 0 l 242 0 l 242 433 l 745 433 l 745 0 l 897 0 l 897 979 l 745 979 l 745 565 l 242 565 l 242 979 l 90 979 z "},"Θ":{"ha":1037,"x_min":0,"x_max":0,"o":"m 519 -16 b 983 489 805 -16 983 178 l 983 490 b 519 995 983 800 804 995 b 55 490 234 995 55 801 l 55 489 b 519 -16 55 178 233 -16 z m 519 118 b 203 489 326 118 203 261 l 203 490 b 519 861 203 718 326 861 b 834 490 712 861 834 718 l 834 489 b 519 118 834 263 714 118 z m 335 427 l 702 427 l 702 553 l 335 553 z "},"Ι":{"ha":332,"x_min":0,"x_max":0,"o":"m 90 0 l 242 0 l 242 979 l 90 979 z "},"Κ":{"ha":861,"x_min":0,"x_max":0,"o":"m 90 0 l 242 0 l 242 327 l 342 442 l 665 0 l 853 0 l 450 546 l 821 979 l 641 979 l 246 510 l 242 510 l 242 979 l 90 979 z "},"Λ":{"ha":881,"x_min":0,"x_max":0,"o":"m 18 0 l 176 0 l 437 808 l 441 808 l 703 0 l 863 0 l 522 979 l 359 979 z "},"Μ":{"ha":1169,"x_min":0,"x_max":0,"o":"m 90 0 l 229 0 l 229 722 l 233 722 l 528 0 l 641 0 l 936 722 l 941 722 l 941 0 l 1079 0 l 1079 979 l 904 979 l 587 197 l 583 197 l 266 979 l 90 979 z "},"Ν":{"ha":979,"x_min":0,"x_max":0,"o":"m 90 0 l 241 0 l 241 725 l 245 725 l 749 0 l 888 0 l 888 979 l 738 979 l 738 255 l 734 255 l 231 979 l 90 979 z "},"Ξ":{"ha":857,"x_min":0,"x_max":0,"o":"m 66 848 l 791 848 l 791 979 l 66 979 z m 125 435 l 732 435 l 732 562 l 125 562 z m 66 0 l 791 0 l 791 131 l 66 131 z "},"Ο":{"ha":1026,"x_min":0,"x_max":0,"o":"m 513 -16 b 972 489 796 -16 972 178 l 972 490 b 513 995 972 800 795 995 b 55 490 232 995 55 801 l 55 489 b 513 -16 55 178 231 -16 z m 513 118 b 210 489 328 118 210 261 l 210 490 b 513 861 210 718 328 861 b 817 490 699 861 817 718 l 817 489 b 513 118 817 263 701 118 z "},"Π":{"ha":977,"x_min":0,"x_max":0,"o":"m 886 0 l 886 979 l 90 979 l 90 0 l 242 0 l 242 848 l 734 848 l 734 0 z "},"Ρ":{"ha":822,"x_min":0,"x_max":0,"o":"m 90 0 l 242 0 l 242 334 l 454 334 b 779 656 646 334 779 465 l 779 658 b 454 979 779 850 646 979 l 90 979 z m 416 850 b 625 657 549 850 625 779 l 625 656 b 416 462 625 533 549 462 l 242 462 l 242 850 z "},"Ʃ":{"ha":844,"x_min":0,"x_max":0,"o":"m 64 0 l 780 0 l 780 131 l 249 131 l 249 136 l 503 497 l 503 502 l 266 843 l 266 848 l 762 848 l 762 979 l 77 979 l 77 865 l 339 491 l 64 100 z "},"Σ":{"ha":844,"x_min":0,"x_max":0,"o":"m 64 0 l 780 0 l 780 131 l 249 131 l 249 136 l 503 497 l 503 502 l 266 843 l 266 848 l 762 848 l 762 979 l 77 979 l 77 865 l 339 491 l 64 100 z "},"Τ":{"ha":817,"x_min":0,"x_max":0,"o":"m 333 0 l 485 0 l 485 848 l 784 848 l 784 979 l 33 979 l 33 848 l 333 848 z "},"Υ":{"ha":877,"x_min":0,"x_max":0,"o":"m 362 0 l 514 0 l 514 401 l 859 979 l 690 979 l 441 547 l 436 547 l 186 979 l 18 979 l 362 401 z "},"Φ":{"ha":1143,"x_min":0,"x_max":0,"o":"m 498 -51 l 644 -51 l 644 48 b 1096 486 918 60 1095 231 l 1096 486 b 644 924 1096 740 918 911 l 644 1025 l 498 1025 l 498 924 b 47 486 225 911 47 740 l 47 486 b 498 48 47 232 225 60 z m 498 176 b 199 486 311 186 199 301 l 199 486 b 498 795 199 671 311 787 z m 644 176 l 644 795 b 943 486 831 787 943 671 l 943 486 b 644 176 943 301 831 186 z "},"Χ":{"ha":907,"x_min":0,"x_max":0,"o":"m 30 0 l 198 0 l 444 374 l 449 374 l 693 0 l 871 0 l 545 487 l 545 490 l 877 979 l 705 979 l 463 600 l 456 600 l 214 979 l 33 979 l 355 494 l 355 492 z "},"Ψ":{"ha":1096,"x_min":0,"x_max":0,"o":"m 474 0 l 622 0 l 622 222 b 1019 610 863 224 1019 378 l 1019 979 l 871 979 l 871 612 b 622 355 871 452 784 361 l 622 979 l 474 979 l 474 355 b 224 612 313 361 224 452 l 224 979 l 77 979 l 77 610 b 474 222 77 378 233 224 z "},"Ω":{"ha":1046,"x_min":0,"x_max":0,"o":"m 66 0 l 435 0 l 435 159 b 221 536 288 258 221 373 l 221 537 b 523 861 221 735 336 861 b 825 537 709 861 825 735 l 825 536 b 610 159 825 373 758 258 l 610 0 l 980 0 l 980 131 l 774 131 l 774 136 b 980 543 904 222 980 370 l 980 545 b 523 995 980 811 795 995 b 66 545 250 995 66 811 l 66 543 b 272 136 66 370 141 222 l 272 131 l 66 131 z "},"Ω":{"ha":1046,"x_min":0,"x_max":0,"o":"m 66 0 l 435 0 l 435 159 b 221 536 288 258 221 373 l 221 537 b 523 861 221 735 336 861 b 825 537 709 861 825 735 l 825 536 b 610 159 825 373 758 258 l 610 0 l 980 0 l 980 131 l 774 131 l 774 136 b 980 543 904 222 980 370 l 980 545 b 523 995 980 811 795 995 b 66 545 250 995 66 811 l 66 543 b 272 136 66 370 141 222 l 272 131 l 66 131 z "},"Ά":{"ha":920,"x_min":0,"x_max":0,"o":"m 189 765 l 281 979 l 140 979 l 81 765 z m 27 0 l 186 0 l 277 264 l 654 264 l 743 0 l 903 0 l 547 979 l 383 979 z m 464 817 l 467 817 l 612 387 l 318 387 z "},"Έ":{"ha":985,"x_min":0,"x_max":0,"o":"m 125 765 l 216 979 l 77 979 l 18 765 z m 298 0 l 920 0 l 920 131 l 450 131 l 450 435 l 895 435 l 895 562 l 450 562 l 450 848 l 920 848 l 920 979 l 298 979 z "},"Ή":{"ha":1194,"x_min":0,"x_max":0,"o":"m 125 765 l 216 979 l 77 979 l 18 765 z m 298 0 l 450 0 l 450 433 l 952 433 l 952 0 l 1104 0 l 1104 979 l 952 979 l 952 565 l 450 565 l 450 979 l 298 979 z "},"Ί":{"ha":540,"x_min":0,"x_max":0,"o":"m 125 765 l 216 979 l 77 979 l 18 765 z m 298 0 l 450 0 l 450 979 l 298 979 z "},"Ϊ":{"ha":332,"x_min":0,"x_max":0,"o":"m 37 1083 b 115 1160 81 1083 115 1117 b 37 1236 115 1202 81 1236 b -41 1160 -6 1236 -41 1202 b 37 1083 -41 1117 -6 1083 z m 295 1083 b 372 1160 339 1083 372 1117 b 295 1236 372 1202 339 1236 b 218 1160 252 1236 218 1202 b 295 1083 218 1117 252 1083 z m 90 0 l 242 0 l 242 979 l 90 979 z "},"Ό":{"ha":1137,"x_min":0,"x_max":0,"o":"m 625 -16 b 1082 489 907 -16 1082 178 l 1082 490 b 625 995 1082 800 906 995 b 165 490 342 995 165 801 l 165 489 b 625 -16 165 178 342 -16 z m 125 765 l 216 979 l 77 979 l 18 765 z m 625 118 b 321 489 438 118 321 261 l 321 490 b 625 861 321 718 439 861 b 928 490 810 861 928 718 l 928 489 b 625 118 928 263 812 118 z "},"Ύ":{"ha":1116,"x_min":0,"x_max":0,"o":"m 125 765 l 216 979 l 77 979 l 18 765 z m 602 0 l 753 0 l 753 401 l 1098 979 l 930 979 l 680 547 l 675 547 l 425 979 l 256 979 l 602 401 z "},"Ϋ":{"ha":877,"x_min":0,"x_max":0,"o":"m 310 1083 b 387 1160 353 1083 387 1117 b 310 1236 387 1202 353 1236 b 232 1160 267 1236 232 1202 b 310 1083 232 1117 267 1083 z m 567 1083 b 645 1160 611 1083 645 1117 b 567 1236 645 1202 611 1236 b 490 1160 524 1236 490 1202 b 567 1083 490 1117 524 1083 z m 362 0 l 514 0 l 514 401 l 859 979 l 690 979 l 441 547 l 436 547 l 186 979 l 18 979 l 362 401 z "},"Ώ":{"ha":1143,"x_min":0,"x_max":0,"o":"m 163 0 l 532 0 l 532 159 b 318 536 385 258 318 373 l 318 537 b 621 861 318 735 433 861 b 922 537 807 861 922 735 l 922 536 b 708 159 922 373 855 258 l 708 0 l 1077 0 l 1077 131 l 871 131 l 871 136 b 1077 543 1002 222 1077 370 l 1077 545 b 621 995 1077 811 893 995 b 163 545 348 995 163 811 l 163 543 b 370 136 163 370 239 222 l 370 131 l 163 131 z m 125 765 l 216 979 l 77 979 l 18 765 z "},"Ϝ":{"ha":739,"x_min":0,"x_max":0,"o":"m 249 0 l 249 416 l 695 416 l 695 547 l 249 547 l 249 848 l 695 848 l 695 979 l 97 979 l 97 0 z "},"∇":{"ha":904,"x_min":0,"x_max":0,"o":"m 867 979 l 37 979 l 37 882 l 370 0 l 534 0 l 867 882 z m 703 848 l 703 843 l 456 156 l 452 156 l 207 843 l 207 848 z "},"А":{"ha":923,"x_min":0,"x_max":0,"o":"m 24 0 l 183 0 l 273 264 l 650 264 l 740 0 l 899 0 l 544 979 l 380 979 z m 460 817 l 463 817 l 609 387 l 314 387 z "},"Ӑ":{"ha":923,"x_min":0,"x_max":0,"o":"m 466 1055 b 685 1249 602 1055 685 1135 l 685 1254 l 570 1254 l 570 1249 b 466 1146 570 1194 532 1146 b 362 1249 399 1146 362 1194 l 362 1254 l 248 1254 l 248 1249 b 466 1055 248 1135 330 1055 z m 24 0 l 183 0 l 273 264 l 650 264 l 740 0 l 899 0 l 544 979 l 380 979 z m 460 817 l 463 817 l 609 387 l 314 387 z "},"Ӓ":{"ha":923,"x_min":0,"x_max":0,"o":"m 333 1083 b 410 1160 376 1083 410 1117 b 333 1236 410 1202 376 1236 b 256 1160 290 1236 256 1202 b 333 1083 256 1117 290 1083 z m 591 1083 b 668 1160 635 1083 668 1117 b 591 1236 668 1202 635 1236 b 513 1160 548 1236 513 1202 b 591 1083 513 1117 548 1083 z m 24 0 l 183 0 l 273 264 l 650 264 l 740 0 l 899 0 l 544 979 l 380 979 z m 460 817 l 463 817 l 609 387 l 314 387 z "},"Б":{"ha":865,"x_min":0,"x_max":0,"o":"m 97 0 l 469 0 b 791 298 659 0 791 121 l 791 300 b 466 597 791 475 657 597 l 249 597 l 249 848 l 696 848 l 696 979 l 97 979 z m 249 129 l 249 470 l 430 470 b 637 300 561 470 637 409 l 637 298 b 431 129 637 190 562 129 z "},"В":{"ha":869,"x_min":0,"x_max":0,"o":"m 96 0 l 489 0 b 823 276 697 0 823 104 l 823 277 b 593 516 823 406 732 502 l 593 519 b 775 732 696 534 775 629 l 775 734 b 487 979 775 882 661 979 l 96 979 z m 450 854 b 623 715 560 854 623 805 l 623 714 b 417 562 623 616 551 562 l 248 562 l 248 854 z m 448 444 b 667 285 593 444 667 390 l 667 283 b 458 124 667 179 594 124 l 248 124 l 248 444 z "},"Г":{"ha":739,"x_min":0,"x_max":0,"o":"m 249 0 l 249 848 l 695 848 l 695 979 l 97 979 l 97 0 z "},"Ѓ":{"ha":739,"x_min":0,"x_max":0,"o":"m 427 1058 l 576 1264 l 435 1264 l 322 1058 z m 249 0 l 249 848 l 695 848 l 695 979 l 97 979 l 97 0 z "},"Ґ":{"ha":739,"x_min":0,"x_max":0,"o":"m 249 0 l 249 848 l 422 848 l 695 848 l 695 1172 l 557 1172 l 557 979 l 97 979 l 97 0 z "},"Ӷ":{"ha":739,"x_min":0,"x_max":0,"o":"m 232 -193 l 371 -193 l 371 131 l 249 131 l 249 848 l 695 848 l 695 979 l 97 979 l 97 0 l 232 0 z "},"Ғ":{"ha":771,"x_min":0,"x_max":0,"o":"m 281 0 l 281 425 l 484 425 l 484 537 l 281 537 l 281 848 l 728 848 l 728 979 l 129 979 l 129 537 l 32 537 l 32 425 l 129 425 l 129 0 z "},"Ӻ":{"ha":771,"x_min":0,"x_max":0,"o":"m 281 0 l 281 425 l 484 425 l 484 537 l 281 537 l 281 848 l 728 848 l 728 979 l 129 979 l 129 537 l 32 537 l 32 425 l 129 425 l 129 28 l 128 28 l 128 -29 b 38 -123 128 -92 99 -123 b -12 -120 20 -123 1 -121 l -12 -233 b 65 -238 6 -236 35 -238 b 280 -30 209 -238 280 -170 l 280 0 z "},"Д":{"ha":1023,"x_min":0,"x_max":0,"o":"m 159 -193 l 159 0 l 848 0 l 848 -193 l 987 -193 l 987 131 l 865 131 l 865 979 l 228 979 l 192 385 b 90 131 184 256 160 172 l 19 131 l 19 -193 z m 333 378 l 363 848 l 713 848 l 713 131 l 266 131 l 266 136 b 333 378 313 192 326 267 z "},"Е":{"ha":790,"x_min":0,"x_max":0,"o":"m 96 0 l 718 0 l 718 131 l 248 131 l 248 435 l 692 435 l 692 562 l 248 562 l 248 848 l 718 848 l 718 979 l 96 979 z "},"Ё":{"ha":790,"x_min":0,"x_max":0,"o":"m 278 1083 b 355 1160 321 1083 355 1117 b 278 1236 355 1202 321 1236 b 201 1160 235 1236 201 1202 b 278 1083 201 1117 235 1083 z m 536 1083 b 614 1160 580 1083 614 1117 b 536 1236 614 1202 580 1236 b 458 1160 493 1236 458 1202 b 536 1083 458 1117 493 1083 z m 96 0 l 718 0 l 718 131 l 248 131 l 248 435 l 692 435 l 692 562 l 248 562 l 248 848 l 718 848 l 718 979 l 96 979 z "},"Ӗ":{"ha":790,"x_min":0,"x_max":0,"o":"m 411 1055 b 630 1249 547 1055 630 1135 l 630 1254 l 515 1254 l 515 1249 b 412 1146 515 1194 477 1146 b 307 1249 344 1146 307 1194 l 307 1254 l 193 1254 l 193 1249 b 411 1055 193 1135 276 1055 z m 96 0 l 718 0 l 718 131 l 248 131 l 248 435 l 692 435 l 692 562 l 248 562 l 248 848 l 718 848 l 718 979 l 96 979 z "},"Ѐ":{"ha":790,"x_min":0,"x_max":0,"o":"m 372 1058 l 477 1058 l 363 1264 l 223 1264 z m 96 0 l 718 0 l 718 131 l 248 131 l 248 435 l 692 435 l 692 562 l 248 562 l 248 848 l 718 848 l 718 979 l 96 979 z "},"Ж":{"ha":1352,"x_min":0,"x_max":0,"o":"m 750 558 l 750 979 l 601 979 l 601 558 l 570 558 l 229 979 l 50 979 l 446 511 l 12 0 l 207 0 l 570 439 l 601 439 l 601 0 l 750 0 l 750 439 l 781 439 l 1144 0 l 1339 0 l 905 512 l 1300 979 l 1121 979 l 781 558 z "},"Ӂ":{"ha":1352,"x_min":0,"x_max":0,"o":"m 680 1055 b 899 1249 817 1055 899 1135 l 899 1254 l 785 1254 l 785 1249 b 681 1146 785 1194 747 1146 b 577 1249 613 1146 577 1194 l 577 1254 l 463 1254 l 463 1249 b 680 1055 463 1135 545 1055 z m 750 558 l 750 979 l 601 979 l 601 558 l 570 558 l 229 979 l 50 979 l 446 511 l 12 0 l 207 0 l 570 439 l 601 439 l 601 0 l 750 0 l 750 439 l 781 439 l 1144 0 l 1339 0 l 905 512 l 1300 979 l 1121 979 l 781 558 z "},"Ӝ":{"ha":1352,"x_min":0,"x_max":0,"o":"m 548 1083 b 625 1160 591 1083 625 1117 b 548 1236 625 1202 591 1236 b 470 1160 505 1236 470 1202 b 548 1083 470 1117 505 1083 z m 806 1083 b 883 1160 849 1083 883 1117 b 806 1236 883 1202 849 1236 b 728 1160 762 1236 728 1202 b 806 1083 728 1117 762 1083 z m 750 558 l 750 979 l 601 979 l 601 558 l 570 558 l 229 979 l 50 979 l 446 511 l 12 0 l 207 0 l 570 439 l 601 439 l 601 0 l 750 0 l 750 439 l 781 439 l 1144 0 l 1339 0 l 905 512 l 1300 979 l 1121 979 l 781 558 z "},"Җ":{"ha":1405,"x_min":0,"x_max":0,"o":"m 750 558 l 750 979 l 601 979 l 601 558 l 570 558 l 229 979 l 50 979 l 446 511 l 12 0 l 207 0 l 570 439 l 601 439 l 601 0 l 750 0 l 750 439 l 781 439 l 1144 0 l 1230 0 l 1230 -193 l 1369 -193 l 1369 131 l 1228 131 l 905 512 l 1300 979 l 1121 979 l 781 558 z "},"З":{"ha":836,"x_min":0,"x_max":0,"o":"m 278 436 l 417 436 b 630 274 551 436 630 376 l 630 273 b 421 117 630 178 547 117 b 199 258 292 117 210 168 l 199 263 l 50 263 l 51 255 b 421 -16 61 94 205 -16 b 785 266 631 -16 785 104 l 785 267 b 574 508 785 399 705 492 l 574 513 b 755 738 682 538 755 629 l 755 739 b 425 995 755 890 621 995 b 76 728 220 995 86 894 l 75 719 l 221 719 l 222 728 b 420 862 233 812 304 862 b 605 723 537 862 605 810 l 605 722 b 413 564 605 628 530 564 l 278 564 z "},"Ӟ":{"ha":836,"x_min":0,"x_max":0,"o":"m 292 1083 b 370 1160 336 1083 370 1117 b 292 1236 370 1202 336 1236 b 215 1160 249 1236 215 1202 b 292 1083 215 1117 249 1083 z m 550 1083 b 627 1160 594 1083 627 1117 b 550 1236 627 1202 594 1236 b 473 1160 507 1236 473 1202 b 550 1083 473 1117 507 1083 z m 278 436 l 417 436 b 630 274 551 436 630 376 l 630 273 b 421 117 630 178 547 117 b 199 258 292 117 210 168 l 199 263 l 50 263 l 51 255 b 421 -16 61 94 205 -16 b 785 266 631 -16 785 104 l 785 267 b 574 508 785 399 705 492 l 574 513 b 755 738 682 538 755 629 l 755 739 b 425 995 755 890 621 995 b 76 728 220 995 86 894 l 75 719 l 221 719 l 222 728 b 420 862 233 812 304 862 b 605 723 537 862 605 810 l 605 722 b 413 564 605 628 530 564 l 278 564 z "},"Ҙ":{"ha":836,"x_min":0,"x_max":0,"o":"m 278 436 l 417 436 b 630 274 551 436 630 376 l 630 273 b 421 117 630 178 547 117 b 199 258 292 117 210 168 l 199 263 l 50 263 l 51 255 b 348 -12 60 113 173 10 l 348 -194 l 489 -194 l 489 -12 b 785 266 663 11 785 122 l 785 267 b 574 508 785 399 705 492 l 574 513 b 755 738 682 538 755 629 l 755 739 b 425 995 755 890 621 995 b 76 728 220 995 86 894 l 75 719 l 221 719 l 222 728 b 420 862 233 812 304 862 b 605 723 537 862 605 810 l 605 722 b 413 564 605 628 530 564 l 278 564 z "},"Ԑ":{"ha":836,"x_min":0,"x_max":0,"o":"m 557 436 l 557 564 l 422 564 b 230 722 306 564 230 628 l 230 723 b 416 862 230 810 298 862 b 613 728 531 862 602 812 l 614 719 l 760 719 l 760 728 b 411 995 749 894 616 995 b 80 739 214 995 80 890 l 80 738 b 261 513 80 629 153 538 l 261 508 b 50 267 130 492 50 399 l 50 266 b 414 -16 50 104 205 -16 b 785 255 631 -16 774 94 l 785 263 l 637 263 l 636 258 b 414 117 625 168 543 117 b 205 273 288 117 205 178 l 205 274 b 418 436 205 376 283 436 z "},"И":{"ha":992,"x_min":0,"x_max":0,"o":"m 97 0 l 237 0 l 741 728 l 745 728 l 745 0 l 895 0 l 895 979 l 755 979 l 251 250 l 248 250 l 248 979 l 97 979 z "},"Й":{"ha":992,"x_min":0,"x_max":0,"o":"m 500 1055 b 719 1249 636 1055 719 1135 l 719 1254 l 605 1254 l 605 1249 b 500 1146 605 1194 566 1146 b 397 1249 433 1146 397 1194 l 397 1254 l 282 1254 l 282 1249 b 500 1055 282 1135 365 1055 z m 97 0 l 237 0 l 741 728 l 745 728 l 745 0 l 895 0 l 895 979 l 755 979 l 251 250 l 248 250 l 248 979 l 97 979 z "},"Ѝ":{"ha":992,"x_min":0,"x_max":0,"o":"m 461 1058 l 566 1058 l 453 1264 l 313 1264 z m 97 0 l 237 0 l 741 728 l 745 728 l 745 0 l 895 0 l 895 979 l 755 979 l 251 250 l 248 250 l 248 979 l 97 979 z "},"Ӣ":{"ha":992,"x_min":0,"x_max":0,"o":"m 305 1110 l 687 1110 l 687 1208 l 305 1208 z m 97 0 l 237 0 l 741 728 l 745 728 l 745 0 l 895 0 l 895 979 l 755 979 l 251 250 l 248 250 l 248 979 l 97 979 z "},"Ӥ":{"ha":992,"x_min":0,"x_max":0,"o":"m 368 1083 b 445 1160 411 1083 445 1117 b 368 1236 445 1202 411 1236 b 290 1160 324 1236 290 1202 b 368 1083 290 1117 324 1083 z m 625 1083 b 703 1160 669 1083 703 1117 b 625 1236 703 1202 669 1236 b 548 1160 582 1236 548 1202 b 625 1083 548 1117 582 1083 z m 97 0 l 237 0 l 741 728 l 745 728 l 745 0 l 895 0 l 895 979 l 755 979 l 251 250 l 248 250 l 248 979 l 97 979 z "},"Ҋ":{"ha":1035,"x_min":0,"x_max":0,"o":"m 500 1055 b 719 1249 636 1055 719 1135 l 719 1254 l 605 1254 l 605 1249 b 500 1146 605 1194 566 1146 b 397 1249 433 1146 397 1194 l 397 1254 l 282 1254 l 282 1249 b 500 1055 282 1135 365 1055 z m 97 0 l 237 0 l 741 728 l 745 728 l 745 0 l 858 0 l 804 -193 l 942 -193 l 1017 94 l 1017 131 l 895 131 l 895 979 l 755 979 l 251 250 l 248 250 l 248 979 l 97 979 z "},"К":{"ha":888,"x_min":0,"x_max":0,"o":"m 249 0 l 249 439 l 287 439 l 677 0 l 873 0 l 414 513 l 833 979 l 652 979 l 287 558 l 249 558 l 249 979 l 97 979 l 97 0 z "},"Ќ":{"ha":888,"x_min":0,"x_max":0,"o":"m 454 1058 l 602 1264 l 462 1264 l 349 1058 z m 249 0 l 249 439 l 287 439 l 677 0 l 873 0 l 414 513 l 833 979 l 652 979 l 287 558 l 249 558 l 249 979 l 97 979 l 97 0 z "},"Қ":{"ha":937,"x_min":0,"x_max":0,"o":"m 249 0 l 249 439 l 287 439 l 677 0 l 761 0 l 761 -193 l 899 -193 l 899 131 l 756 131 l 414 513 l 833 979 l 652 979 l 287 558 l 249 558 l 249 979 l 97 979 l 97 0 z "},"Ҝ":{"ha":962,"x_min":0,"x_max":0,"o":"m 249 0 l 249 439 l 339 439 l 339 208 l 437 208 l 437 439 l 452 439 l 764 0 l 947 0 l 579 512 l 905 979 l 739 979 l 452 558 l 437 558 l 437 795 l 339 795 l 339 558 l 249 558 l 249 979 l 97 979 l 97 0 z "},"Ҟ":{"ha":920,"x_min":0,"x_max":0,"o":"m 281 0 l 281 439 l 319 439 l 709 0 l 906 0 l 447 513 l 865 979 l 684 979 l 319 558 l 281 558 l 281 747 l 391 747 l 391 859 l 281 859 l 281 979 l 129 979 l 129 859 l 32 859 l 32 747 l 129 747 l 129 0 z "},"Ҡ":{"ha":1060,"x_min":0,"x_max":0,"o":"m 420 0 l 420 439 l 458 439 l 848 0 l 1045 0 l 586 513 l 1004 979 l 823 979 l 458 558 l 420 558 l 420 979 l 35 979 l 35 848 l 269 848 l 269 0 z "},"Ӄ":{"ha":896,"x_min":0,"x_max":0,"o":"m 418 -281 b 804 124 650 -281 804 -115 l 804 125 b 424 534 804 337 659 493 l 852 979 l 673 979 l 265 553 l 257 553 l 257 979 l 105 979 l 105 0 l 257 0 l 257 422 l 277 422 b 649 122 506 422 649 307 l 649 121 b 409 -149 649 -43 555 -149 b 358 -146 389 -149 374 -147 l 358 -276 b 418 -281 372 -279 395 -281 z "},"Л":{"ha":970,"x_min":0,"x_max":0,"o":"m 90 -7 b 353 373 261 -7 338 115 l 382 848 l 722 848 l 722 0 l 873 0 l 873 979 l 245 979 l 212 381 b 73 130 202 207 165 130 b 33 134 59 130 41 132 l 33 0 b 90 -7 45 -4 66 -7 z "},"Ӆ":{"ha":1013,"x_min":0,"x_max":0,"o":"m 90 -7 b 353 373 261 -7 338 115 l 382 848 l 722 848 l 722 0 l 835 0 l 781 -193 l 919 -193 l 994 94 l 994 131 l 873 131 l 873 979 l 245 979 l 212 381 b 73 130 202 207 165 130 b 33 134 59 130 41 132 l 33 0 b 90 -7 45 -4 66 -7 z "},"Ԯ":{"ha":1031,"x_min":0,"x_max":0,"o":"m 90 -7 b 353 373 261 -7 338 115 l 382 848 l 722 848 l 722 0 l 857 0 l 857 -193 l 996 -193 l 996 131 l 873 131 l 873 979 l 245 979 l 212 381 b 73 130 202 207 165 130 b 33 134 59 130 41 132 l 33 0 b 90 -7 45 -4 66 -7 z "},"Ԓ":{"ha":970,"x_min":0,"x_max":0,"o":"m 90 -7 b 353 373 261 -7 338 115 l 382 848 l 722 848 l 722 -29 b 631 -123 722 -92 692 -123 b 581 -120 613 -123 595 -121 l 581 -233 b 659 -238 600 -236 629 -238 b 873 -30 803 -238 873 -170 l 873 979 l 245 979 l 212 381 b 73 130 202 207 165 130 b 33 134 59 130 41 132 l 33 0 b 90 -7 45 -4 66 -7 z "},"М":{"ha":1181,"x_min":0,"x_max":0,"o":"m 96 0 l 235 0 l 235 722 l 240 722 l 534 0 l 647 0 l 942 722 l 947 722 l 947 0 l 1085 0 l 1085 979 l 910 979 l 593 197 l 589 197 l 272 979 l 96 979 z "},"Ӎ":{"ha":1237,"x_min":0,"x_max":0,"o":"m 96 0 l 235 0 l 235 722 l 240 722 l 534 0 l 647 0 l 942 722 l 947 722 l 947 0 l 1060 0 l 1006 -193 l 1144 -193 l 1219 94 l 1219 131 l 1085 131 l 1085 979 l 910 979 l 593 197 l 589 197 l 272 979 l 96 979 z "},"Н":{"ha":999,"x_min":0,"x_max":0,"o":"m 96 0 l 248 0 l 248 433 l 751 433 l 751 0 l 903 0 l 903 979 l 751 979 l 751 565 l 248 565 l 248 979 l 96 979 z "},"Ӈ":{"ha":999,"x_min":0,"x_max":0,"o":"m 96 0 l 248 0 l 248 433 l 751 433 l 751 -29 b 660 -123 751 -92 722 -123 b 610 -120 642 -123 623 -121 l 610 -233 b 687 -238 628 -236 658 -238 b 903 -30 831 -238 903 -170 l 903 979 l 751 979 l 751 565 l 248 565 l 248 979 l 96 979 z "},"Ң":{"ha":1060,"x_min":0,"x_max":0,"o":"m 96 0 l 248 0 l 248 433 l 751 433 l 751 0 l 886 0 l 886 -193 l 1025 -193 l 1025 131 l 903 131 l 903 979 l 751 979 l 751 565 l 248 565 l 248 979 l 96 979 z "},"Ӊ":{"ha":1041,"x_min":0,"x_max":0,"o":"m 96 0 l 248 0 l 248 433 l 751 433 l 751 0 l 863 0 l 810 -193 l 947 -193 l 1023 94 l 1023 131 l 903 131 l 903 979 l 751 979 l 751 565 l 248 565 l 248 979 l 96 979 z "},"Ҥ":{"ha":1386,"x_min":0,"x_max":0,"o":"m 90 0 l 242 0 l 242 433 l 745 433 l 745 0 l 897 0 l 897 848 l 1343 848 l 1343 979 l 745 979 l 745 565 l 242 565 l 242 979 l 90 979 z "},"О":{"ha":1039,"x_min":0,"x_max":0,"o":"m 519 -16 b 978 489 802 -16 978 178 l 978 490 b 519 995 978 800 802 995 b 61 490 238 995 61 801 l 61 489 b 519 -16 61 178 237 -16 z m 519 118 b 216 489 334 118 216 261 l 216 490 b 519 861 216 718 334 861 b 823 490 705 861 823 718 l 823 489 b 519 118 823 263 707 118 z "},"Ӧ":{"ha":1039,"x_min":0,"x_max":0,"o":"m 391 1083 b 468 1160 434 1083 468 1117 b 391 1236 468 1202 434 1236 b 313 1160 347 1236 313 1202 b 391 1083 313 1117 347 1083 z m 648 1083 b 726 1160 692 1083 726 1117 b 648 1236 726 1202 692 1236 b 571 1160 605 1236 571 1202 b 648 1083 571 1117 605 1083 z m 519 -16 b 978 489 802 -16 978 178 l 978 490 b 519 995 978 800 802 995 b 61 490 238 995 61 801 l 61 489 b 519 -16 61 178 237 -16 z m 519 118 b 216 489 334 118 216 261 l 216 490 b 519 861 216 718 334 861 b 823 490 705 861 823 718 l 823 489 b 519 118 823 263 707 118 z "},"Ө":{"ha":1039,"x_min":0,"x_max":0,"o":"m 519 -16 b 978 489 802 -16 978 178 l 978 490 b 519 995 978 800 802 995 b 61 490 238 995 61 801 l 61 489 b 519 -16 61 178 237 -16 z m 519 861 b 819 555 687 861 799 745 l 219 555 b 519 861 240 745 353 861 z m 519 118 b 218 443 347 118 233 242 l 821 443 b 519 118 806 243 694 118 z "},"Ӫ":{"ha":1039,"x_min":0,"x_max":0,"o":"m 391 1083 b 468 1160 434 1083 468 1117 b 391 1236 468 1202 434 1236 b 313 1160 347 1236 313 1202 b 391 1083 313 1117 347 1083 z m 648 1083 b 726 1160 692 1083 726 1117 b 648 1236 726 1202 692 1236 b 571 1160 605 1236 571 1202 b 648 1083 571 1117 605 1083 z m 519 -16 b 978 489 802 -16 978 178 l 978 490 b 519 995 978 800 802 995 b 61 490 238 995 61 801 l 61 489 b 519 -16 61 178 237 -16 z m 519 861 b 819 555 687 861 799 745 l 219 555 b 519 861 240 745 353 861 z m 519 118 b 218 443 347 118 233 242 l 821 443 b 519 118 806 243 694 118 z "},"Ѳ":{"ha":1036,"x_min":0,"x_max":0,"o":"m 519 -16 b 975 489 799 -16 975 176 l 975 490 b 519 995 975 802 799 995 b 62 490 238 995 62 801 l 62 489 b 519 -16 62 176 237 -16 z m 350 590 b 218 547 300 590 254 574 b 519 861 237 741 349 861 b 816 562 684 861 794 748 b 687 515 789 531 747 515 b 350 590 567 515 496 590 z m 519 117 b 219 425 351 117 239 234 b 342 471 246 453 292 471 b 682 396 460 471 532 396 b 818 439 736 396 782 410 b 519 117 802 240 689 117 z "},"П":{"ha":990,"x_min":0,"x_max":0,"o":"m 893 0 l 893 979 l 97 979 l 97 0 l 249 0 l 249 848 l 741 848 l 741 0 z "},"Ԥ":{"ha":1052,"x_min":0,"x_max":0,"o":"m 878 -193 l 1017 -193 l 1017 131 l 893 131 l 893 979 l 97 979 l 97 0 l 249 0 l 249 848 l 741 848 l 741 0 l 878 0 z "},"Џ":{"ha":990,"x_min":0,"x_max":0,"o":"m 97 979 l 97 0 l 425 0 l 425 -194 l 566 -194 l 566 0 l 893 0 l 893 979 l 741 979 l 741 131 l 249 131 l 249 979 z "},"Р":{"ha":835,"x_min":0,"x_max":0,"o":"m 96 0 l 248 0 l 248 334 l 460 334 b 785 656 653 334 785 465 l 785 658 b 460 979 785 850 653 979 l 96 979 z m 423 850 b 631 657 555 850 631 779 l 631 656 b 423 462 631 533 555 462 l 248 462 l 248 850 z "},"Ҏ":{"ha":822,"x_min":0,"x_max":0,"o":"m 90 0 l 242 0 l 242 334 l 454 334 b 467 335 459 334 463 334 l 552 134 l 651 175 l 575 354 b 779 656 700 397 779 509 l 779 658 b 454 979 779 850 646 979 l 90 979 z m 416 850 b 625 657 549 850 625 779 l 625 656 b 515 479 625 568 586 507 l 433 673 l 348 637 l 421 462 b 416 462 420 462 418 462 l 242 462 l 242 850 z "},"С":{"ha":978,"x_min":0,"x_max":0,"o":"m 515 -16 b 924 309 731 -16 893 115 l 925 316 l 774 316 l 772 310 b 515 118 735 186 645 118 b 216 490 334 118 216 263 l 216 490 b 515 861 216 717 333 861 b 770 676 646 861 737 791 l 774 663 l 924 663 l 924 669 b 515 995 892 862 730 995 b 61 490 237 995 61 801 l 61 490 b 515 -16 61 179 237 -16 z "},"Ҫ":{"ha":978,"x_min":0,"x_max":0,"o":"m 924 309 l 925 316 l 774 316 l 772 310 b 515 118 735 186 645 118 b 216 490 334 118 216 263 l 216 490 b 515 861 216 717 333 861 b 770 676 646 861 737 791 l 774 663 l 924 663 l 924 669 b 515 995 892 862 730 995 b 61 490 237 995 61 801 l 61 490 b 445 -12 61 206 208 18 l 445 -194 l 586 -194 l 586 -12 b 924 309 766 14 897 136 z "},"Т":{"ha":829,"x_min":0,"x_max":0,"o":"m 339 0 l 491 0 l 491 848 l 790 848 l 790 979 l 39 979 l 39 848 l 339 848 z "},"Ҭ":{"ha":829,"x_min":0,"x_max":0,"o":"m 339 0 l 474 0 l 474 -193 l 613 -193 l 613 131 l 491 131 l 491 848 l 790 848 l 790 979 l 39 979 l 39 848 l 339 848 z "},"У":{"ha":856,"x_min":0,"x_max":0,"o":"m 212 -7 b 537 280 367 -7 447 70 l 837 979 l 678 979 l 441 377 l 431 377 l 186 979 l 24 979 l 355 218 b 203 126 318 153 271 126 b 147 132 181 126 161 128 l 147 1 b 212 -7 156 -3 182 -7 z "},"Ў":{"ha":856,"x_min":0,"x_max":0,"o":"m 437 1055 b 656 1249 573 1055 656 1135 l 656 1254 l 541 1254 l 541 1249 b 437 1146 541 1194 503 1146 b 333 1249 370 1146 333 1194 l 333 1254 l 218 1254 l 218 1249 b 437 1055 218 1135 301 1055 z m 212 -7 b 537 280 367 -7 447 70 l 837 979 l 678 979 l 441 377 l 431 377 l 186 979 l 24 979 l 355 218 b 203 126 318 153 271 126 b 147 132 181 126 161 128 l 147 1 b 212 -7 156 -3 182 -7 z "},"Ӯ":{"ha":856,"x_min":0,"x_max":0,"o":"m 241 1110 l 623 1110 l 623 1208 l 241 1208 z m 212 -7 b 537 280 367 -7 447 70 l 837 979 l 678 979 l 441 377 l 431 377 l 186 979 l 24 979 l 355 218 b 203 126 318 153 271 126 b 147 132 181 126 161 128 l 147 1 b 212 -7 156 -3 182 -7 z "},"Ӱ":{"ha":856,"x_min":0,"x_max":0,"o":"m 304 1083 b 381 1160 347 1083 381 1117 b 304 1236 381 1202 347 1236 b 227 1160 260 1236 227 1202 b 304 1083 227 1117 260 1083 z m 562 1083 b 639 1160 606 1083 639 1117 b 562 1236 639 1202 606 1236 b 484 1160 519 1236 484 1202 b 562 1083 484 1117 519 1083 z m 212 -7 b 537 280 367 -7 447 70 l 837 979 l 678 979 l 441 377 l 431 377 l 186 979 l 24 979 l 355 218 b 203 126 318 153 271 126 b 147 132 181 126 161 128 l 147 1 b 212 -7 156 -3 182 -7 z "},"Ӳ":{"ha":856,"x_min":0,"x_max":0,"o":"m 361 1058 l 495 1264 l 355 1264 l 256 1058 z m 583 1058 l 732 1264 l 591 1264 l 478 1058 z m 212 -7 b 537 280 367 -7 447 70 l 837 979 l 678 979 l 441 377 l 431 377 l 186 979 l 24 979 l 355 218 b 203 126 318 153 271 126 b 147 132 181 126 161 128 l 147 1 b 212 -7 156 -3 182 -7 z "},"Ү":{"ha":889,"x_min":0,"x_max":0,"o":"m 369 0 l 521 0 l 521 401 l 865 979 l 696 979 l 447 547 l 442 547 l 193 979 l 24 979 l 369 401 z "},"Ұ":{"ha":889,"x_min":0,"x_max":0,"o":"m 369 0 l 521 0 l 521 358 l 762 358 l 762 471 l 562 471 l 865 979 l 696 979 l 447 547 l 442 547 l 193 979 l 24 979 l 327 471 l 127 471 l 127 358 l 369 358 z "},"Ф":{"ha":1136,"x_min":0,"x_max":0,"o":"m 493 -8 l 644 -8 l 644 87 b 1082 491 911 95 1082 250 l 1082 492 b 644 897 1082 736 911 890 l 644 987 l 493 987 l 493 897 b 54 492 226 890 54 736 l 54 491 b 493 87 54 250 226 95 z m 210 491 l 210 492 b 494 768 210 656 318 762 l 494 216 b 210 491 318 224 210 328 z m 642 768 b 927 492 819 762 927 656 l 927 491 b 642 216 927 328 819 224 z "},"Х":{"ha":919,"x_min":0,"x_max":0,"o":"m 36 0 l 204 0 l 450 374 l 455 374 l 699 0 l 877 0 l 551 487 l 551 490 l 883 979 l 712 979 l 469 600 l 463 600 l 220 979 l 39 979 l 361 494 l 361 492 z "},"Ҳ":{"ha":956,"x_min":0,"x_max":0,"o":"m 36 0 l 204 0 l 450 374 l 455 374 l 699 0 l 781 0 l 781 -193 l 920 -193 l 920 131 l 789 131 l 551 487 l 551 490 l 883 979 l 712 979 l 469 600 l 463 600 l 220 979 l 39 979 l 361 494 l 361 492 z "},"Ӿ":{"ha":919,"x_min":0,"x_max":0,"o":"m 36 0 l 204 0 l 450 374 l 455 374 l 699 0 l 877 0 l 587 433 l 820 433 l 820 546 l 589 546 l 883 979 l 712 979 l 469 600 l 463 600 l 220 979 l 39 979 l 328 546 l 100 546 l 100 433 l 323 433 z "},"Ӽ":{"ha":920,"x_min":0,"x_max":0,"o":"m 625 -268 b 850 -64 760 -268 850 -187 b 756 180 850 16 826 74 l 552 486 l 552 490 l 884 979 l 713 979 l 468 600 l 463 600 l 221 979 l 40 979 l 362 494 l 362 492 l 37 0 l 205 0 l 452 374 l 456 374 l 634 99 b 699 -57 682 25 699 -15 b 605 -137 699 -106 663 -137 b 564 -134 590 -137 576 -136 l 564 -263 b 625 -268 579 -267 600 -268 z "},"Ц":{"ha":1052,"x_min":0,"x_max":0,"o":"m 878 -193 l 1017 -193 l 1017 131 l 893 131 l 893 979 l 741 979 l 741 131 l 249 131 l 249 979 l 97 979 l 97 0 l 878 0 z "},"Ҵ":{"ha":1245,"x_min":0,"x_max":0,"o":"m 34 848 l 291 848 l 291 0 l 1072 0 l 1072 -193 l 1210 -193 l 1210 131 l 1087 131 l 1087 979 l 935 979 l 935 131 l 443 131 l 443 848 l 698 848 l 698 979 l 34 979 z "},"Ч":{"ha":944,"x_min":0,"x_max":0,"o":"m 695 0 l 847 0 l 847 979 l 695 979 l 695 562 b 468 489 648 518 566 489 b 233 720 315 489 233 576 l 233 979 l 81 979 l 81 715 b 455 354 81 511 210 354 b 692 419 566 354 646 388 l 695 419 z "},"Ӵ":{"ha":944,"x_min":0,"x_max":0,"o":"m 334 1083 b 412 1160 378 1083 412 1117 b 334 1236 412 1202 378 1236 b 257 1160 291 1236 257 1202 b 334 1083 257 1117 291 1083 z m 592 1083 b 669 1160 636 1083 669 1117 b 592 1236 669 1202 636 1236 b 515 1160 549 1236 515 1202 b 592 1083 515 1117 549 1083 z m 695 0 l 847 0 l 847 979 l 695 979 l 695 562 b 468 489 648 518 566 489 b 233 720 315 489 233 576 l 233 979 l 81 979 l 81 715 b 455 354 81 511 210 354 b 692 419 566 354 646 388 l 695 419 z "},"Ҷ":{"ha":1005,"x_min":0,"x_max":0,"o":"m 695 0 l 831 0 l 831 -193 l 969 -193 l 969 131 l 847 131 l 847 979 l 695 979 l 695 562 b 468 489 648 518 566 489 b 233 720 315 489 233 576 l 233 979 l 81 979 l 81 715 b 455 354 81 511 210 354 b 692 419 566 354 646 388 l 695 419 z "},"Ӌ":{"ha":944,"x_min":0,"x_max":0,"o":"m 712 -193 l 712 0 l 847 0 l 847 979 l 695 979 l 695 562 b 468 489 648 518 566 489 b 233 720 315 489 233 576 l 233 979 l 81 979 l 81 715 b 455 354 81 511 210 354 b 692 419 566 354 646 388 l 695 419 l 695 126 l 573 126 l 573 -193 z "},"Ҹ":{"ha":989,"x_min":0,"x_max":0,"o":"m 441 171 l 539 171 l 539 357 b 737 419 628 367 699 394 l 741 419 l 741 0 l 892 0 l 892 979 l 741 979 l 741 562 b 539 491 701 525 625 498 l 539 758 l 441 758 l 441 491 b 233 720 300 507 233 591 l 233 979 l 81 979 l 81 715 b 441 355 81 520 198 368 z "},"Ҩ":{"ha":1321,"x_min":0,"x_max":0,"o":"m 610 -16 b 852 42 699 -16 778 4 b 1084 -16 922 3 998 -16 b 1270 22 1156 -16 1225 -2 l 1270 155 b 1086 111 1205 124 1141 111 b 989 123 1053 111 1021 115 b 1192 521 1106 208 1192 351 l 1192 522 b 863 867 1192 730 1061 867 b 536 508 666 867 536 711 l 536 507 b 721 127 536 352 604 218 b 610 117 688 121 652 117 b 218 503 389 117 218 264 l 218 504 b 496 855 218 680 319 819 l 496 995 b 62 506 239 969 62 762 l 62 505 b 610 -16 62 194 281 -16 z m 687 511 l 687 513 b 863 734 687 637 745 734 b 1040 522 970 734 1040 643 l 1040 521 b 858 184 1040 377 968 256 b 687 511 749 262 687 381 z "},"Ҽ":{"ha":1169,"x_min":0,"x_max":0,"o":"m 698 -16 b 1094 254 899 -16 1057 92 l 1095 259 l 941 259 l 939 254 b 700 118 907 166 821 118 b 404 457 518 118 404 249 l 404 467 l 1107 467 b 1108 528 1107 486 1108 509 b 682 995 1108 817 945 995 b 256 593 453 995 292 839 b 146 695 185 593 146 628 b 165 792 146 733 155 768 l 35 792 b 12 680 24 767 12 724 b 250 467 12 553 105 471 b 698 -16 256 168 426 -16 z m 680 861 b 944 601 830 861 932 762 l 945 591 l 409 591 b 680 861 431 753 536 861 z "},"Ҿ":{"ha":1169,"x_min":0,"x_max":0,"o":"m 1094 254 l 1095 259 l 941 259 l 939 254 b 700 118 907 166 821 118 b 404 457 518 118 404 249 l 404 467 l 1107 467 b 1108 528 1107 486 1108 509 b 682 995 1108 817 945 995 b 256 593 453 995 292 839 b 146 695 185 593 146 628 b 165 792 146 733 155 768 l 35 792 b 12 680 24 767 12 724 b 250 467 12 553 105 471 b 628 -12 256 195 397 17 l 628 -194 l 769 -194 l 769 -12 b 1094 254 935 10 1061 111 z m 680 861 b 944 601 830 861 932 762 l 945 591 l 409 591 b 680 861 431 753 536 861 z "},"Һ":{"ha":955,"x_min":0,"x_max":0,"o":"m 97 0 l 249 0 l 249 431 b 477 509 295 479 379 509 b 711 279 629 509 711 421 l 711 0 l 863 0 l 863 282 b 492 644 863 486 733 644 b 254 577 396 644 309 615 l 249 577 l 249 979 l 97 979 z "},"Ԧ":{"ha":1021,"x_min":0,"x_max":0,"o":"m 97 0 l 249 0 l 249 431 b 477 509 295 479 379 509 b 711 279 629 509 711 421 l 711 0 l 847 0 l 847 -193 l 985 -193 l 985 131 l 863 131 l 863 282 b 492 644 863 486 733 644 b 254 577 396 644 309 615 l 249 577 l 249 979 l 97 979 z "},"Ш":{"ha":1303,"x_min":0,"x_max":0,"o":"m 97 1 l 1206 1 l 1206 979 l 1054 979 l 1054 132 l 727 132 l 727 979 l 575 979 l 575 132 l 249 132 l 249 979 l 97 979 z "},"Щ":{"ha":1364,"x_min":0,"x_max":0,"o":"m 97 1 l 1054 1 l 1054 0 l 1190 0 l 1190 -193 l 1328 -193 l 1328 131 l 1206 131 l 1206 979 l 1054 979 l 1054 132 l 727 132 l 727 979 l 575 979 l 575 132 l 249 132 l 249 979 l 97 979 z "},"Ъ":{"ha":1018,"x_min":0,"x_max":0,"o":"m 269 0 l 646 0 b 969 313 837 0 969 128 l 969 315 b 642 628 969 500 834 628 l 420 628 l 420 979 l 35 979 l 35 848 l 269 848 z m 606 500 b 814 315 737 500 814 433 l 814 313 b 606 129 814 195 738 129 l 420 129 l 420 500 z "},"Ы":{"ha":1168,"x_min":0,"x_max":0,"o":"m 97 0 l 475 0 b 798 313 665 0 798 128 l 798 315 b 470 628 798 500 663 628 l 249 628 l 249 979 l 97 979 z m 920 0 l 1072 0 l 1072 979 l 920 979 z m 435 500 b 642 315 566 500 642 433 l 642 313 b 435 129 642 195 566 129 l 249 129 l 249 500 z "},"Ӹ":{"ha":1168,"x_min":0,"x_max":0,"o":"m 456 1083 b 533 1160 499 1083 533 1117 b 456 1236 533 1202 499 1236 b 378 1160 412 1236 378 1202 b 456 1083 378 1117 412 1083 z m 713 1083 b 791 1160 758 1083 791 1117 b 713 1236 791 1202 758 1236 b 636 1160 671 1236 636 1202 b 713 1083 636 1117 671 1083 z m 97 0 l 475 0 b 798 313 665 0 798 128 l 798 315 b 470 628 798 500 663 628 l 249 628 l 249 979 l 97 979 z m 920 0 l 1072 0 l 1072 979 l 920 979 z m 435 500 b 642 315 566 500 642 433 l 642 313 b 435 129 642 195 566 129 l 249 129 l 249 500 z "},"Ҍ":{"ha":878,"x_min":0,"x_max":0,"o":"m 129 0 l 507 0 b 829 312 698 0 829 127 l 829 313 b 503 626 829 498 695 626 l 281 626 l 281 789 l 484 789 l 484 887 l 281 887 l 281 1024 l 129 1024 l 129 887 l 32 887 l 32 789 l 129 789 z m 467 497 b 674 313 598 497 674 431 l 674 312 b 467 129 674 195 599 129 l 281 129 l 281 497 z "},"Ѣ":{"ha":1059,"x_min":0,"x_max":0,"o":"m 310 0 l 689 0 b 1010 311 878 0 1010 127 l 1010 312 b 684 623 1010 496 876 623 l 462 623 l 462 777 l 791 777 l 791 899 l 462 899 l 462 1024 l 310 1024 l 310 899 l 40 899 l 40 777 l 310 777 z m 648 494 b 855 312 779 494 855 429 l 855 311 b 649 129 855 195 780 129 l 462 129 l 462 494 z "},"Ь":{"ha":846,"x_min":0,"x_max":0,"o":"m 97 0 l 475 0 b 798 313 665 0 798 128 l 798 315 b 470 628 798 500 663 628 l 249 628 l 249 979 l 97 979 z m 435 500 b 642 315 566 500 642 433 l 642 313 b 435 129 642 195 566 129 l 249 129 l 249 500 z "},"Љ":{"ha":1472,"x_min":0,"x_max":0,"o":"m 90 -7 b 353 373 261 -7 338 115 l 382 848 l 722 848 l 722 0 l 1100 0 b 1422 313 1291 0 1422 128 l 1422 315 b 1095 628 1422 500 1288 628 l 873 628 l 873 979 l 245 979 l 212 381 b 73 130 202 207 165 130 b 33 134 59 130 41 132 l 33 0 b 90 -7 45 -4 66 -7 z m 1059 500 b 1267 315 1191 500 1267 433 l 1267 313 b 1060 129 1267 195 1192 129 l 873 129 l 873 500 z "},"Њ":{"ha":1500,"x_min":0,"x_max":0,"o":"m 96 0 l 248 0 l 248 433 l 751 433 l 751 0 l 1128 0 b 1451 313 1319 0 1451 128 l 1451 315 b 1124 628 1451 500 1316 628 l 903 628 l 903 979 l 751 979 l 751 565 l 248 565 l 248 979 l 96 979 z m 1088 500 b 1296 315 1219 500 1296 433 l 1296 313 b 1088 129 1296 195 1220 129 l 903 129 l 903 500 z "},"Э":{"ha":977,"x_min":0,"x_max":0,"o":"m 463 -16 b 916 490 741 -16 916 180 l 916 490 b 463 995 916 800 741 995 b 54 680 249 995 83 866 l 53 673 l 203 673 l 205 680 b 463 862 242 798 334 862 b 758 563 627 862 735 748 l 337 563 l 337 435 l 759 435 b 463 117 742 239 632 117 b 205 299 334 117 242 181 l 203 306 l 52 306 l 54 299 b 463 -16 83 112 248 -16 z "},"Ӭ":{"ha":977,"x_min":0,"x_max":0,"o":"m 338 1083 b 416 1160 382 1083 416 1117 b 338 1236 416 1202 382 1236 b 260 1160 295 1236 260 1202 b 338 1083 260 1117 295 1083 z m 596 1083 b 673 1160 640 1083 673 1117 b 596 1236 673 1202 640 1236 b 519 1160 553 1236 519 1202 b 596 1083 519 1117 553 1083 z m 463 -16 b 916 490 741 -16 916 180 l 916 490 b 463 995 916 800 741 995 b 54 680 249 995 83 866 l 53 673 l 203 673 l 205 680 b 463 862 242 798 334 862 b 758 563 627 862 735 748 l 337 563 l 337 435 l 759 435 b 463 117 742 239 632 117 b 205 299 334 117 242 181 l 203 306 l 52 306 l 54 299 b 463 -16 83 112 248 -16 z "},"Є":{"ha":977,"x_min":0,"x_max":0,"o":"m 514 -16 b 924 299 730 -16 894 112 l 925 306 l 774 306 l 772 299 b 514 117 735 181 644 117 b 218 435 345 117 235 239 l 640 435 l 640 563 l 220 563 b 514 862 242 748 350 862 b 772 680 644 862 735 798 l 774 673 l 924 673 l 924 680 b 514 995 894 866 728 995 b 61 490 236 995 61 800 l 61 490 b 514 -16 61 180 236 -16 z "},"Ю":{"ha":1363,"x_min":0,"x_max":0,"o":"m 97 0 l 249 0 l 249 433 l 405 433 b 852 -16 425 157 590 -16 b 1301 489 1131 -16 1301 180 l 1301 490 b 852 995 1301 801 1131 995 b 406 565 598 995 431 831 l 249 565 l 249 979 l 97 979 z m 852 861 b 1146 490 1034 861 1146 717 l 1146 489 b 852 118 1146 264 1034 118 b 557 489 668 118 557 264 l 557 490 b 852 861 557 717 671 861 z "},"Я":{"ha":892,"x_min":0,"x_max":0,"o":"m 796 0 l 796 979 l 415 979 b 86 673 219 979 86 854 l 86 672 b 310 388 86 530 176 422 l 37 0 l 212 0 l 468 368 l 645 368 l 645 0 z m 645 493 l 446 493 b 241 671 317 493 241 558 l 241 673 b 446 850 241 785 317 850 l 645 850 z "},"Ӏ":{"ha":345,"x_min":0,"x_max":0,"o":"m 96 0 l 248 0 l 248 979 l 96 979 z "},"І":{"ha":345,"x_min":0,"x_max":0,"o":"m 96 0 l 248 0 l 248 979 l 96 979 z "},"Ї":{"ha":345,"x_min":0,"x_max":0,"o":"m 43 1083 b 121 1160 87 1083 121 1117 b 43 1236 121 1202 87 1236 b -34 1160 0 1236 -34 1202 b 43 1083 -34 1117 0 1083 z m 301 1083 b 378 1160 345 1083 378 1117 b 301 1236 378 1202 345 1236 b 224 1160 258 1236 224 1202 b 301 1083 224 1117 258 1083 z m 96 0 l 248 0 l 248 979 l 96 979 z "},"Ѕ":{"ha":855,"x_min":0,"x_max":0,"o":"m 430 -16 b 803 275 662 -16 803 97 l 803 276 b 514 552 803 427 716 509 l 407 574 b 229 719 285 601 229 646 l 229 720 b 428 863 229 805 307 863 b 636 718 544 863 623 808 l 637 708 l 785 708 l 784 720 b 430 995 774 884 634 995 b 75 713 223 995 76 880 l 75 713 b 360 439 75 568 168 479 l 467 416 b 650 267 596 388 650 345 l 650 266 b 436 115 650 174 567 115 b 201 262 305 115 215 172 l 200 271 l 52 271 l 53 260 b 430 -16 65 88 211 -16 z "},"Ʒ":{"ha":822,"x_min":0,"x_max":0,"o":"m 406 -16 b 765 283 617 -16 765 106 l 765 285 b 445 584 765 471 640 574 l 445 595 l 738 875 l 738 979 l 86 979 l 86 848 l 528 848 l 528 836 l 269 591 l 269 472 l 358 472 b 610 283 521 472 610 412 l 610 282 b 406 116 610 178 530 116 b 199 254 291 116 210 169 l 198 263 l 50 263 l 51 254 b 406 -16 62 92 203 -16 z "},"Ӡ":{"ha":822,"x_min":0,"x_max":0,"o":"m 406 -16 b 765 283 617 -16 765 106 l 765 285 b 445 584 765 471 640 574 l 445 595 l 738 875 l 738 979 l 86 979 l 86 848 l 528 848 l 528 836 l 269 591 l 269 472 l 358 472 b 610 283 521 472 610 412 l 610 282 b 406 116 610 178 530 116 b 199 254 291 116 210 169 l 198 263 l 50 263 l 51 254 b 406 -16 62 92 203 -16 z "},"Ћ":{"ha":1197,"x_min":0,"x_max":0,"o":"m 339 0 l 491 0 l 491 414 b 720 493 537 463 621 493 b 954 262 871 493 954 405 l 954 0 l 1105 0 l 1105 267 b 733 627 1105 471 975 627 b 496 562 638 627 551 599 l 491 562 l 491 848 l 790 848 l 790 979 l 39 979 l 39 848 l 339 848 z "},"Ђ":{"ha":1151,"x_min":0,"x_max":0,"o":"m 743 -54 b 1076 283 935 -54 1076 76 l 1076 285 b 748 615 1076 479 943 615 b 504 516 648 615 567 578 l 497 516 l 497 848 l 802 848 l 802 979 l 40 979 l 40 848 l 345 848 l 345 0 l 497 0 l 497 346 b 726 480 544 420 627 480 b 921 279 844 480 921 396 l 921 278 b 728 77 921 145 838 77 b 662 84 707 77 679 79 l 662 -45 b 743 -54 680 -50 708 -54 z "},"Ҕ":{"ha":903,"x_min":0,"x_max":0,"o":"m 495 -54 b 827 283 687 -54 827 76 l 827 285 b 499 615 827 479 694 615 b 256 516 400 615 319 578 l 249 516 l 249 848 l 667 848 l 667 979 l 97 979 l 97 0 l 249 0 l 249 346 b 477 480 295 421 379 480 b 672 279 595 480 672 396 l 672 278 b 479 77 672 145 589 77 b 414 84 458 77 431 79 l 414 -45 b 495 -54 431 -50 459 -54 z "},"Ҧ":{"ha":1505,"x_min":0,"x_max":0,"o":"m 1097 -54 b 1430 283 1289 -54 1430 76 l 1430 285 b 1101 615 1430 479 1296 615 b 857 516 1002 615 920 578 l 850 516 l 850 979 l 97 979 l 97 0 l 249 0 l 249 848 l 699 848 l 699 0 l 850 0 l 850 346 b 1079 480 897 420 981 480 b 1274 279 1197 480 1274 396 l 1274 278 b 1081 77 1274 145 1191 77 b 1015 84 1060 77 1032 79 l 1015 -45 b 1097 -54 1033 -50 1061 -54 z "},"Ј":{"ha":731,"x_min":0,"x_max":0,"o":"m 328 -16 b 633 290 519 -16 633 97 l 633 979 l 481 979 l 481 291 b 326 119 481 179 427 119 b 182 252 235 119 189 178 l 182 258 l 32 258 l 33 250 b 328 -16 41 94 146 -16 z "},"Ѵ":{"ha":1019,"x_min":0,"x_max":0,"o":"m 374 0 l 541 0 l 806 738 b 904 849 829 804 851 849 b 966 836 921 849 946 844 l 1010 962 b 882 991 977 979 924 991 b 668 786 770 991 709 918 l 463 174 l 456 174 l 190 979 l 24 979 z "},"Ѷ":{"ha":1019,"x_min":0,"x_max":0,"o":"m 334 1058 l 438 1058 l 311 1264 l 170 1264 z m 555 1058 l 660 1058 l 547 1264 l 407 1264 z m 374 0 l 541 0 l 806 738 b 904 849 829 804 851 849 b 966 836 921 849 946 844 l 1010 962 b 882 991 977 979 924 991 b 668 786 770 991 709 918 l 463 174 l 456 174 l 190 979 l 24 979 z "},"Ԝ":{"ha":1316,"x_min":0,"x_max":0,"o":"m 300 0 l 446 0 l 656 738 l 660 738 l 870 0 l 1016 0 l 1280 979 l 1122 979 l 940 212 l 937 212 l 730 979 l 586 979 l 379 212 l 376 212 l 194 979 l 36 979 z "},"Ӕ":{"ha":1329,"x_min":0,"x_max":0,"o":"m 9 0 l 163 0 l 301 290 l 653 290 l 653 0 l 1263 0 l 1263 131 l 799 131 l 799 430 l 1238 430 l 1238 556 l 799 556 l 799 848 l 1263 848 l 1263 979 l 476 979 z m 570 857 l 653 857 l 653 412 l 359 412 z "},"Ə":{"ha":987,"x_min":0,"x_max":0,"o":"m 492 -16 b 926 488 751 -16 926 184 l 926 489 b 477 995 926 799 751 995 b 80 732 287 995 138 899 l 76 720 l 231 720 l 237 732 b 475 861 278 817 358 861 b 770 538 647 861 770 729 l 770 523 l 62 523 b 62 467 62 503 62 482 b 492 -16 62 172 224 -16 z m 494 118 b 226 391 340 118 238 219 l 225 400 l 767 400 b 494 118 749 227 638 118 z "},"Ә":{"ha":1000,"x_min":0,"x_max":0,"o":"m 498 -16 b 932 488 758 -16 932 184 l 932 489 b 484 995 932 799 758 995 b 87 732 294 995 144 899 l 82 720 l 237 720 l 243 732 b 481 861 284 817 364 861 b 776 538 653 861 776 729 l 776 523 l 68 523 b 68 467 68 503 68 482 b 498 -16 68 172 230 -16 z m 500 118 b 232 391 347 118 244 219 l 231 400 l 774 400 b 500 118 755 227 644 118 z "},"Ӛ":{"ha":1000,"x_min":0,"x_max":0,"o":"m 353 1083 b 431 1160 397 1083 431 1117 b 353 1236 431 1202 397 1236 b 275 1160 310 1236 275 1202 b 353 1083 275 1117 310 1083 z m 611 1083 b 688 1160 654 1083 688 1117 b 611 1236 688 1202 654 1236 b 534 1160 568 1236 534 1202 b 611 1083 534 1117 568 1083 z m 498 -16 b 932 488 758 -16 932 184 l 932 489 b 484 995 932 799 758 995 b 87 732 294 995 144 899 l 82 720 l 237 720 l 243 732 b 481 861 284 817 364 861 b 776 538 653 861 776 729 l 776 523 l 68 523 b 68 467 68 503 68 482 b 498 -16 68 172 230 -16 z m 500 118 b 232 391 347 118 244 219 l 231 400 l 774 400 b 500 118 755 227 644 118 z "},"ᴀ":{"ha":715,"x_min":0,"x_max":0,"o":"m 12 0 l 159 0 l 220 181 l 494 181 l 555 0 l 703 0 l 439 713 l 277 713 z m 356 584 l 359 584 l 460 283 l 255 283 z "},"ʙ":{"ha":737,"x_min":0,"x_max":0,"o":"m 73 0 l 410 0 b 686 203 582 0 686 77 l 686 204 b 496 376 686 298 610 368 l 496 378 b 648 534 583 389 648 457 l 648 535 b 406 713 648 644 553 713 l 73 713 z m 370 609 b 505 516 455 609 505 576 l 505 515 b 347 414 505 450 448 414 l 217 414 l 217 609 z m 370 318 b 538 212 480 318 538 281 l 538 211 b 377 104 538 141 481 104 l 217 104 l 217 318 z "},"ᴄ":{"ha":734,"x_min":0,"x_max":0,"o":"m 386 -12 b 702 236 559 -12 685 90 l 703 241 l 564 241 l 563 237 b 387 100 541 149 478 100 b 184 357 264 100 184 199 l 184 357 b 386 613 184 514 263 613 b 562 480 480 613 542 562 l 564 471 l 702 471 l 702 476 b 386 725 684 623 559 725 b 41 357 174 725 41 585 l 41 357 b 386 -12 41 128 174 -12 z "},"ᴅ":{"ha":745,"x_min":0,"x_max":0,"o":"m 73 0 l 349 0 b 705 359 574 0 705 133 l 705 359 b 349 713 705 585 572 713 l 73 713 z m 213 111 l 213 602 l 334 602 b 561 359 479 602 561 516 l 561 358 b 334 111 561 198 480 111 z "},"ᴇ":{"ha":600,"x_min":0,"x_max":0,"o":"m 73 0 l 559 0 l 559 109 l 213 109 l 213 309 l 541 309 l 541 414 l 213 414 l 213 604 l 559 604 l 559 713 l 73 713 z "},"ꜰ":{"ha":571,"x_min":0,"x_max":0,"o":"m 73 0 l 213 0 l 213 290 l 524 290 l 524 395 l 213 395 l 213 604 l 553 604 l 553 713 l 73 713 z "},"ɢ":{"ha":743,"x_min":0,"x_max":0,"o":"m 389 -12 b 711 298 592 -12 711 104 l 711 375 l 399 375 l 399 275 l 574 275 l 574 264 b 392 100 570 165 497 100 b 184 360 264 100 184 197 l 184 361 b 387 613 184 519 260 613 b 562 493 474 613 535 569 l 564 488 l 705 488 l 704 496 b 387 725 677 627 562 725 b 41 359 174 725 41 586 l 41 359 b 389 -12 41 129 174 -12 z "},"ʛ":{"ha":854,"x_min":0,"x_max":0,"o":"m 388 -12 b 709 298 589 -12 709 104 l 709 378 l 404 378 l 404 272 l 566 272 l 565 261 b 391 107 562 168 492 107 b 191 360 268 107 191 201 b 386 606 191 515 263 606 b 553 492 469 606 528 564 l 555 486 l 578 486 l 709 486 l 709 784 b 802 878 709 847 739 878 b 854 875 821 878 840 876 l 854 988 b 783 993 837 991 810 993 b 578 785 635 993 578 922 l 578 674 b 385 725 526 706 461 725 b 41 359 174 725 41 587 l 41 359 b 388 -12 41 127 173 -12 z "},"ʜ":{"ha":756,"x_min":0,"x_max":0,"o":"m 73 0 l 209 0 l 209 307 l 551 307 l 551 0 l 688 0 l 688 713 l 551 713 l 551 418 l 209 418 l 209 713 l 73 713 z "},"ɪ":{"ha":479,"x_min":0,"x_max":0,"o":"m 31 0 l 447 0 l 447 109 l 312 109 l 312 604 l 447 604 l 447 713 l 31 713 l 31 604 l 167 604 l 167 109 l 31 109 z "},"ᵻ":{"ha":304,"x_min":0,"x_max":0,"o":"m 79 0 l 225 0 l 225 350 l 304 350 l 304 442 l 225 442 l 225 713 l 79 713 l 79 442 l 0 442 l 0 350 l 79 350 z "},"ᴊ":{"ha":562,"x_min":0,"x_max":0,"o":"m 254 -12 b 492 222 404 -12 492 73 l 492 713 l 351 713 l 351 223 b 252 109 351 149 317 109 b 155 203 191 109 159 149 l 155 207 l 18 207 l 18 202 b 254 -12 22 73 109 -12 z "},"ᴋ":{"ha":669,"x_min":0,"x_max":0,"o":"m 73 0 l 217 0 l 217 224 l 285 305 l 495 0 l 669 0 l 389 397 l 650 713 l 488 713 l 220 382 l 217 382 l 217 713 l 73 713 z "},"ʟ":{"ha":566,"x_min":0,"x_max":0,"o":"m 73 0 l 548 0 l 548 109 l 213 109 l 213 713 l 73 713 z "},"ᴌ":{"ha":542,"x_min":0,"x_max":0,"o":"m 64 0 l 524 0 l 524 116 l 210 116 l 210 329 l 393 419 l 393 519 l 210 429 l 210 713 l 64 713 l 64 356 l 12 330 l 12 231 l 64 256 z "},"ᴍ":{"ha":890,"x_min":0,"x_max":0,"o":"m 73 0 l 198 0 l 198 500 l 199 500 l 399 0 l 491 0 l 692 500 l 692 0 l 819 0 l 819 713 l 655 713 l 447 176 l 444 176 l 235 713 l 73 713 z "},"ɴ":{"ha":744,"x_min":0,"x_max":0,"o":"m 73 0 l 213 0 l 213 493 l 216 493 l 548 0 l 672 0 l 672 713 l 532 713 l 532 222 l 529 222 l 197 713 l 73 713 z "},"ᴎ":{"ha":744,"x_min":0,"x_max":0,"o":"m 672 0 l 672 713 l 548 713 l 215 222 l 213 222 l 213 713 l 73 713 l 73 0 l 196 0 l 528 493 l 532 493 l 532 0 z "},"ᴏ":{"ha":764,"x_min":0,"x_max":0,"o":"m 382 -12 b 724 356 593 -12 724 130 l 724 357 b 382 725 724 583 593 725 b 41 357 173 725 41 583 l 41 356 b 382 -12 41 130 172 -12 z m 383 102 b 184 356 261 102 184 199 l 184 357 b 383 610 184 513 262 610 b 581 357 504 610 581 513 l 581 356 b 383 102 581 201 505 102 z "},"ᴘ":{"ha":645,"x_min":0,"x_max":0,"o":"m 73 0 l 213 0 l 213 233 l 355 233 b 602 473 503 233 602 329 l 602 474 b 355 713 602 617 503 713 l 73 713 z m 320 606 b 459 473 408 606 459 557 l 459 472 b 320 339 459 387 408 339 l 213 339 l 213 606 z "},"ᴩ":{"ha":645,"x_min":0,"x_max":0,"o":"m 73 0 l 213 0 l 213 233 l 355 233 b 602 473 503 233 602 329 l 602 474 b 355 713 602 617 503 713 l 73 713 z m 320 606 b 459 473 408 606 459 557 l 459 472 b 320 339 459 387 408 339 l 213 339 l 213 606 z "},"ꞯ":{"ha":764,"x_min":0,"x_max":0,"o":"m 382 -12 b 507 7 427 -12 469 -6 l 562 -71 l 699 -71 l 604 60 b 724 356 681 123 724 226 l 724 357 b 382 725 724 583 593 725 b 41 357 173 725 41 583 l 41 356 b 382 -12 41 130 172 -12 z m 382 102 b 184 356 261 102 184 199 l 184 357 b 382 610 184 513 262 610 b 580 357 503 610 580 513 l 580 356 b 526 170 580 278 561 214 l 480 233 l 344 233 l 433 109 b 382 102 417 104 400 102 z "},"ʀ":{"ha":690,"x_min":0,"x_max":0,"o":"m 73 0 l 213 0 l 213 265 l 352 265 l 497 0 l 658 0 l 496 285 b 635 488 582 315 635 393 l 635 489 b 374 713 635 629 537 713 l 73 713 z m 213 368 l 213 606 l 357 606 b 490 488 439 606 490 561 l 490 487 b 359 368 490 412 441 368 z "},"ᴙ":{"ha":690,"x_min":0,"x_max":0,"o":"m 617 0 l 617 713 l 315 713 b 54 489 153 713 54 629 l 54 488 b 193 285 54 393 108 315 l 32 0 l 193 0 l 338 265 l 477 265 l 477 0 z m 477 368 l 330 368 b 199 487 248 368 199 412 l 199 488 b 333 606 199 561 251 606 l 477 606 z "},"ʁ":{"ha":695,"x_min":0,"x_max":0,"o":"m 623 713 l 476 713 l 476 451 l 342 451 l 199 713 l 32 713 l 193 430 b 54 227 107 399 54 321 l 54 226 b 318 0 54 85 153 0 l 623 0 z m 476 343 l 476 111 l 336 111 b 205 227 256 111 205 155 l 205 227 b 334 343 205 300 253 343 z "},"ꜱ":{"ha":674,"x_min":0,"x_max":0,"o":"m 338 -12 b 633 207 522 -12 633 73 b 408 409 633 319 564 378 l 328 425 b 199 520 239 442 199 471 l 199 521 b 336 614 199 576 252 614 b 483 517 418 614 475 578 l 484 511 l 618 511 l 618 520 b 338 725 610 643 504 725 b 58 513 174 725 58 640 l 58 513 b 278 312 58 406 131 340 l 358 296 b 491 197 453 277 491 250 l 491 197 b 342 98 491 137 433 98 b 176 195 251 98 187 136 l 176 201 l 41 201 l 42 193 b 338 -12 51 64 163 -12 z "},"ᴛ":{"ha":614,"x_min":0,"x_max":0,"o":"m 237 0 l 377 0 l 377 602 l 587 602 l 587 713 l 28 713 l 28 602 l 237 602 z "},"ᴜ":{"ha":755,"x_min":0,"x_max":0,"o":"m 378 -12 b 687 251 569 -12 687 94 l 687 713 l 546 713 l 546 263 b 378 102 546 165 486 102 b 210 263 271 102 210 165 l 210 713 l 69 713 l 69 251 b 378 -12 69 94 188 -12 z "},"ᴠ":{"ha":681,"x_min":0,"x_max":0,"o":"m 252 0 l 429 0 l 669 713 l 507 713 l 342 145 l 339 145 l 174 713 l 12 713 z "},"ᴡ":{"ha":957,"x_min":0,"x_max":0,"o":"m 201 0 l 344 0 l 477 493 l 479 493 l 612 0 l 755 0 l 945 713 l 792 713 l 678 190 l 675 190 l 543 713 l 414 713 l 281 190 l 278 190 l 164 713 l 12 713 z "},"ʏ":{"ha":693,"x_min":0,"x_max":0,"o":"m 273 0 l 420 0 l 420 273 l 682 713 l 522 713 l 349 406 l 345 406 l 172 713 l 12 713 l 273 273 z "},"ᴢ":{"ha":665,"x_min":0,"x_max":0,"o":"m 58 0 l 608 0 l 608 116 l 234 116 l 234 119 l 597 621 l 597 713 l 66 713 l 66 597 l 422 597 l 422 595 l 58 92 z "},"ɶ":{"ha":1139,"x_min":0,"x_max":0,"o":"m 383 -12 b 624 117 491 -12 584 37 l 627 117 l 627 0 l 1098 0 l 1098 116 l 760 116 l 760 307 l 1078 307 l 1078 416 l 760 416 l 760 597 l 1098 597 l 1098 713 l 627 713 l 627 597 l 624 597 b 383 725 584 676 492 725 b 41 357 178 725 41 578 l 41 355 b 383 -12 41 135 178 -12 z m 401 107 b 191 355 273 107 191 204 l 191 357 b 401 606 191 509 273 606 b 612 357 530 606 612 508 l 612 355 b 401 107 612 204 530 107 z "},"ᴁ":{"ha":981,"x_min":0,"x_max":0,"o":"m 12 0 l 159 0 l 242 191 l 476 191 l 476 0 l 941 0 l 941 116 l 610 116 l 610 304 l 923 304 l 923 412 l 610 412 l 610 597 l 941 597 l 941 713 l 331 713 z m 422 605 l 476 605 l 476 297 l 288 297 z "},"ᴆ":{"ha":728,"x_min":0,"x_max":0,"o":"m 77 0 l 348 0 b 688 359 562 0 688 133 l 688 359 b 348 713 688 585 561 713 l 77 713 l 77 403 l 17 403 l 17 310 l 77 310 z m 224 116 l 224 310 l 332 310 l 332 403 l 224 403 l 224 597 l 330 597 b 538 359 463 597 538 513 l 538 359 b 330 116 538 200 465 116 z "},"ᴦ":{"ha":549,"x_min":0,"x_max":0,"o":"m 219 0 l 219 597 l 530 597 l 530 713 l 73 713 l 73 0 z "},"ᴧ":{"ha":677,"x_min":0,"x_max":0,"o":"m 12 0 l 163 0 l 334 574 l 338 574 l 509 0 l 665 0 l 425 713 l 253 713 z "},"ᴨ":{"ha":759,"x_min":0,"x_max":0,"o":"m 687 0 l 687 713 l 73 713 l 73 0 l 219 0 l 219 597 l 540 597 l 540 0 z "},"ᴪ":{"ha":869,"x_min":0,"x_max":0,"o":"m 364 0 l 504 0 l 504 155 b 799 446 686 158 799 271 l 799 713 l 660 713 l 660 445 b 504 270 660 337 607 276 l 504 713 l 364 713 l 364 270 b 208 445 261 276 208 337 l 208 713 l 69 713 l 69 446 b 364 155 69 271 181 158 z "},"a":{"ha":720,"x_min":0,"x_max":0,"o":"m 282 -13 b 500 113 376 -13 459 36 l 503 113 l 503 0 l 650 0 l 650 492 b 366 727 650 635 540 727 b 73 510 190 727 83 633 l 73 503 l 211 503 l 212 509 b 361 606 224 566 277 606 b 503 479 452 606 503 558 l 503 426 l 309 414 b 44 204 140 404 44 328 l 44 203 b 282 -13 44 75 140 -13 z m 192 206 l 192 208 b 329 312 192 268 241 307 l 503 323 l 503 267 b 322 104 503 174 425 104 b 192 206 243 104 192 144 z "},"à":{"ha":720,"x_min":0,"x_max":0,"o":"m 326 794 l 433 794 l 313 1008 l 172 1008 z m 282 -13 b 500 113 376 -13 459 36 l 503 113 l 503 0 l 650 0 l 650 492 b 366 727 650 635 540 727 b 73 510 190 727 83 633 l 73 503 l 211 503 l 212 509 b 361 606 224 566 277 606 b 503 479 452 606 503 558 l 503 426 l 309 414 b 44 204 140 404 44 328 l 44 203 b 282 -13 44 75 140 -13 z m 192 206 l 192 208 b 329 312 192 268 241 307 l 503 323 l 503 267 b 322 104 503 174 425 104 b 192 206 243 104 192 144 z "},"á":{"ha":720,"x_min":0,"x_max":0,"o":"m 402 794 l 557 1008 l 415 1008 l 296 794 z m 282 -13 b 500 113 376 -13 459 36 l 503 113 l 503 0 l 650 0 l 650 492 b 366 727 650 635 540 727 b 73 510 190 727 83 633 l 73 503 l 211 503 l 212 509 b 361 606 224 566 277 606 b 503 479 452 606 503 558 l 503 426 l 309 414 b 44 204 140 404 44 328 l 44 203 b 282 -13 44 75 140 -13 z m 192 206 l 192 208 b 329 312 192 268 241 307 l 503 323 l 503 267 b 322 104 503 174 425 104 b 192 206 243 104 192 144 z "},"ä":{"ha":720,"x_min":0,"x_max":0,"o":"m 231 823 b 309 901 275 823 309 857 b 231 978 309 943 275 978 b 152 901 186 978 152 943 b 231 823 152 857 186 823 z m 498 823 b 577 901 543 823 577 857 b 498 978 577 943 543 978 b 419 901 454 978 419 943 b 498 823 419 857 454 823 z m 282 -13 b 500 113 376 -13 459 36 l 503 113 l 503 0 l 650 0 l 650 492 b 366 727 650 635 540 727 b 73 510 190 727 83 633 l 73 503 l 211 503 l 212 509 b 361 606 224 566 277 606 b 503 479 452 606 503 558 l 503 426 l 309 414 b 44 204 140 404 44 328 l 44 203 b 282 -13 44 75 140 -13 z m 192 206 l 192 208 b 329 312 192 268 241 307 l 503 323 l 503 267 b 322 104 503 174 425 104 b 192 206 243 104 192 144 z "},"ǟ":{"ha":720,"x_min":0,"x_max":0,"o":"m 147 1050 l 582 1050 l 582 1149 l 147 1149 z m 492 804 b 570 881 536 804 570 839 b 492 957 570 923 536 957 b 416 881 450 957 416 923 b 492 804 416 839 450 804 z m 236 804 b 313 881 279 804 313 839 b 236 957 313 923 279 957 b 159 881 193 957 159 923 b 236 804 159 839 193 804 z m 282 -13 b 500 113 376 -13 459 36 l 503 113 l 503 0 l 650 0 l 650 492 b 366 727 650 635 540 727 b 73 510 190 727 83 633 l 73 503 l 211 503 l 212 509 b 361 606 224 566 277 606 b 503 479 452 606 503 558 l 503 426 l 309 414 b 44 204 140 404 44 328 l 44 203 b 282 -13 44 75 140 -13 z m 192 206 l 192 208 b 329 312 192 268 241 307 l 503 323 l 503 267 b 322 104 503 174 425 104 b 192 206 243 104 192 144 z "},"å":{"ha":720,"x_min":0,"x_max":0,"o":"m 364 779 b 505 916 441 779 505 840 l 505 917 b 364 1053 505 993 441 1053 b 224 917 287 1053 224 993 l 224 916 b 364 779 224 840 287 779 z m 364 855 b 303 916 330 855 303 882 l 303 917 b 364 977 303 950 330 977 b 426 917 399 977 426 950 l 426 916 b 364 855 426 882 399 855 z m 282 -13 b 500 113 376 -13 459 36 l 503 113 l 503 0 l 650 0 l 650 492 b 366 727 650 635 540 727 b 73 510 190 727 83 633 l 73 503 l 211 503 l 212 509 b 361 606 224 566 277 606 b 503 479 452 606 503 558 l 503 426 l 309 414 b 44 204 140 404 44 328 l 44 203 b 282 -13 44 75 140 -13 z m 192 206 l 192 208 b 329 312 192 268 241 307 l 503 323 l 503 267 b 322 104 503 174 425 104 b 192 206 243 104 192 144 z "},"ǻ":{"ha":720,"x_min":0,"x_max":0,"o":"m 313 1101 l 407 1101 l 559 1296 l 422 1296 z m 363 781 l 366 781 b 509 914 446 781 509 840 l 509 915 b 366 1047 509 989 446 1047 l 363 1047 b 219 915 283 1047 219 989 l 219 914 b 363 781 219 840 283 781 z m 363 855 b 299 914 328 855 299 881 l 299 915 b 363 974 299 949 328 974 l 366 974 b 430 915 401 974 430 949 l 430 914 b 366 855 430 881 401 855 z m 282 -13 b 500 113 376 -13 459 36 l 503 113 l 503 0 l 650 0 l 650 492 b 366 727 650 635 540 727 b 73 510 190 727 83 633 l 73 503 l 211 503 l 212 509 b 361 606 224 566 277 606 b 503 479 452 606 503 558 l 503 426 l 309 414 b 44 204 140 404 44 328 l 44 203 b 282 -13 44 75 140 -13 z m 192 206 l 192 208 b 329 312 192 268 241 307 l 503 323 l 503 267 b 322 104 503 174 425 104 b 192 206 243 104 192 144 z "},"ã":{"ha":720,"x_min":0,"x_max":0,"o":"m 464 794 b 579 977 536 794 579 855 l 579 985 l 487 985 l 487 980 b 448 897 487 924 475 897 b 385 930 428 897 408 911 l 359 950 b 265 986 334 971 304 986 b 150 804 194 986 150 926 l 150 795 l 242 795 l 242 800 b 281 883 242 857 254 883 b 341 850 300 883 319 868 l 368 829 b 464 794 393 809 425 794 z m 282 -13 b 500 113 376 -13 459 36 l 503 113 l 503 0 l 650 0 l 650 492 b 366 727 650 635 540 727 b 73 510 190 727 83 633 l 73 503 l 211 503 l 212 509 b 361 606 224 566 277 606 b 503 479 452 606 503 558 l 503 426 l 309 414 b 44 204 140 404 44 328 l 44 203 b 282 -13 44 75 140 -13 z m 192 206 l 192 208 b 329 312 192 268 241 307 l 503 323 l 503 267 b 322 104 503 174 425 104 b 192 206 243 104 192 144 z "},"ằ":{"ha":720,"x_min":0,"x_max":0,"o":"m 321 1042 l 416 1042 l 307 1237 l 170 1237 z m 364 789 b 583 990 497 789 583 871 l 583 997 l 484 997 l 484 994 b 364 882 484 933 439 882 b 245 994 290 882 245 933 l 245 997 l 146 997 l 146 990 b 364 789 146 871 231 789 z m 282 -13 b 500 113 376 -13 459 36 l 503 113 l 503 0 l 650 0 l 650 492 b 366 727 650 635 540 727 b 73 510 190 727 83 633 l 73 503 l 211 503 l 212 509 b 361 606 224 566 277 606 b 503 479 452 606 503 558 l 503 426 l 309 414 b 44 204 140 404 44 328 l 44 203 b 282 -13 44 75 140 -13 z m 192 206 l 192 208 b 329 312 192 268 241 307 l 503 323 l 503 267 b 322 104 503 174 425 104 b 192 206 243 104 192 144 z "},"ǡ":{"ha":720,"x_min":0,"x_max":0,"o":"m 147 1050 l 582 1050 l 582 1149 l 147 1149 z m 364 805 b 441 882 408 805 441 840 b 364 958 441 924 408 958 b 287 882 321 958 287 924 b 364 805 287 840 321 805 z m 282 -13 b 500 113 376 -13 459 36 l 503 113 l 503 0 l 650 0 l 650 492 b 366 727 650 635 540 727 b 73 510 190 727 83 633 l 73 503 l 211 503 l 212 509 b 361 606 224 566 277 606 b 503 479 452 606 503 558 l 503 426 l 309 414 b 44 204 140 404 44 328 l 44 203 b 282 -13 44 75 140 -13 z m 192 206 l 192 208 b 329 312 192 268 241 307 l 503 323 l 503 267 b 322 104 503 174 425 104 b 192 206 243 104 192 144 z "},"ḁ":{"ha":720,"x_min":0,"x_max":0,"o":"m 282 -13 b 500 113 376 -13 459 36 l 503 113 l 503 0 l 650 0 l 650 492 b 366 727 650 635 540 727 b 73 510 190 727 83 633 l 73 503 l 211 503 l 212 509 b 361 606 224 566 277 606 b 503 479 452 606 503 558 l 503 426 l 309 414 b 44 204 140 404 44 328 l 44 203 b 282 -13 44 75 140 -13 z m 192 206 l 192 208 b 329 312 192 268 241 307 l 503 323 l 503 267 b 322 104 503 174 425 104 b 192 206 243 104 192 144 z m 366 -68 l 363 -68 b 219 -201 283 -68 219 -126 l 219 -202 b 363 -334 219 -277 283 -334 l 366 -334 b 509 -202 446 -334 509 -277 l 509 -201 b 366 -68 509 -126 446 -68 z m 366 -142 b 430 -201 402 -142 430 -168 l 430 -202 b 366 -260 430 -235 402 -260 l 363 -260 b 299 -202 327 -260 299 -235 l 299 -201 b 363 -142 299 -168 327 -142 z "},"â":{"ha":720,"x_min":0,"x_max":0,"o":"m 144 794 l 261 794 l 363 935 l 467 794 l 584 794 l 429 1008 l 299 1008 z m 282 -13 b 500 113 376 -13 459 36 l 503 113 l 503 0 l 650 0 l 650 492 b 366 727 650 635 540 727 b 73 510 190 727 83 633 l 73 503 l 211 503 l 212 509 b 361 606 224 566 277 606 b 503 479 452 606 503 558 l 503 426 l 309 414 b 44 204 140 404 44 328 l 44 203 b 282 -13 44 75 140 -13 z m 192 206 l 192 208 b 329 312 192 268 241 307 l 503 323 l 503 267 b 322 104 503 174 425 104 b 192 206 243 104 192 144 z "},"ậ":{"ha":720,"x_min":0,"x_max":0,"o":"m 144 794 l 261 794 l 363 935 l 467 794 l 584 794 l 429 1008 l 299 1008 z m 282 -13 b 500 113 376 -13 459 36 l 503 113 l 503 0 l 650 0 l 650 492 b 366 727 650 635 540 727 b 73 510 190 727 83 633 l 73 503 l 211 503 l 212 509 b 361 606 224 566 277 606 b 503 479 452 606 503 558 l 503 426 l 309 414 b 44 204 140 404 44 328 l 44 203 b 282 -13 44 75 140 -13 z m 192 206 l 192 208 b 329 312 192 268 241 307 l 503 323 l 503 267 b 322 104 503 174 425 104 b 192 206 243 104 192 144 z m 364 -279 b 450 -195 412 -279 450 -241 b 364 -110 450 -148 412 -110 b 279 -195 317 -110 279 -148 b 364 -279 279 -241 317 -279 z "},"ấ":{"ha":720,"x_min":0,"x_max":0,"o":"m 483 1019 l 576 1019 l 728 1215 l 592 1215 z m 142 792 l 259 792 l 363 931 l 470 792 l 587 792 l 429 998 l 299 998 z m 282 -13 b 500 113 376 -13 459 36 l 503 113 l 503 0 l 650 0 l 650 492 b 366 727 650 635 540 727 b 73 510 190 727 83 633 l 73 503 l 211 503 l 212 509 b 361 606 224 566 277 606 b 503 479 452 606 503 558 l 503 426 l 309 414 b 44 204 140 404 44 328 l 44 203 b 282 -13 44 75 140 -13 z m 192 206 l 192 208 b 329 312 192 268 241 307 l 503 323 l 503 267 b 322 104 503 174 425 104 b 192 206 243 104 192 144 z "},"ẫ":{"ha":720,"x_min":0,"x_max":0,"o":"m 470 1050 b 585 1223 541 1050 585 1107 l 585 1232 l 492 1232 l 492 1226 b 451 1147 492 1172 478 1147 b 389 1178 431 1147 410 1160 l 362 1197 b 260 1234 336 1218 301 1234 b 145 1061 188 1234 145 1176 l 145 1051 l 237 1051 l 237 1057 b 279 1137 237 1112 250 1137 b 342 1106 298 1137 319 1123 l 368 1086 b 470 1050 395 1065 428 1050 z m 142 792 l 259 792 l 363 931 l 470 792 l 587 792 l 429 998 l 299 998 z m 282 -13 b 500 113 376 -13 459 36 l 503 113 l 503 0 l 650 0 l 650 492 b 366 727 650 635 540 727 b 73 510 190 727 83 633 l 73 503 l 211 503 l 212 509 b 361 606 224 566 277 606 b 503 479 452 606 503 558 l 503 426 l 309 414 b 44 204 140 404 44 328 l 44 203 b 282 -13 44 75 140 -13 z m 192 206 l 192 208 b 329 312 192 268 241 307 l 503 323 l 503 267 b 322 104 503 174 425 104 b 192 206 243 104 192 144 z "},"ầ":{"ha":720,"x_min":0,"x_max":0,"o":"m 492 1019 l 585 1019 l 476 1215 l 340 1215 z m 119 792 l 237 792 l 341 931 l 448 792 l 564 792 l 407 998 l 277 998 z m 282 -13 b 500 113 376 -13 459 36 l 503 113 l 503 0 l 650 0 l 650 492 b 366 727 650 635 540 727 b 73 510 190 727 83 633 l 73 503 l 211 503 l 212 509 b 361 606 224 566 277 606 b 503 479 452 606 503 558 l 503 426 l 309 414 b 44 204 140 404 44 328 l 44 203 b 282 -13 44 75 140 -13 z m 192 206 l 192 208 b 329 312 192 268 241 307 l 503 323 l 503 267 b 322 104 503 174 425 104 b 192 206 243 104 192 144 z "},"ẩ":{"ha":720,"x_min":0,"x_max":0,"o":"m 479 1017 l 570 1017 b 633 1119 614 1045 633 1080 b 494 1224 633 1183 569 1224 b 416 1212 463 1224 434 1219 l 416 1135 b 460 1139 425 1137 439 1139 b 534 1095 503 1139 534 1122 b 479 1020 534 1072 515 1046 z m 142 792 l 259 792 l 363 931 l 470 792 l 587 792 l 429 998 l 299 998 z m 282 -13 b 500 113 376 -13 459 36 l 503 113 l 503 0 l 650 0 l 650 492 b 366 727 650 635 540 727 b 73 510 190 727 83 633 l 73 503 l 211 503 l 212 509 b 361 606 224 566 277 606 b 503 479 452 606 503 558 l 503 426 l 309 414 b 44 204 140 404 44 328 l 44 203 b 282 -13 44 75 140 -13 z m 192 206 l 192 208 b 329 312 192 268 241 307 l 503 323 l 503 267 b 322 104 503 174 425 104 b 192 206 243 104 192 144 z "},"ă":{"ha":720,"x_min":0,"x_max":0,"o":"m 364 792 b 582 996 496 792 582 876 l 582 1003 l 482 1003 l 482 1000 b 364 885 482 938 438 885 b 247 1000 291 885 247 938 l 247 1003 l 147 1003 l 147 996 b 364 792 147 876 232 792 z m 282 -13 b 500 113 376 -13 459 36 l 503 113 l 503 0 l 650 0 l 650 492 b 366 727 650 635 540 727 b 73 510 190 727 83 633 l 73 503 l 211 503 l 212 509 b 361 606 224 566 277 606 b 503 479 452 606 503 558 l 503 426 l 309 414 b 44 204 140 404 44 328 l 44 203 b 282 -13 44 75 140 -13 z m 192 206 l 192 208 b 329 312 192 268 241 307 l 503 323 l 503 267 b 322 104 503 174 425 104 b 192 206 243 104 192 144 z "},"ắ":{"ha":720,"x_min":0,"x_max":0,"o":"m 313 1042 l 407 1042 l 559 1237 l 422 1237 z m 364 789 b 583 990 497 789 583 871 l 583 997 l 484 997 l 484 994 b 364 882 484 933 439 882 b 245 994 290 882 245 933 l 245 997 l 146 997 l 146 990 b 364 789 146 871 231 789 z m 282 -13 b 500 113 376 -13 459 36 l 503 113 l 503 0 l 650 0 l 650 492 b 366 727 650 635 540 727 b 73 510 190 727 83 633 l 73 503 l 211 503 l 212 509 b 361 606 224 566 277 606 b 503 479 452 606 503 558 l 503 426 l 309 414 b 44 204 140 404 44 328 l 44 203 b 282 -13 44 75 140 -13 z m 192 206 l 192 208 b 329 312 192 268 241 307 l 503 323 l 503 267 b 322 104 503 174 425 104 b 192 206 243 104 192 144 z "},"ẵ":{"ha":720,"x_min":0,"x_max":0,"o":"m 469 1050 b 585 1223 540 1050 585 1107 l 585 1232 l 492 1232 l 492 1226 b 450 1147 492 1172 477 1147 b 388 1178 430 1147 410 1160 l 362 1197 b 259 1234 336 1218 300 1234 b 144 1061 187 1234 144 1176 l 144 1051 l 237 1051 l 237 1057 b 278 1137 237 1112 250 1137 b 341 1106 298 1137 319 1123 l 367 1086 b 469 1050 394 1065 427 1050 z m 364 789 b 583 990 497 789 583 871 l 583 997 l 484 997 l 484 994 b 364 882 484 933 439 882 b 245 994 290 882 245 933 l 245 997 l 146 997 l 146 990 b 364 789 146 871 231 789 z m 282 -13 b 500 113 376 -13 459 36 l 503 113 l 503 0 l 650 0 l 650 492 b 366 727 650 635 540 727 b 73 510 190 727 83 633 l 73 503 l 211 503 l 212 509 b 361 606 224 566 277 606 b 503 479 452 606 503 558 l 503 426 l 309 414 b 44 204 140 404 44 328 l 44 203 b 282 -13 44 75 140 -13 z m 192 206 l 192 208 b 329 312 192 268 241 307 l 503 323 l 503 267 b 322 104 503 174 425 104 b 192 206 243 104 192 144 z "},"ẳ":{"ha":720,"x_min":0,"x_max":0,"o":"m 309 1039 l 401 1039 b 463 1141 444 1067 463 1102 b 325 1246 463 1206 399 1246 b 247 1234 293 1246 264 1241 l 247 1157 b 290 1161 256 1160 269 1161 b 365 1117 332 1161 365 1145 b 309 1042 365 1095 345 1069 z m 364 789 b 583 990 497 789 583 871 l 583 997 l 484 997 l 484 994 b 364 882 484 933 439 882 b 245 994 290 882 245 933 l 245 997 l 146 997 l 146 990 b 364 789 146 871 231 789 z m 282 -13 b 500 113 376 -13 459 36 l 503 113 l 503 0 l 650 0 l 650 492 b 366 727 650 635 540 727 b 73 510 190 727 83 633 l 73 503 l 211 503 l 212 509 b 361 606 224 566 277 606 b 503 479 452 606 503 558 l 503 426 l 309 414 b 44 204 140 404 44 328 l 44 203 b 282 -13 44 75 140 -13 z m 192 206 l 192 208 b 329 312 192 268 241 307 l 503 323 l 503 267 b 322 104 503 174 425 104 b 192 206 243 104 192 144 z "},"ặ":{"ha":720,"x_min":0,"x_max":0,"o":"m 364 792 b 582 996 496 792 582 876 l 582 1003 l 482 1003 l 482 1000 b 364 885 482 938 438 885 b 247 1000 291 885 247 938 l 247 1003 l 147 1003 l 147 996 b 364 792 147 876 232 792 z m 282 -13 b 500 113 376 -13 459 36 l 503 113 l 503 0 l 650 0 l 650 492 b 366 727 650 635 540 727 b 73 510 190 727 83 633 l 73 503 l 211 503 l 212 509 b 361 606 224 566 277 606 b 503 479 452 606 503 558 l 503 426 l 309 414 b 44 204 140 404 44 328 l 44 203 b 282 -13 44 75 140 -13 z m 192 206 l 192 208 b 329 312 192 268 241 307 l 503 323 l 503 267 b 322 104 503 174 425 104 b 192 206 243 104 192 144 z m 364 -279 b 450 -195 412 -279 450 -241 b 364 -110 450 -148 412 -110 b 279 -195 317 -110 279 -148 b 364 -279 279 -241 317 -279 z "},"ȃ":{"ha":720,"x_min":0,"x_max":0,"o":"m 364 1003 b 156 799 237 1003 156 920 l 156 792 l 256 792 l 256 795 b 364 909 256 857 296 909 b 473 795 432 909 473 857 l 473 792 l 572 792 l 572 799 b 364 1003 572 920 491 1003 z m 282 -13 b 500 113 376 -13 459 36 l 503 113 l 503 0 l 650 0 l 650 492 b 366 727 650 635 540 727 b 73 510 190 727 83 633 l 73 503 l 211 503 l 212 509 b 361 606 224 566 277 606 b 503 479 452 606 503 558 l 503 426 l 309 414 b 44 204 140 404 44 328 l 44 203 b 282 -13 44 75 140 -13 z m 192 206 l 192 208 b 329 312 192 268 241 307 l 503 323 l 503 267 b 322 104 503 174 425 104 b 192 206 243 104 192 144 z "},"ǎ":{"ha":720,"x_min":0,"x_max":0,"o":"m 584 1008 l 467 1008 l 365 863 l 261 1008 l 144 1008 l 302 794 l 428 794 z m 282 -13 b 500 113 376 -13 459 36 l 503 113 l 503 0 l 650 0 l 650 492 b 366 727 650 635 540 727 b 73 510 190 727 83 633 l 73 503 l 211 503 l 212 509 b 361 606 224 566 277 606 b 503 479 452 606 503 558 l 503 426 l 309 414 b 44 204 140 404 44 328 l 44 203 b 282 -13 44 75 140 -13 z m 192 206 l 192 208 b 329 312 192 268 241 307 l 503 323 l 503 267 b 322 104 503 174 425 104 b 192 206 243 104 192 144 z "},"ȧ":{"ha":720,"x_min":0,"x_max":0,"o":"m 364 823 b 450 907 412 823 450 861 b 364 992 450 954 412 992 b 279 907 317 992 279 954 b 364 823 279 861 317 823 z m 282 -13 b 500 113 376 -13 459 36 l 503 113 l 503 0 l 650 0 l 650 492 b 366 727 650 635 540 727 b 73 510 190 727 83 633 l 73 503 l 211 503 l 212 509 b 361 606 224 566 277 606 b 503 479 452 606 503 558 l 503 426 l 309 414 b 44 204 140 404 44 328 l 44 203 b 282 -13 44 75 140 -13 z m 192 206 l 192 208 b 329 312 192 268 241 307 l 503 323 l 503 267 b 322 104 503 174 425 104 b 192 206 243 104 192 144 z "},"ạ":{"ha":720,"x_min":0,"x_max":0,"o":"m 282 -13 b 500 113 376 -13 459 36 l 503 113 l 503 0 l 650 0 l 650 492 b 366 727 650 635 540 727 b 73 510 190 727 83 633 l 73 503 l 211 503 l 212 509 b 361 606 224 566 277 606 b 503 479 452 606 503 558 l 503 426 l 309 414 b 44 204 140 404 44 328 l 44 203 b 282 -13 44 75 140 -13 z m 192 206 l 192 208 b 329 312 192 268 241 307 l 503 323 l 503 267 b 322 104 503 174 425 104 b 192 206 243 104 192 144 z m 364 -279 b 450 -195 412 -279 450 -241 b 364 -110 450 -148 412 -110 b 279 -195 317 -110 279 -148 b 364 -279 279 -241 317 -279 z "},"ả":{"ha":720,"x_min":0,"x_max":0,"o":"m 307 794 l 401 794 b 473 905 449 826 473 862 b 320 1021 473 976 403 1021 b 239 1008 287 1021 257 1015 l 239 928 b 286 932 250 930 264 932 b 372 882 334 932 372 913 b 307 796 372 855 347 827 z m 282 -13 b 500 113 376 -13 459 36 l 503 113 l 503 0 l 650 0 l 650 492 b 366 727 650 635 540 727 b 73 510 190 727 83 633 l 73 503 l 211 503 l 212 509 b 361 606 224 566 277 606 b 503 479 452 606 503 558 l 503 426 l 309 414 b 44 204 140 404 44 328 l 44 203 b 282 -13 44 75 140 -13 z m 192 206 l 192 208 b 329 312 192 268 241 307 l 503 323 l 503 267 b 322 104 503 174 425 104 b 192 206 243 104 192 144 z "},"ȁ":{"ha":720,"x_min":0,"x_max":0,"o":"m 209 794 l 315 794 l 181 1008 l 39 1008 z m 439 794 l 545 794 l 426 1008 l 284 1008 z m 282 -13 b 500 113 376 -13 459 36 l 503 113 l 503 0 l 650 0 l 650 492 b 366 727 650 635 540 727 b 73 510 190 727 83 633 l 73 503 l 211 503 l 212 509 b 361 606 224 566 277 606 b 503 479 452 606 503 558 l 503 426 l 309 414 b 44 204 140 404 44 328 l 44 203 b 282 -13 44 75 140 -13 z m 192 206 l 192 208 b 329 312 192 268 241 307 l 503 323 l 503 267 b 322 104 503 174 425 104 b 192 206 243 104 192 144 z "},"ā":{"ha":720,"x_min":0,"x_max":0,"o":"m 166 850 l 562 850 l 562 949 l 166 949 z m 282 -13 b 500 113 376 -13 459 36 l 503 113 l 503 0 l 650 0 l 650 492 b 366 727 650 635 540 727 b 73 510 190 727 83 633 l 73 503 l 211 503 l 212 509 b 361 606 224 566 277 606 b 503 479 452 606 503 558 l 503 426 l 309 414 b 44 204 140 404 44 328 l 44 203 b 282 -13 44 75 140 -13 z m 192 206 l 192 208 b 329 312 192 268 241 307 l 503 323 l 503 267 b 322 104 503 174 425 104 b 192 206 243 104 192 144 z "},"ą":{"ha":720,"x_min":0,"x_max":0,"o":"m 282 -13 b 500 113 376 -13 459 36 l 503 113 l 503 0 l 519 0 b 421 -177 458 -46 421 -111 l 421 -178 b 581 -323 421 -273 493 -323 b 660 -309 606 -323 641 -319 l 660 -224 b 621 -231 650 -229 636 -231 b 553 -156 583 -231 553 -207 l 553 -155 b 650 0 553 -94 587 -45 l 650 492 b 366 727 650 635 540 727 b 73 510 190 727 83 633 l 73 503 l 211 503 l 212 509 b 361 606 224 566 277 606 b 503 479 452 606 503 558 l 503 426 l 309 414 b 44 204 140 404 44 328 l 44 203 b 282 -13 44 75 140 -13 z m 192 206 l 192 208 b 329 312 192 268 241 307 l 503 323 l 503 267 b 322 104 503 174 425 104 b 192 206 243 104 192 144 z "},"ɐ":{"ha":720,"x_min":0,"x_max":0,"o":"m 437 726 b 220 601 343 726 261 677 l 216 601 l 216 713 l 69 713 l 69 222 b 355 -14 69 79 180 -14 b 646 203 530 -14 636 81 l 647 211 l 509 211 l 508 205 b 358 107 496 147 443 107 b 216 233 267 107 216 155 l 216 287 l 410 298 b 676 509 579 309 676 385 l 676 511 b 437 726 676 639 580 726 z m 216 446 b 397 608 216 539 294 608 b 528 507 477 608 528 570 l 528 506 b 391 401 528 445 479 406 l 216 391 z "},"ɑ":{"ha":790,"x_min":0,"x_max":0,"o":"m 339 -14 b 563 121 441 -14 520 37 l 566 121 l 566 0 l 713 0 l 713 713 l 566 713 l 566 592 l 563 592 b 338 727 520 676 439 727 b 41 357 159 727 41 585 l 41 357 b 339 -14 41 130 157 -14 z m 378 112 b 191 357 262 112 191 205 l 191 357 b 378 602 191 508 262 602 b 566 357 488 602 566 505 l 566 357 b 378 112 566 208 488 112 z "},"ɒ":{"ha":790,"x_min":0,"x_max":0,"o":"m 451 727 b 227 592 349 727 269 675 l 224 592 l 224 713 l 77 713 l 77 0 l 224 0 l 224 121 l 227 121 b 452 -14 270 37 351 -14 b 749 356 631 -14 749 128 l 749 357 b 451 727 749 584 633 727 z m 412 602 b 600 357 528 602 600 508 l 600 356 b 412 112 600 205 528 112 b 224 356 302 112 224 208 l 224 357 b 412 602 224 505 301 602 z "},"b":{"ha":791,"x_min":0,"x_max":0,"o":"m 452 -14 b 750 357 633 -14 750 130 l 750 357 b 453 727 750 585 632 727 b 228 592 352 727 271 676 l 224 592 l 224 979 l 78 979 l 78 0 l 224 0 l 224 121 l 228 121 b 452 -14 270 37 349 -14 z m 413 112 b 224 357 302 112 224 208 l 224 357 b 413 602 224 505 302 602 b 600 357 528 602 600 508 l 600 357 b 413 112 600 205 528 112 z "},"ḇ":{"ha":791,"x_min":0,"x_max":0,"o":"m 452 -14 b 750 357 633 -14 750 130 l 750 357 b 453 727 750 585 632 727 b 228 592 352 727 271 676 l 224 592 l 224 979 l 78 979 l 78 0 l 224 0 l 224 121 l 228 121 b 452 -14 270 37 349 -14 z m 413 112 b 224 357 302 112 224 208 l 224 357 b 413 602 224 505 302 602 b 600 357 528 602 600 508 l 600 357 b 413 112 600 205 528 112 z m 216 -237 l 612 -237 l 612 -138 l 216 -138 z "},"ḅ":{"ha":791,"x_min":0,"x_max":0,"o":"m 452 -14 b 750 357 633 -14 750 130 l 750 357 b 453 727 750 585 632 727 b 228 592 352 727 271 676 l 224 592 l 224 979 l 78 979 l 78 0 l 224 0 l 224 121 l 228 121 b 452 -14 270 37 349 -14 z m 413 112 b 224 357 302 112 224 208 l 224 357 b 413 602 224 505 302 602 b 600 357 528 602 600 508 l 600 357 b 413 112 600 205 528 112 z m 414 -279 b 499 -195 462 -279 499 -241 b 414 -110 499 -148 462 -110 b 329 -195 367 -110 329 -148 b 414 -279 329 -241 367 -279 z "},"ḃ":{"ha":791,"x_min":0,"x_max":0,"o":"m 151 1083 b 232 1164 196 1083 232 1120 b 151 1243 232 1207 196 1243 b 70 1164 106 1243 70 1207 b 151 1083 70 1120 106 1083 z m 452 -14 b 750 357 633 -14 750 130 l 750 357 b 453 727 750 585 632 727 b 228 592 352 727 271 676 l 224 592 l 224 979 l 78 979 l 78 0 l 224 0 l 224 121 l 228 121 b 452 -14 270 37 349 -14 z m 413 112 b 224 357 302 112 224 208 l 224 357 b 413 602 224 505 302 602 b 600 357 528 602 600 508 l 600 357 b 413 112 600 205 528 112 z "},"ɓ":{"ha":791,"x_min":0,"x_max":0,"o":"m 452 -14 b 750 357 633 -14 750 130 l 750 357 b 453 727 750 585 632 727 b 228 592 352 727 271 676 l 224 592 l 224 784 b 318 878 224 847 255 878 b 370 875 337 878 356 876 l 370 988 b 294 993 352 991 323 993 b 78 785 149 993 78 924 l 78 0 l 224 0 l 224 121 l 228 121 b 452 -14 270 37 349 -14 z m 413 112 b 224 357 302 112 224 208 l 224 357 b 413 602 224 505 302 602 b 600 357 528 602 600 508 l 600 357 b 413 112 600 205 528 112 z "},"c":{"ha":718,"x_min":0,"x_max":0,"o":"m 379 -14 b 686 239 551 -14 670 96 l 686 243 l 545 243 l 545 238 b 379 109 527 161 469 109 b 191 356 266 109 191 200 l 191 357 b 378 604 191 509 264 604 b 544 475 474 604 528 545 l 545 470 l 685 470 l 684 475 b 377 727 672 609 561 727 b 41 358 174 727 41 584 l 41 357 b 379 -14 41 129 171 -14 z "},"ć":{"ha":718,"x_min":0,"x_max":0,"o":"m 417 794 l 572 1008 l 429 1008 l 311 794 z m 379 -14 b 686 239 551 -14 670 96 l 686 243 l 545 243 l 545 238 b 379 109 527 161 469 109 b 191 356 266 109 191 200 l 191 357 b 378 604 191 509 264 604 b 544 475 474 604 528 545 l 545 470 l 685 470 l 684 475 b 377 727 672 609 561 727 b 41 358 174 727 41 584 l 41 357 b 379 -14 41 129 171 -14 z "},"č":{"ha":718,"x_min":0,"x_max":0,"o":"m 599 1008 l 482 1008 l 380 863 l 275 1008 l 159 1008 l 316 794 l 442 794 z m 379 -14 b 686 239 551 -14 670 96 l 686 243 l 545 243 l 545 238 b 379 109 527 161 469 109 b 191 356 266 109 191 200 l 191 357 b 378 604 191 509 264 604 b 544 475 474 604 528 545 l 545 470 l 685 470 l 684 475 b 377 727 672 609 561 727 b 41 358 174 727 41 584 l 41 357 b 379 -14 41 129 171 -14 z "},"ĉ":{"ha":718,"x_min":0,"x_max":0,"o":"m 159 794 l 275 794 l 378 935 l 482 794 l 599 794 l 444 1008 l 313 1008 z m 379 -14 b 686 239 551 -14 670 96 l 686 243 l 545 243 l 545 238 b 379 109 527 161 469 109 b 191 356 266 109 191 200 l 191 357 b 378 604 191 509 264 604 b 544 475 474 604 528 545 l 545 470 l 685 470 l 684 475 b 377 727 672 609 561 727 b 41 358 174 727 41 584 l 41 357 b 379 -14 41 129 171 -14 z "},"ċ":{"ha":718,"x_min":0,"x_max":0,"o":"m 378 823 b 464 907 427 823 464 861 b 378 992 464 954 427 992 b 293 907 332 992 293 954 b 378 823 293 861 332 823 z m 379 -14 b 686 239 551 -14 670 96 l 686 243 l 545 243 l 545 238 b 379 109 527 161 469 109 b 191 356 266 109 191 200 l 191 357 b 378 604 191 509 264 604 b 544 475 474 604 528 545 l 545 470 l 685 470 l 684 475 b 377 727 672 609 561 727 b 41 358 174 727 41 584 l 41 357 b 379 -14 41 129 171 -14 z "},"ç":{"ha":718,"x_min":0,"x_max":0,"o":"m 370 -314 b 523 -186 454 -314 523 -267 l 523 -185 b 401 -61 523 -107 474 -66 l 434 -10 b 686 239 576 11 672 112 l 686 243 l 545 243 l 545 238 b 379 109 527 161 469 109 b 191 356 266 109 191 200 l 191 357 b 378 604 191 509 264 604 b 544 475 474 604 528 545 l 545 470 l 685 470 l 684 475 b 377 727 672 609 561 727 b 41 358 174 727 41 584 l 41 357 b 339 -12 41 144 155 5 l 296 -79 l 296 -138 l 325 -138 b 403 -185 376 -138 403 -154 l 403 -186 b 336 -226 403 -215 372 -226 b 264 -215 308 -226 280 -220 l 264 -297 b 370 -314 286 -307 326 -314 z "},"ḉ":{"ha":718,"x_min":0,"x_max":0,"o":"m 417 794 l 572 1008 l 429 1008 l 311 794 z m 370 -314 b 523 -186 454 -314 523 -267 l 523 -185 b 401 -61 523 -107 474 -66 l 434 -10 b 686 239 576 11 672 112 l 686 243 l 545 243 l 545 238 b 379 109 527 161 469 109 b 191 356 266 109 191 200 l 191 357 b 378 604 191 509 264 604 b 544 475 474 604 528 545 l 545 470 l 685 470 l 684 475 b 377 727 672 609 561 727 b 41 358 174 727 41 584 l 41 357 b 339 -12 41 144 155 5 l 296 -79 l 296 -138 l 325 -138 b 403 -185 376 -138 403 -154 l 403 -186 b 336 -226 403 -215 372 -226 b 264 -215 308 -226 280 -220 l 264 -297 b 370 -314 286 -307 326 -314 z "},"ɕ":{"ha":718,"x_min":0,"x_max":0,"o":"m 359 -152 l 468 -152 l 468 -11 b 696 179 602 5 696 78 l 696 180 b 536 331 696 265 631 331 b 359 122 420 331 359 243 l 359 93 b 189 355 241 114 189 206 l 189 357 b 378 604 189 510 264 604 b 543 476 471 604 526 549 l 545 468 l 685 468 l 683 480 b 376 727 665 617 555 727 b 41 357 164 727 41 572 l 41 356 b 359 -12 41 128 174 7 z m 468 125 b 534 228 468 195 493 228 b 585 176 562 228 585 209 l 585 174 b 468 90 585 132 551 100 z "},"ʗ":{"ha":718,"x_min":0,"x_max":0,"o":"m 379 -252 b 686 53 551 -252 670 -118 l 686 60 l 545 60 l 545 53 b 379 -125 527 -52 469 -125 b 191 228 266 -125 191 7 l 191 229 b 378 584 191 446 264 584 b 544 406 474 584 528 499 l 545 399 l 685 399 l 684 406 b 377 710 672 557 561 710 b 41 231 174 710 41 522 l 41 230 b 379 -252 41 -64 171 -252 z "},"d":{"ha":790,"x_min":0,"x_max":0,"o":"m 339 -14 b 563 121 441 -14 520 37 l 566 121 l 566 0 l 713 0 l 713 979 l 566 979 l 566 592 l 563 592 b 338 727 520 676 439 727 b 41 357 159 727 41 585 l 41 357 b 339 -14 41 130 157 -14 z m 378 112 b 191 357 262 112 191 205 l 191 357 b 378 602 191 508 262 602 b 566 357 488 602 566 505 l 566 357 b 378 112 566 208 488 112 z "},"ḋ":{"ha":790,"x_min":0,"x_max":0,"o":"m 639 1083 b 720 1164 684 1083 720 1120 b 639 1243 720 1207 684 1243 b 558 1164 594 1243 558 1207 b 639 1083 558 1120 594 1083 z m 339 -14 b 563 121 441 -14 520 37 l 566 121 l 566 0 l 713 0 l 713 979 l 566 979 l 566 592 l 563 592 b 338 727 520 676 439 727 b 41 357 159 727 41 585 l 41 357 b 339 -14 41 130 157 -14 z m 378 112 b 191 357 262 112 191 205 l 191 357 b 378 602 191 508 262 602 b 566 357 488 602 566 505 l 566 357 b 378 112 566 208 488 112 z "},"ḓ":{"ha":790,"x_min":0,"x_max":0,"o":"m 339 -14 b 563 121 441 -14 520 37 l 566 121 l 566 0 l 713 0 l 713 979 l 566 979 l 566 592 l 563 592 b 338 727 520 676 439 727 b 41 357 159 727 41 585 l 41 357 b 339 -14 41 130 157 -14 z m 378 112 b 191 357 262 112 191 205 l 191 357 b 378 602 191 508 262 602 b 566 357 488 602 566 505 l 566 357 b 378 112 566 208 488 112 z m 193 -293 l 310 -293 l 412 -150 l 516 -293 l 633 -293 l 476 -81 l 350 -81 z "},"ḑ":{"ha":790,"x_min":0,"x_max":0,"o":"m 339 -14 b 563 121 441 -14 520 37 l 566 121 l 566 0 l 713 0 l 713 979 l 566 979 l 566 592 l 563 592 b 338 727 520 676 439 727 b 41 357 159 727 41 585 l 41 357 b 339 -14 41 130 157 -14 z m 378 112 b 191 357 262 112 191 205 l 191 357 b 378 602 191 508 262 602 b 566 357 488 602 566 505 l 566 357 b 378 112 566 208 488 112 z m 286 -314 l 379 -314 l 478 -81 l 343 -81 z "},"ḏ":{"ha":790,"x_min":0,"x_max":0,"o":"m 339 -14 b 563 121 441 -14 520 37 l 566 121 l 566 0 l 713 0 l 713 979 l 566 979 l 566 592 l 563 592 b 338 727 520 676 439 727 b 41 357 159 727 41 585 l 41 357 b 339 -14 41 130 157 -14 z m 378 112 b 191 357 262 112 191 205 l 191 357 b 378 602 191 508 262 602 b 566 357 488 602 566 505 l 566 357 b 378 112 566 208 488 112 z m 215 -237 l 611 -237 l 611 -138 l 215 -138 z "},"ď":{"ha":938,"x_min":0,"x_max":0,"o":"m 760 794 l 849 794 l 938 1008 l 812 1008 z m 339 -14 b 563 121 441 -14 520 37 l 566 121 l 566 0 l 713 0 l 713 979 l 566 979 l 566 592 l 563 592 b 338 727 520 676 439 727 b 41 357 159 727 41 585 l 41 357 b 339 -14 41 130 157 -14 z m 378 112 b 191 357 262 112 191 205 l 191 357 b 378 602 191 508 262 602 b 566 357 488 602 566 505 l 566 357 b 378 112 566 208 488 112 z "},"ḍ":{"ha":790,"x_min":0,"x_max":0,"o":"m 339 -14 b 563 121 441 -14 520 37 l 566 121 l 566 0 l 713 0 l 713 979 l 566 979 l 566 592 l 563 592 b 338 727 520 676 439 727 b 41 357 159 727 41 585 l 41 357 b 339 -14 41 130 157 -14 z m 378 112 b 191 357 262 112 191 205 l 191 357 b 378 602 191 508 262 602 b 566 357 488 602 566 505 l 566 357 b 378 112 566 208 488 112 z m 413 -279 b 498 -195 461 -279 498 -241 b 413 -110 498 -148 461 -110 b 328 -195 366 -110 328 -148 b 413 -279 328 -241 366 -279 z "},"đ":{"ha":815,"x_min":0,"x_max":0,"o":"m 339 -14 b 563 121 441 -14 520 37 l 566 121 l 566 0 l 713 0 l 713 795 l 790 795 l 790 887 l 713 887 l 713 979 l 566 979 l 566 887 l 435 887 l 435 795 l 566 795 l 566 592 l 563 592 b 338 727 520 676 439 727 b 41 357 159 727 41 585 l 41 357 b 339 -14 41 130 157 -14 z m 378 112 b 191 357 262 112 191 205 l 191 357 b 378 602 191 508 262 602 b 566 357 488 602 566 505 l 566 357 b 378 112 566 208 488 112 z "},"ɗ":{"ha":790,"x_min":0,"x_max":0,"o":"m 339 -14 b 563 121 441 -14 520 37 l 566 121 l 566 0 l 713 0 l 713 784 b 806 878 713 847 743 878 b 858 875 825 878 844 876 l 858 988 b 781 993 840 991 810 993 b 566 785 637 993 566 924 l 566 592 l 563 592 b 338 727 520 676 439 727 b 41 357 159 727 41 585 l 41 357 b 339 -14 41 130 157 -14 z m 378 112 b 191 357 262 112 191 205 l 191 357 b 378 602 191 508 262 602 b 566 357 488 602 566 505 l 566 357 b 378 112 566 208 488 112 z "},"ɖ":{"ha":790,"x_min":0,"x_max":0,"o":"m 339 -14 b 563 121 441 -14 520 37 l 566 121 l 566 -30 b 781 -238 566 -170 637 -238 b 858 -233 810 -238 840 -236 l 858 -120 b 806 -123 844 -121 825 -123 b 713 -29 743 -123 713 -92 l 713 979 l 566 979 l 566 592 l 563 592 b 338 727 520 676 439 727 b 41 357 159 727 41 585 l 41 357 b 339 -14 41 130 157 -14 z m 378 112 b 191 357 262 112 191 205 l 191 357 b 378 602 191 508 262 602 b 566 357 488 602 566 505 l 566 357 b 378 112 566 208 488 112 z "},"e":{"ha":733,"x_min":0,"x_max":0,"o":"m 377 -14 b 683 202 550 -14 660 89 l 684 210 l 545 210 l 543 204 b 380 106 525 151 467 106 b 187 319 264 106 190 184 l 692 319 l 692 369 b 370 727 692 583 570 727 b 41 355 170 727 41 578 l 41 354 b 377 -14 41 129 168 -14 z m 370 607 b 547 423 466 607 535 547 l 189 423 b 370 607 202 543 275 607 z "},"è":{"ha":733,"x_min":0,"x_max":0,"o":"m 336 794 l 441 794 l 323 1008 l 180 1008 z m 377 -14 b 683 202 550 -14 660 89 l 684 210 l 545 210 l 543 204 b 380 106 525 151 467 106 b 187 319 264 106 190 184 l 692 319 l 692 369 b 370 727 692 583 570 727 b 41 355 170 727 41 578 l 41 354 b 377 -14 41 129 168 -14 z m 370 607 b 547 423 466 607 535 547 l 189 423 b 370 607 202 543 275 607 z "},"ȅ":{"ha":733,"x_min":0,"x_max":0,"o":"m 218 794 l 324 794 l 191 1008 l 48 1008 z m 448 794 l 554 794 l 435 1008 l 293 1008 z m 377 -14 b 683 202 550 -14 660 89 l 684 210 l 545 210 l 543 204 b 380 106 525 151 467 106 b 187 319 264 106 190 184 l 692 319 l 692 369 b 370 727 692 583 570 727 b 41 355 170 727 41 578 l 41 354 b 377 -14 41 129 168 -14 z m 370 607 b 547 423 466 607 535 547 l 189 423 b 370 607 202 543 275 607 z "},"é":{"ha":733,"x_min":0,"x_max":0,"o":"m 412 794 l 567 1008 l 425 1008 l 306 794 z m 377 -14 b 683 202 550 -14 660 89 l 684 210 l 545 210 l 543 204 b 380 106 525 151 467 106 b 187 319 264 106 190 184 l 692 319 l 692 369 b 370 727 692 583 570 727 b 41 355 170 727 41 578 l 41 354 b 377 -14 41 129 168 -14 z m 370 607 b 547 423 466 607 535 547 l 189 423 b 370 607 202 543 275 607 z "},"ê":{"ha":733,"x_min":0,"x_max":0,"o":"m 154 794 l 271 794 l 373 935 l 477 794 l 593 794 l 439 1008 l 308 1008 z m 377 -14 b 683 202 550 -14 660 89 l 684 210 l 545 210 l 543 204 b 380 106 525 151 467 106 b 187 319 264 106 190 184 l 692 319 l 692 369 b 370 727 692 583 570 727 b 41 355 170 727 41 578 l 41 354 b 377 -14 41 129 168 -14 z m 370 607 b 547 423 466 607 535 547 l 189 423 b 370 607 202 543 275 607 z "},"ể":{"ha":733,"x_min":0,"x_max":0,"o":"m 488 1017 l 580 1017 b 642 1119 623 1045 642 1080 b 504 1224 642 1183 578 1224 b 426 1212 472 1224 444 1219 l 426 1135 b 469 1139 435 1137 448 1139 b 544 1095 511 1139 544 1122 b 488 1020 544 1072 525 1046 z m 151 792 l 269 792 l 373 931 l 479 792 l 596 792 l 439 998 l 309 998 z m 377 -14 b 683 202 550 -14 660 89 l 684 210 l 545 210 l 543 204 b 380 106 525 151 467 106 b 187 319 264 106 190 184 l 692 319 l 692 369 b 370 727 692 583 570 727 b 41 355 170 727 41 578 l 41 354 b 377 -14 41 129 168 -14 z m 370 607 b 547 423 466 607 535 547 l 189 423 b 370 607 202 543 275 607 z "},"ề":{"ha":733,"x_min":0,"x_max":0,"o":"m 501 1019 l 595 1019 l 486 1215 l 349 1215 z m 129 792 l 246 792 l 351 931 l 457 792 l 574 792 l 416 998 l 286 998 z m 377 -14 b 683 202 550 -14 660 89 l 684 210 l 545 210 l 543 204 b 380 106 525 151 467 106 b 187 319 264 106 190 184 l 692 319 l 692 369 b 370 727 692 583 570 727 b 41 355 170 727 41 578 l 41 354 b 377 -14 41 129 168 -14 z m 370 607 b 547 423 466 607 535 547 l 189 423 b 370 607 202 543 275 607 z "},"ễ":{"ha":733,"x_min":0,"x_max":0,"o":"m 479 1050 b 594 1223 550 1050 594 1107 l 594 1232 l 502 1232 l 502 1226 b 460 1147 502 1172 488 1147 b 397 1178 440 1147 420 1160 l 372 1197 b 269 1234 345 1218 311 1234 b 155 1061 197 1234 155 1176 l 155 1051 l 247 1051 l 247 1057 b 288 1137 247 1112 260 1137 b 351 1106 308 1137 329 1123 l 377 1086 b 479 1050 404 1065 437 1050 z m 151 792 l 269 792 l 373 931 l 479 792 l 596 792 l 439 998 l 309 998 z m 377 -14 b 683 202 550 -14 660 89 l 684 210 l 545 210 l 543 204 b 380 106 525 151 467 106 b 187 319 264 106 190 184 l 692 319 l 692 369 b 370 727 692 583 570 727 b 41 355 170 727 41 578 l 41 354 b 377 -14 41 129 168 -14 z m 370 607 b 547 423 466 607 535 547 l 189 423 b 370 607 202 543 275 607 z "},"ệ":{"ha":733,"x_min":0,"x_max":0,"o":"m 154 794 l 271 794 l 373 935 l 477 794 l 593 794 l 439 1008 l 308 1008 z m 377 -14 b 683 202 550 -14 660 89 l 684 210 l 545 210 l 543 204 b 380 106 525 151 467 106 b 187 319 264 106 190 184 l 692 319 l 692 369 b 370 727 692 583 570 727 b 41 355 170 727 41 578 l 41 354 b 377 -14 41 129 168 -14 z m 370 607 b 547 423 466 607 535 547 l 189 423 b 370 607 202 543 275 607 z m 378 -279 b 464 -195 427 -279 464 -241 b 378 -110 464 -148 427 -110 b 293 -195 332 -110 293 -148 b 378 -279 293 -241 332 -279 z "},"ế":{"ha":733,"x_min":0,"x_max":0,"o":"m 492 1019 l 586 1019 l 738 1215 l 602 1215 z m 151 792 l 269 792 l 373 931 l 479 792 l 596 792 l 439 998 l 309 998 z m 377 -14 b 683 202 550 -14 660 89 l 684 210 l 545 210 l 543 204 b 380 106 525 151 467 106 b 187 319 264 106 190 184 l 692 319 l 692 369 b 370 727 692 583 570 727 b 41 355 170 727 41 578 l 41 354 b 377 -14 41 129 168 -14 z m 370 607 b 547 423 466 607 535 547 l 189 423 b 370 607 202 543 275 607 z "},"ë":{"ha":733,"x_min":0,"x_max":0,"o":"m 240 823 b 319 901 284 823 319 857 b 240 978 319 943 284 978 b 161 901 196 978 161 943 b 240 823 161 857 196 823 z m 507 823 b 586 901 552 823 586 857 b 507 978 586 943 552 978 b 429 901 464 978 429 943 b 507 823 429 857 464 823 z m 377 -14 b 683 202 550 -14 660 89 l 684 210 l 545 210 l 543 204 b 380 106 525 151 467 106 b 187 319 264 106 190 184 l 692 319 l 692 369 b 370 727 692 583 570 727 b 41 355 170 727 41 578 l 41 354 b 377 -14 41 129 168 -14 z m 370 607 b 547 423 466 607 535 547 l 189 423 b 370 607 202 543 275 607 z "}}}
